<svg xmlns="http://www.w3.org/2000/svg" xmlns:xlink="http://www.w3.org/1999/xlink" version="1.1" viewBox="0 0 2480 1748" style="background: #ffffff"><g id="v-3"  transform="matrix(1,0,0,1,0,0)"><g id="j_407"    transform="translate(20,1703)"><g id="v-7104"><text  id="v-7105" font-size="22px" y="0.8em" xml:space="preserve" font-weight="normal" text-anchor="start" fill="#aaaaaa" pointer-events="none" font-family="Open Sans" transform="matrix(1,0,0,1,0,0)"><tspan id="v-7106"  dy="0em" x="0">quinta-feira, 24 de fevereiro de 2022 21:57 Horário Padrão de Brasília</tspan></text></g></g><g id="j_406"    transform="translate(20,1674)"><g id="v-7100"><text  id="v-7101" font-size="22px" y="0.8em" xml:space="preserve" font-weight="normal" text-anchor="start" fill="#aaaaaa" pointer-events="none" font-family="Open Sans" transform="matrix(1,0,0,1,0,0)"><tspan id="v-7102"  dy="0em" x="0">C4 - Level 3</tspan></text></g></g><g id="j_405"    transform="translate(20,1628)"><g id="v-7096"><text  id="v-7097" font-size="36px" y="0.8em" xml:space="preserve" font-weight="normal" text-anchor="start" fill="#000000" pointer-events="none" font-family="Open Sans" transform="matrix(1,0,0,1,0,0)"><tspan id="v-7098"  dy="0em" x="0">[Component] Controle Financeiro Pessoal - API-CFP</tspan></text></g></g><g id="j_388"    transform="translate(250,410)" style=""><g id="v-6776"><rect  id="v-6777" width="1275" height="833" rx="0" ry="0" fill="#ffffff" stroke="#444444" stroke-width="2" stroke-dasharray="20,20" pointer-events="none"></rect><text  id="v-6778" font-size="24px" y="794" xml:space="preserve" font-weight="normal" fill="#444444" x="10" text-anchor="start" pointer-events="visible" font-family="Open Sans" transform="matrix(1,0,0,1,15,0)"><tspan id="v-6780"  dy="0em" x="0">API-CFP</tspan></text><text  id="v-6779" font-size="19px" y="818" xml:space="preserve" font-weight="normal" fill="#444444" x="10" text-anchor="start" pointer-events="visible" font-family="Open Sans" transform="matrix(1,0,0,1,15,0)"><tspan id="v-6781"  dy="0em" x="0">[Container]</tspan></text></g></g><g id="j_389"    transform="translate(1055,430)" style=""><g  id="v-6785" style="opacity: 1;"><rect  id="v-6786" rx="20" ry="20" stroke="#78a8d8" stroke-width="2" pointer-events="visiblePainted" fill="#85bbf0" width="450" height="300"></rect><text  id="v-6787" font-size="34" y="0.8em" xml:space="preserve" font-weight="bold" text-anchor="middle" pointer-events="visible" font-family="Open Sans" fill="#000000" transform="matrix(1,0,0,1,225,45)"><tspan id="v-6792"  dy="0em" x="0">Auth Controller</tspan></text><text  id="v-6788" font-size="19" y="0.8em" xml:space="preserve" text-anchor="middle" font-family="Open Sans" fill="#000000" transform="matrix(1,0,0,1,225,87.5)"><tspan id="v-6793"  dy="0em" x="0">[Component: NodeJS+Express]</tspan></text><text  id="v-6789" font-size="24" y="0.8em" xml:space="preserve" text-anchor="middle" font-family="Open Sans" fill="#000000" transform="matrix(1,0,0,1,225,135)"><tspan id="v-6794"  dy="0em" x="0">Provê funcionalidades de segurança</tspan><tspan id="v-6795"  dy="1.2em" x="0">relacionadas ao cadastro,</tspan><tspan id="v-6796"  dy="1.2em" x="0">autenticação, troca de senha,</tspan><tspan id="v-6797"  dy="1.2em" x="0">esqueci minha senha, etc.</tspan></text><text  id="v-6790" font-weight="bold" text-anchor="middle" font-family="Open Sans" fill="#000000" font-size="24" transform="matrix(1,0,0,1,225,270)" display="none"></text><image  id="v-6791"></image></g></g><g id="j_390"    transform="translate(1055,850)" style=""><g  id="v-6799" style="opacity: 1;"><rect  id="v-6800" rx="20" ry="20" stroke="#78a8d8" stroke-width="2" pointer-events="visiblePainted" fill="#85bbf0" width="450" height="300"></rect><text  id="v-6801" font-size="34" y="0.8em" xml:space="preserve" font-weight="bold" text-anchor="middle" pointer-events="visible" font-family="Open Sans" fill="#000000" transform="matrix(1,0,0,1,225,116.9)"><tspan id="v-6806"  dy="0em" x="0">Security Layer</tspan></text><text  id="v-6802" font-size="19" y="0.8em" xml:space="preserve" text-anchor="middle" font-family="Open Sans" fill="#000000" transform="matrix(1,0,0,1,225,159.4)"><tspan id="v-6807"  dy="0em" x="0">[Component: NodeJS]</tspan></text><text  id="v-6803" font-size="24" y="0.8em" display="none" xml:space="preserve" text-anchor="middle" font-family="Open Sans" fill="#000000" transform="matrix(1,0,0,1,225,183.1)"><tspan id="v-6808"  dy="0em" x="0" style="fill-opacity: 0; stroke-opacity: 0;">-</tspan></text><text  id="v-6804" font-weight="bold" text-anchor="middle" font-family="Open Sans" fill="#000000" font-size="24" transform="matrix(1,0,0,1,225,270)" display="none"></text><image  id="v-6805"></image></g></g><g id="j_391"    transform="translate(345,435)" style=""><g  id="v-6812" style="opacity: 1;"><rect  id="v-6813" rx="20" ry="20" stroke="#78a8d8" stroke-width="2" pointer-events="visiblePainted" fill="#85bbf0" width="450" height="300"></rect><text  id="v-6814" font-size="34" y="0.8em" xml:space="preserve" font-weight="bold" text-anchor="middle" pointer-events="visible" font-family="Open Sans" fill="#000000" transform="matrix(1,0,0,1,225,60)"><tspan id="v-6819"  dy="0em" x="0">API Controller</tspan></text><text  id="v-6815" font-size="19" y="0.8em" xml:space="preserve" text-anchor="middle" font-family="Open Sans" fill="#000000" transform="matrix(1,0,0,1,225,102.5)"><tspan id="v-6820"  dy="0em" x="0">[Component: NodeJS+Express]</tspan></text><text  id="v-6816" font-size="24" y="0.8em" xml:space="preserve" text-anchor="middle" font-family="Open Sans" fill="#000000" transform="matrix(1,0,0,1,225,150)"><tspan id="v-6821"  dy="0em" x="0">Atende as principais operações</tspan><tspan id="v-6822"  dy="1.2em" x="0">financeiras que afetam os saldos das</tspan><tspan id="v-6823"  dy="1.2em" x="0">contas</tspan></text><text  id="v-6817" font-weight="bold" text-anchor="middle" font-family="Open Sans" fill="#000000" font-size="24" transform="matrix(1,0,0,1,225,270)" display="none"></text><image  id="v-6818"></image></g></g><g id="j_392"    transform="translate(270,845)" style=""><g  id="v-6827" style="opacity: 1;"><rect  id="v-6828" rx="20" ry="20" stroke="#78a8d8" stroke-width="2" pointer-events="visiblePainted" fill="#85bbf0" width="450" height="300"></rect><text  id="v-6829" font-size="34" y="0.8em" xml:space="preserve" font-weight="bold" text-anchor="middle" pointer-events="visible" font-family="Open Sans" fill="#000000" transform="matrix(1,0,0,1,225,75)"><tspan id="v-6834"  dy="0em" x="0">Database Facade</tspan></text><text  id="v-6830" font-size="19" y="0.8em" xml:space="preserve" text-anchor="middle" font-family="Open Sans" fill="#000000" transform="matrix(1,0,0,1,225,117.5)"><tspan id="v-6835"  dy="0em" x="0">[Component: ORM Sequelize]</tspan></text><text  id="v-6831" font-size="24" y="0.8em" xml:space="preserve" text-anchor="middle" font-family="Open Sans" fill="#000000" transform="matrix(1,0,0,1,225,165)"><tspan id="v-6836"  dy="0em" x="0">Funcionalidades de acesso aos dados</tspan><tspan id="v-6837"  dy="1.2em" x="0">da aplicação</tspan></text><text  id="v-6832" font-weight="bold" text-anchor="middle" font-family="Open Sans" fill="#000000" font-size="24" transform="matrix(1,0,0,1,225,270)" display="none"></text><image  id="v-6833"></image></g></g><g id="j_393"    transform="translate(1860,630)" style="" ><g  id="v-6841" style="opacity: 1;"><rect  id="v-6842" rx="20" ry="20" stroke="#c7c7c7" stroke-width="2" pointer-events="visiblePainted" fill="#dddddd" width="450" height="300"></rect><text  id="v-6843" font-size="34" y="0.8em" xml:space="preserve" font-weight="bold" text-anchor="middle" pointer-events="visible" font-family="Open Sans" fill="#000000" transform="matrix(1,0,0,1,225,90)"><tspan id="v-6848"  dy="0em" x="0">Google</tspan></text><text  id="v-6844" font-size="19" y="0.8em" xml:space="preserve" text-anchor="middle" font-family="Open Sans" fill="#000000" transform="matrix(1,0,0,1,225,132.5)"><tspan id="v-6849"  dy="0em" x="0">[Software System]</tspan></text><text  id="v-6845" font-size="24" y="0.8em" xml:space="preserve" text-anchor="middle" font-family="Open Sans" fill="#000000" transform="matrix(1,0,0,1,225,180)"><tspan id="v-6850"  dy="0em" x="0">Serviço de autenticação do Google</tspan></text><text  id="v-6846" font-weight="bold" text-anchor="middle" font-family="Open Sans" fill="#000000" font-size="24" transform="matrix(1,0,0,1,225,270)" y="0.8em" display="none" xml:space="preserve"><tspan id="v-6851"  dy="0em" x="0" style="fill-opacity: 0; stroke-opacity: 0;">-</tspan></text><image  id="v-6847"></image></g></g><g id="j_394"    transform="translate(1855,190)" style="" ><g  id="v-6855" style="opacity: 1;"><rect  id="v-6856" rx="20" ry="20" stroke="#c7c7c7" stroke-width="2" pointer-events="visiblePainted" fill="#dddddd" width="450" height="300"></rect><text  id="v-6857" font-size="34" y="0.8em" xml:space="preserve" font-weight="bold" text-anchor="middle" pointer-events="visible" font-family="Open Sans" fill="#000000" transform="matrix(1,0,0,1,225,90)"><tspan id="v-6862"  dy="0em" x="0">Sistema de email</tspan></text><text  id="v-6858" font-size="19" y="0.8em" xml:space="preserve" text-anchor="middle" font-family="Open Sans" fill="#000000" transform="matrix(1,0,0,1,225,132.5)"><tspan id="v-6863"  dy="0em" x="0">[Software System]</tspan></text><text  id="v-6859" font-size="24" y="0.8em" xml:space="preserve" text-anchor="middle" font-family="Open Sans" fill="#000000" transform="matrix(1,0,0,1,225,180)"><tspan id="v-6864"  dy="0em" x="0">Serviço de correio eletrônico</tspan></text><text  id="v-6860" font-weight="bold" text-anchor="middle" font-family="Open Sans" fill="#000000" font-size="24" transform="matrix(1,0,0,1,225,270)" y="0.8em" display="none" xml:space="preserve"><tspan id="v-6865"  dy="0em" x="0" style="fill-opacity: 0; stroke-opacity: 0;">-</tspan></text><image  id="v-6861"></image></g></g><g id="j_395"    transform="translate(700,15)" style="" ><g  id="v-6869" style="opacity: 1;"><rect  id="v-6870" rx="10" ry="10" stroke="#3c7fc0" stroke-width="2" pointer-events="visiblePainted" fill="#3c7fc0" width="450" height="300"></rect><rect  id="v-6871" rx="10" ry="10" stroke="#3c7fc0" stroke-width="0" pointer-events="visiblePainted" fill="#438dd5" width="430" height="250" x="10" y="40"></rect><ellipse  id="v-6878" fill="#438dd5" cx="20" cy="20" rx="10" ry="10"></ellipse><ellipse  id="v-6879" fill="#438dd5" cx="50" cy="20" rx="10" ry="10"></ellipse><ellipse  id="v-6880" fill="#438dd5" cx="80" cy="20" rx="10" ry="10"></ellipse><rect  id="v-6872" rx="10" ry="10" stroke="#444444" stroke-width="0" pointer-events="visiblePainted" fill="#438dd5" width="340" height="20" x="100" y="10"></rect><text  id="v-6873" font-size="34" y="0.8em" xml:space="preserve" font-weight="bold" text-anchor="middle" pointer-events="visible" font-family="Open Sans" fill="#ffffff" transform="matrix(1,0,0,1,225,95)"><tspan id="v-6881"  dy="0em" x="0">SPA-CFP</tspan></text><text  id="v-6874" font-size="19" y="0.8em" xml:space="preserve" text-anchor="middle" font-family="Open Sans" fill="#ffffff" transform="matrix(1,0,0,1,225,137.5)"><tspan id="v-6882"  dy="0em" x="0">[Container: Angular]</tspan></text><text  id="v-6875" font-size="24" y="0.8em" xml:space="preserve" text-anchor="middle" font-family="Open Sans" fill="#ffffff" transform="matrix(1,0,0,1,225,185)"><tspan id="v-6883"  dy="0em" x="0">Interface gráfica do sistema Controle</tspan><tspan id="v-6884"  dy="1.2em" x="0">Financeiro Pessoal.</tspan></text><text  id="v-6876" font-weight="bold" text-anchor="middle" font-family="Open Sans" fill="#ffffff" font-size="24" transform="matrix(1,0,0,1,225,270)" y="0.8em" display="none" xml:space="preserve"><tspan id="v-6885"  dy="0em" x="0" style="fill-opacity: 0; stroke-opacity: 0;">-</tspan></text><image  id="v-6877"></image></g></g><g id="j_396"    transform="translate(265,1300)" style="" ><g  id="v-6891" style="opacity: 1;"><ellipse  id="bottom" cx="225" cy="270" rx="225" ry="30" stroke="#3c7fc0" stroke-width="2" pointer-events="visiblePainted" fill="#438dd5"></ellipse><rect  id="face" x="0" y="30" width="450" height="240" stroke="#3c7fc0" stroke-width="2" pointer-events="visiblePainted" fill="#438dd5"></rect><clipPath id="cylinderStructurizrClipPath3" clipPathUnits="userSpaceOnUse"><use xmlns:xlink="http://www.w3.org/1999/xlink" xlink:href="#bottom"></use><use xmlns:xlink="http://www.w3.org/1999/xlink" xlink:href="#face"></use></clipPath><rect  x="0" y="30" width="450" height="270" clip-path="url(#cylinderStructurizrClipPath3)" id="v-6892" stroke="none" stroke-width="2" pointer-events="visiblePainted" fill="#438dd5"></rect><ellipse cx="225" cy="30" rx="225" ry="30" id="lid"  stroke="#3c7fc0" stroke-width="2" pointer-events="visiblePainted" fill="#438dd5"></ellipse><text  id="v-6893" font-size="34px" y="0.8em" xml:space="preserve" font-weight="bold" text-anchor="middle" pointer-events="visible" font-family="Open Sans" fill="#ffffff" transform="matrix(1,0,0,1,225,90)"><tspan id="v-6898"  dy="0em" x="0">Base de dados CFP</tspan></text><text  id="v-6894" font-size="19px" y="0.8em" xml:space="preserve" text-anchor="middle" font-family="Open Sans" fill="#ffffff" transform="matrix(1,0,0,1,225,132.5)"><tspan id="v-6899"  dy="0em" x="0">[Container: MariaDB]</tspan></text><text  id="v-6895" font-size="24px" y="0.8em" xml:space="preserve" text-anchor="middle" font-family="Open Sans" fill="#ffffff" transform="matrix(1,0,0,1,225,180)"><tspan id="v-6900"  dy="0em" x="0">Armazena os dados registrados pelo</tspan><tspan id="v-6901"  dy="1.2em" x="0">usuário em memória persistente.</tspan></text><text  id="v-6896" font-weight="bold" text-anchor="middle" font-family="Open Sans" fill="#ffffff" font-size="24" transform="matrix(1,0,0,1,225,273)" y="0.8em" display="none" xml:space="preserve"><tspan id="v-6902"  dy="0em" x="0" style="fill-opacity: 0; stroke-opacity: 0;">-</tspan></text><image  id="v-6897"></image></g></g><g id="j_397"   ><path  stroke="#000000" id="v-6922" stroke-width="2" stroke-dasharray="30 30" fill="none" d="M 493 1145 491 1280" style="opacity: 1;"></path><path  fill="black" stroke="black" transform="translate(493,1145) scale(1,1) rotate(-269.2607421875)"></path><path  fill="#000000" stroke="#000000" id="v-6924" d="M 20 0 L 0 10 L 20 20 z" transform="translate(481.00083943044297,1299.8710008847756) scale(1,1) rotate(-89.2607421875)" style="opacity: 1;"></path><path  id="v-6923" fill="none" d="M 493 1145 491 1280"></path><title ></title><g ><g  id="v-6910" label-idx="0" cursor="move" transform="translate(492, 1212.5)" style="opacity: 1;"><rect id="v-6912" fill="#ffffff" rx="3" ry="3" stroke="#ffffff" stroke-width="20px" pointer-events="none" width="163.721435546875" height="32.34315490722656" transform="matrix(1,0,0,1,-81.9,-16.2)"></rect><text id="v-6911" font-size="24px" y="0.8em" xml:space="preserve" text-anchor="middle" pointer-events="none" fill="#000000" font-family="Open Sans" font-weight="normal" transform="matrix(1,0,0,1,0,-10.1)"><tspan id="v-6913"  dy="0em" x="0">persiste dados</tspan></text></g><g  id="v-6914" label-idx="1" cursor="move" transform="translate(492, 1243.7)" style="opacity: 1;"><rect id="v-6916" fill="#ffffff" rx="3" ry="3" pointer-events="none" width="145.1020050048828" height="26.27881145477295" transform="matrix(1,0,0,1,-72.6,-13.1)"></rect><text id="v-6915" font-size="19px" y="0.8em" xml:space="preserve" text-anchor="middle" pointer-events="none" fill="#000000" font-family="Open Sans" font-weight="normal" transform="matrix(1,0,0,1,0,-8.1)"><tspan id="v-6917"  dy="0em" x="0">[ORM Sequelize]</tspan></text></g><g  id="v-6918" label-idx="2" cursor="move" transform="translate(492, 1267.7)" style="opacity: 1;"><rect id="v-6920" fill="#ffffff" rx="3" ry="3" pointer-events="none"  display="none" width="0" height="0" transform="matrix(1,0,0,1,0,0)"></rect><text id="v-6919" font-size="19px" y="0.8em" display="none" xml:space="preserve" text-anchor="middle" pointer-events="none" fill="#000000" font-family="Open Sans" font-weight="normal"  transform="matrix(1,0,0,1,0,0)"><tspan id="v-6921"  dy="0em" x="0" style="fill-opacity: 0; stroke-opacity: 0;">-</tspan></text></g></g><g  display="none"></g><g  id="v-6926" display="none"><g  id="v-6907"><path  end="source" d="M 26 0 L 0 13 L 26 26 z"></path></g><g  id="v-6908"><path  end="target" d="M 26 0 L 0 13 L 26 26 z"></path></g></g><g  id="v-6925" display="none"><g  id="v-6906" transform="translate(492.407470703125, 1184.99560546875) "><g  event="remove"><circle r="11"></circle><path transform="scale(.8) translate(-16, -16)" d="M24.778,21.419 19.276,15.917 24.777,10.415 21.949,7.585 16.447,13.087 10.945,7.585 8.117,10.415 13.618,15.917 8.116,21.419 10.946,24.248 16.447,18.746 21.948,24.248z"></path><title>Remove link.</title></g><g  event="link:options"><circle r="11" transform="translate(25)"></circle><path fill="white" transform="scale(.55) translate(29, -16)" d="M31.229,17.736c0.064-0.571,0.104-1.148,0.104-1.736s-0.04-1.166-0.104-1.737l-4.377-1.557c-0.218-0.716-0.504-1.401-0.851-2.05l1.993-4.192c-0.725-0.91-1.549-1.734-2.458-2.459l-4.193,1.994c-0.647-0.347-1.334-0.632-2.049-0.849l-1.558-4.378C17.165,0.708,16.588,0.667,16,0.667s-1.166,0.041-1.737,0.105L12.707,5.15c-0.716,0.217-1.401,0.502-2.05,0.849L6.464,4.005C5.554,4.73,4.73,5.554,4.005,6.464l1.994,4.192c-0.347,0.648-0.632,1.334-0.849,2.05l-4.378,1.557C0.708,14.834,0.667,15.412,0.667,16s0.041,1.165,0.105,1.736l4.378,1.558c0.217,0.715,0.502,1.401,0.849,2.049l-1.994,4.193c0.725,0.909,1.549,1.733,2.459,2.458l4.192-1.993c0.648,0.347,1.334,0.633,2.05,0.851l1.557,4.377c0.571,0.064,1.148,0.104,1.737,0.104c0.588,0,1.165-0.04,1.736-0.104l1.558-4.377c0.715-0.218,1.399-0.504,2.049-0.851l4.193,1.993c0.909-0.725,1.733-1.549,2.458-2.458l-1.993-4.193c0.347-0.647,0.633-1.334,0.851-2.049L31.229,17.736zM16,20.871c-2.69,0-4.872-2.182-4.872-4.871c0-2.69,2.182-4.872,4.872-4.872c2.689,0,4.871,2.182,4.871,4.872C20.871,18.689,18.689,20.871,16,20.871z"></path><title>Link options.</title></g></g></g></g><g id="j_398"   ><path  stroke="#000000" id="v-6948" stroke-width="2" stroke-dasharray="30 30" fill="none" d="M 1505 513 1836 414" style="opacity: 1;"></path><path  fill="black" stroke="black" transform="translate(1505,513) scale(1,1) rotate(-16.699243545532227)"></path><path  fill="#000000" stroke="#000000" id="v-6950" d="M 20 0 L 0 10 L 20 20 z" transform="translate(1857.8734952265952,417.5782570237236) scale(1,1) rotate(-196.69924926757812)" style="opacity: 1;"></path><path  id="v-6949" fill="none" d="M 1505 513 1836 414"></path><title ></title><g ><g  id="v-6934" label-idx="0" cursor="move" transform="translate(1670.5, 463.5)" style="opacity: 1;"><rect id="v-6936" fill="#ffffff" rx="3" ry="3" stroke="#ffffff" stroke-width="20px" pointer-events="none" width="189.03689575195312" height="89.94315719604492" transform="matrix(1,0,0,1,-94.5,-45)"></rect><text id="v-6935" font-size="24px" y="0.8em" xml:space="preserve" text-anchor="middle" pointer-events="none" fill="#000000" font-family="Open Sans" font-weight="normal" transform="matrix(1,0,0,1,0,-38.9)"><tspan id="v-6937"  dy="0em" x="0">envia e-mail com</tspan><tspan id="v-6938"  dy="1.2em" x="0">autenticação</tspan><tspan id="v-6939"  dy="1.2em" x="0">temporária</tspan></text></g><g  id="v-6940" label-idx="1" cursor="move" transform="translate(1670.5, 521.1)" style="opacity: 1;"><rect id="v-6942" fill="#ffffff" rx="3" ry="3" pointer-events="none" width="61.81206512451172" height="26.27881145477295" transform="matrix(1,0,0,1,-30.9,-13.1)"></rect><text id="v-6941" font-size="19px" y="0.8em" xml:space="preserve" text-anchor="middle" pointer-events="none" fill="#000000" font-family="Open Sans" font-weight="normal" transform="matrix(1,0,0,1,0,-8.1)"><tspan id="v-6943"  dy="0em" x="0">[SMTP]</tspan></text></g><g  id="v-6944" label-idx="2" cursor="move" transform="translate(1670.5, 545.1)" style="opacity: 1;"><rect id="v-6946" fill="#ffffff" rx="3" ry="3" pointer-events="none"  display="none" width="0" height="0" transform="matrix(1,0,0,1,0,0)"></rect><text id="v-6945" font-size="19px" y="0.8em" display="none" xml:space="preserve" text-anchor="middle" pointer-events="none" fill="#000000" font-family="Open Sans" font-weight="normal"  transform="matrix(1,0,0,1,0,0)"><tspan id="v-6947"  dy="0em" x="0" style="fill-opacity: 0; stroke-opacity: 0;">-</tspan></text></g></g><g  display="none"></g><g  id="v-6952" display="none"><g  id="v-6931"><path  end="source" d="M 26 0 L 0 13 L 26 26 z"></path></g><g  id="v-6932"><path  end="target" d="M 26 0 L 0 13 L 26 26 z"></path></g></g><g  id="v-6951" display="none"><g  id="v-6930" transform="translate(1543.322509765625, 501.5379638671875) "><g  event="remove"><circle r="11"></circle><path transform="scale(.8) translate(-16, -16)" d="M24.778,21.419 19.276,15.917 24.777,10.415 21.949,7.585 16.447,13.087 10.945,7.585 8.117,10.415 13.618,15.917 8.116,21.419 10.946,24.248 16.447,18.746 21.948,24.248z"></path><title>Remove link.</title></g><g  event="link:options"><circle r="11" transform="translate(25)"></circle><path fill="white" transform="scale(.55) translate(29, -16)" d="M31.229,17.736c0.064-0.571,0.104-1.148,0.104-1.736s-0.04-1.166-0.104-1.737l-4.377-1.557c-0.218-0.716-0.504-1.401-0.851-2.05l1.993-4.192c-0.725-0.91-1.549-1.734-2.458-2.459l-4.193,1.994c-0.647-0.347-1.334-0.632-2.049-0.849l-1.558-4.378C17.165,0.708,16.588,0.667,16,0.667s-1.166,0.041-1.737,0.105L12.707,5.15c-0.716,0.217-1.401,0.502-2.05,0.849L6.464,4.005C5.554,4.73,4.73,5.554,4.005,6.464l1.994,4.192c-0.347,0.648-0.632,1.334-0.849,2.05l-4.378,1.557C0.708,14.834,0.667,15.412,0.667,16s0.041,1.165,0.105,1.736l4.378,1.558c0.217,0.715,0.502,1.401,0.849,2.049l-1.994,4.193c0.725,0.909,1.549,1.733,2.459,2.458l4.192-1.993c0.648,0.347,1.334,0.633,2.05,0.851l1.557,4.377c0.571,0.064,1.148,0.104,1.737,0.104c0.588,0,1.165-0.04,1.736-0.104l1.558-4.377c0.715-0.218,1.399-0.504,2.049-0.851l4.193,1.993c0.909-0.725,1.733-1.549,2.458-2.458l-1.993-4.193c0.347-0.647,0.633-1.334,0.851-2.049L31.229,17.736zM16,20.871c-2.69,0-4.872-2.182-4.872-4.871c0-2.69,2.182-4.872,4.872-4.872c2.689,0,4.871,2.182,4.871,4.872C20.871,18.689,18.689,20.871,16,20.871z"></path><title>Link options.</title></g></g></g></g><g id="j_399"   ><path  stroke="#000000" id="v-6970" stroke-width="2" stroke-dasharray="30 30" fill="none" d="M 1280 730 1280 830" style="opacity: 1;"></path><path  fill="black" stroke="black" transform="translate(1280,730) scale(1,1) rotate(-270)"></path><path  fill="#000000" stroke="#000000" id="v-6972" d="M 20 0 L 0 10 L 20 20 z" transform="translate(1270,850) scale(1,1) rotate(-90)" style="opacity: 1;"></path><path  id="v-6971" fill="none" d="M 1280 730 1280 830"></path><title ></title><g ><g  id="v-6958" label-idx="0" cursor="move" transform="translate(1280, 780)" style="opacity: 1;"><rect id="v-6960" fill="#ffffff" rx="3" ry="3" stroke="#ffffff" stroke-width="20px" pointer-events="none" width="66.02867889404297" height="32.34315490722656" transform="matrix(1,0,0,1,-33,-16.2)"></rect><text id="v-6959" font-size="24px" y="0.8em" xml:space="preserve" text-anchor="middle" pointer-events="none" fill="#000000" font-family="Open Sans" font-weight="normal" transform="matrix(1,0,0,1,0,-10.1)"><tspan id="v-6961"  dy="0em" x="0">utiliza</tspan></text></g><g  id="v-6962" label-idx="1" cursor="move" transform="translate(1280, 811.2)" style="opacity: 1;"><rect id="v-6964" fill="#ffffff" rx="3" ry="3" pointer-events="none" width="0" height="0" transform="matrix(1,0,0,1,0,0)"></rect><text id="v-6963" font-size="19px" y="0.8em" display="none" xml:space="preserve" text-anchor="middle" pointer-events="none" fill="#000000" font-family="Open Sans" font-weight="normal" transform="matrix(1,0,0,1,0,0)"><tspan id="v-6965"  dy="0em" x="0" style="fill-opacity: 0; stroke-opacity: 0;">-</tspan></text></g><g  id="v-6966" label-idx="2" cursor="move" transform="translate(1280, 835.2)" style="opacity: 1;"><rect id="v-6968" fill="#ffffff" rx="3" ry="3" pointer-events="none"  display="none" width="0" height="0" transform="matrix(1,0,0,1,0,0)"></rect><text id="v-6967" font-size="19px" y="0.8em" display="none" xml:space="preserve" text-anchor="middle" pointer-events="none" fill="#000000" font-family="Open Sans" font-weight="normal"  transform="matrix(1,0,0,1,0,0)"><tspan id="v-6969"  dy="0em" x="0" style="fill-opacity: 0; stroke-opacity: 0;">-</tspan></text></g></g><g  display="none"></g><g  id="v-6974" display="none"><g  id="v-6955"><path  end="source" d="M 26 0 L 0 13 L 26 26 z"></path></g><g  id="v-6956"><path  end="target" d="M 26 0 L 0 13 L 26 26 z"></path></g></g><g  id="v-6973" display="none"><g  id="v-6954" transform="translate(1280, 770) "><g  event="remove"><circle r="11"></circle><path transform="scale(.8) translate(-16, -16)" d="M24.778,21.419 19.276,15.917 24.777,10.415 21.949,7.585 16.447,13.087 10.945,7.585 8.117,10.415 13.618,15.917 8.116,21.419 10.946,24.248 16.447,18.746 21.948,24.248z"></path><title>Remove link.</title></g><g  event="link:options"><circle r="11" transform="translate(25)"></circle><path fill="white" transform="scale(.55) translate(29, -16)" d="M31.229,17.736c0.064-0.571,0.104-1.148,0.104-1.736s-0.04-1.166-0.104-1.737l-4.377-1.557c-0.218-0.716-0.504-1.401-0.851-2.05l1.993-4.192c-0.725-0.91-1.549-1.734-2.458-2.459l-4.193,1.994c-0.647-0.347-1.334-0.632-2.049-0.849l-1.558-4.378C17.165,0.708,16.588,0.667,16,0.667s-1.166,0.041-1.737,0.105L12.707,5.15c-0.716,0.217-1.401,0.502-2.05,0.849L6.464,4.005C5.554,4.73,4.73,5.554,4.005,6.464l1.994,4.192c-0.347,0.648-0.632,1.334-0.849,2.05l-4.378,1.557C0.708,14.834,0.667,15.412,0.667,16s0.041,1.165,0.105,1.736l4.378,1.558c0.217,0.715,0.502,1.401,0.849,2.049l-1.994,4.193c0.725,0.909,1.549,1.733,2.459,2.458l4.192-1.993c0.648,0.347,1.334,0.633,2.05,0.851l1.557,4.377c0.571,0.064,1.148,0.104,1.737,0.104c0.588,0,1.165-0.04,1.736-0.104l1.558-4.377c0.715-0.218,1.399-0.504,2.049-0.851l4.193,1.993c0.909-0.725,1.733-1.549,2.458-2.458l-1.993-4.193c0.347-0.647,0.633-1.334,0.851-2.049L31.229,17.736zM16,20.871c-2.69,0-4.872-2.182-4.872-4.871c0-2.69,2.182-4.872,4.872-4.872c2.689,0,4.871,2.182,4.871,4.872C20.871,18.689,18.689,20.871,16,20.871z"></path><title>Link options.</title></g></g></g></g><g id="j_400"   ><path  stroke="#000000" id="v-6995" stroke-width="2" stroke-dasharray="30 30" fill="none" d="M 1505 636 1841 719" style="opacity: 1;"></path><path  fill="black" stroke="black" transform="translate(1505,636) scale(1,1) rotate(13.92227172851564)"></path><path  fill="#000000" stroke="#000000" id="v-6997" d="M 20 0 L 0 10 L 20 20 z" transform="translate(1857.5940031842113,733.7062150050148) scale(1,1) rotate(-166.07774353027344)" style="opacity: 1;"></path><path  id="v-6996" fill="none" d="M 1505 636 1841 719"></path><title ></title><g ><g  id="v-6982" label-idx="0" cursor="move" transform="translate(1673, 677.5)" style="opacity: 1;"><rect id="v-6984" fill="#ffffff" rx="3" ry="3" stroke="#ffffff" stroke-width="20px" pointer-events="none" width="113.0273208618164" height="61.14315414428711" transform="matrix(1,0,0,1,-56.5,-30.6)"></rect><text id="v-6983" font-size="24px" y="0.8em" xml:space="preserve" text-anchor="middle" pointer-events="none" fill="#000000" font-family="Open Sans" font-weight="normal" transform="matrix(1,0,0,1,0,-24.5)"><tspan id="v-6985"  dy="0em" x="0">autentica/</tspan><tspan id="v-6986"  dy="1.2em" x="0">registra</tspan></text></g><g  id="v-6987" label-idx="1" cursor="move" transform="translate(1673, 720.7)" style="opacity: 1;"><rect id="v-6989" fill="#ffffff" rx="3" ry="3" pointer-events="none" width="69.2029800415039" height="26.27881145477295" transform="matrix(1,0,0,1,-34.6,-13.1)"></rect><text id="v-6988" font-size="19px" y="0.8em" xml:space="preserve" text-anchor="middle" pointer-events="none" fill="#000000" font-family="Open Sans" font-weight="normal" transform="matrix(1,0,0,1,0,-8.1)"><tspan id="v-6990"  dy="0em" x="0">[HTTPS]</tspan></text></g><g  id="v-6991" label-idx="2" cursor="move" transform="translate(1673, 744.7)" style="opacity: 1;"><rect id="v-6993" fill="#ffffff" rx="3" ry="3" pointer-events="none"  display="none" width="0" height="0" transform="matrix(1,0,0,1,0,0)"></rect><text id="v-6992" font-size="19px" y="0.8em" display="none" xml:space="preserve" text-anchor="middle" pointer-events="none" fill="#000000" font-family="Open Sans" font-weight="normal"  transform="matrix(1,0,0,1,0,0)"><tspan id="v-6994"  dy="0em" x="0" style="fill-opacity: 0; stroke-opacity: 0;">-</tspan></text></g></g><g  display="none"></g><g  id="v-6999" display="none"><g  id="v-6979"><path  end="source" d="M 26 0 L 0 13 L 26 26 z"></path></g><g  id="v-6980"><path  end="target" d="M 26 0 L 0 13 L 26 26 z"></path></g></g><g  id="v-6998" display="none"><g  id="v-6978" transform="translate(1543.832763671875, 645.5925903320312) "><g  event="remove"><circle r="11"></circle><path transform="scale(.8) translate(-16, -16)" d="M24.778,21.419 19.276,15.917 24.777,10.415 21.949,7.585 16.447,13.087 10.945,7.585 8.117,10.415 13.618,15.917 8.116,21.419 10.946,24.248 16.447,18.746 21.948,24.248z"></path><title>Remove link.</title></g><g  event="link:options"><circle r="11" transform="translate(25)"></circle><path fill="white" transform="scale(.55) translate(29, -16)" d="M31.229,17.736c0.064-0.571,0.104-1.148,0.104-1.736s-0.04-1.166-0.104-1.737l-4.377-1.557c-0.218-0.716-0.504-1.401-0.851-2.05l1.993-4.192c-0.725-0.91-1.549-1.734-2.458-2.459l-4.193,1.994c-0.647-0.347-1.334-0.632-2.049-0.849l-1.558-4.378C17.165,0.708,16.588,0.667,16,0.667s-1.166,0.041-1.737,0.105L12.707,5.15c-0.716,0.217-1.401,0.502-2.05,0.849L6.464,4.005C5.554,4.73,4.73,5.554,4.005,6.464l1.994,4.192c-0.347,0.648-0.632,1.334-0.849,2.05l-4.378,1.557C0.708,14.834,0.667,15.412,0.667,16s0.041,1.165,0.105,1.736l4.378,1.558c0.217,0.715,0.502,1.401,0.849,2.049l-1.994,4.193c0.725,0.909,1.549,1.733,2.459,2.458l4.192-1.993c0.648,0.347,1.334,0.633,2.05,0.851l1.557,4.377c0.571,0.064,1.148,0.104,1.737,0.104c0.588,0,1.165-0.04,1.736-0.104l1.558-4.377c0.715-0.218,1.399-0.504,2.049-0.851l4.193,1.993c0.909-0.725,1.733-1.549,2.458-2.458l-1.993-4.193c0.347-0.647,0.633-1.334,0.851-2.049L31.229,17.736zM16,20.871c-2.69,0-4.872-2.182-4.872-4.871c0-2.69,2.182-4.872,4.872-4.872c2.689,0,4.871,2.182,4.871,4.872C20.871,18.689,18.689,20.871,16,20.871z"></path><title>Link options.</title></g></g></g></g><g id="j_401"   ><path  stroke="#000000" id="v-7020" stroke-width="2" stroke-dasharray="30 30" fill="none" d="M 1055 999 740 997" style="opacity: 1;"></path><path  fill="black" stroke="black" transform="translate(1055,999) scale(1,1) rotate(-179.65794372558594)"></path><path  fill="#000000" stroke="#000000" id="v-7022" d="M 20 0 L 0 10 L 20 20 z" transform="translate(720.059697505534,987.000168212531) scale(1,1) rotate(0.342071533203125)" style="opacity: 1;"></path><path  id="v-7021" fill="none" d="M 1055 999 740 997"></path><title ></title><g ><g  id="v-7007" label-idx="0" cursor="move" transform="translate(897.5, 998)" style="opacity: 1;"><rect id="v-7009" fill="#ffffff" rx="3" ry="3" stroke="#ffffff" stroke-width="20px" pointer-events="none" width="134.52099609375" height="61.14315414428711" transform="matrix(1,0,0,1,-67.3,-30.6)"></rect><text id="v-7008" font-size="24px" y="0.8em" xml:space="preserve" text-anchor="middle" pointer-events="none" fill="#000000" font-family="Open Sans" font-weight="normal" transform="matrix(1,0,0,1,0,-24.5)"><tspan id="v-7010"  dy="0em" x="0">realiza</tspan><tspan id="v-7011"  dy="1.2em" x="0">persistência</tspan></text></g><g  id="v-7012" label-idx="1" cursor="move" transform="translate(897.5, 1041.2)" style="opacity: 1;"><rect id="v-7014" fill="#ffffff" rx="3" ry="3" pointer-events="none" width="0" height="0" transform="matrix(1,0,0,1,0,0)"></rect><text id="v-7013" font-size="19px" y="0.8em" display="none" xml:space="preserve" text-anchor="middle" pointer-events="none" fill="#000000" font-family="Open Sans" font-weight="normal" transform="matrix(1,0,0,1,0,0)"><tspan id="v-7015"  dy="0em" x="0" style="fill-opacity: 0; stroke-opacity: 0;">-</tspan></text></g><g  id="v-7016" label-idx="2" cursor="move" transform="translate(897.5, 1065.2)" style="opacity: 1;"><rect id="v-7018" fill="#ffffff" rx="3" ry="3" pointer-events="none"  display="none" width="0" height="0" transform="matrix(1,0,0,1,0,0)"></rect><text id="v-7017" font-size="19px" y="0.8em" display="none" xml:space="preserve" text-anchor="middle" pointer-events="none" fill="#000000" font-family="Open Sans" font-weight="normal"  transform="matrix(1,0,0,1,0,0)"><tspan id="v-7019"  dy="0em" x="0" style="fill-opacity: 0; stroke-opacity: 0;">-</tspan></text></g></g><g  display="none"></g><g  id="v-7024" display="none"><g  id="v-7004"><path  end="source" d="M 26 0 L 0 13 L 26 26 z"></path></g><g  id="v-7005"><path  end="target" d="M 26 0 L 0 13 L 26 26 z"></path></g></g><g  id="v-7023" display="none"><g  id="v-7003" transform="translate(1015.0007934570312, 998.74609375) "><g  event="remove"><circle r="11"></circle><path transform="scale(.8) translate(-16, -16)" d="M24.778,21.419 19.276,15.917 24.777,10.415 21.949,7.585 16.447,13.087 10.945,7.585 8.117,10.415 13.618,15.917 8.116,21.419 10.946,24.248 16.447,18.746 21.948,24.248z"></path><title>Remove link.</title></g><g  event="link:options"><circle r="11" transform="translate(25)"></circle><path fill="white" transform="scale(.55) translate(29, -16)" d="M31.229,17.736c0.064-0.571,0.104-1.148,0.104-1.736s-0.04-1.166-0.104-1.737l-4.377-1.557c-0.218-0.716-0.504-1.401-0.851-2.05l1.993-4.192c-0.725-0.91-1.549-1.734-2.458-2.459l-4.193,1.994c-0.647-0.347-1.334-0.632-2.049-0.849l-1.558-4.378C17.165,0.708,16.588,0.667,16,0.667s-1.166,0.041-1.737,0.105L12.707,5.15c-0.716,0.217-1.401,0.502-2.05,0.849L6.464,4.005C5.554,4.73,4.73,5.554,4.005,6.464l1.994,4.192c-0.347,0.648-0.632,1.334-0.849,2.05l-4.378,1.557C0.708,14.834,0.667,15.412,0.667,16s0.041,1.165,0.105,1.736l4.378,1.558c0.217,0.715,0.502,1.401,0.849,2.049l-1.994,4.193c0.725,0.909,1.549,1.733,2.459,2.458l4.192-1.993c0.648,0.347,1.334,0.633,2.05,0.851l1.557,4.377c0.571,0.064,1.148,0.104,1.737,0.104c0.588,0,1.165-0.04,1.736-0.104l1.558-4.377c0.715-0.218,1.399-0.504,2.049-0.851l4.193,1.993c0.909-0.725,1.733-1.549,2.458-2.458l-1.993-4.193c0.347-0.647,0.633-1.334,0.851-2.049L31.229,17.736zM16,20.871c-2.69,0-4.872-2.182-4.872-4.871c0-2.69,2.182-4.872,4.872-4.872c2.689,0,4.871,2.182,4.871,4.872C20.871,18.689,18.689,20.871,16,20.871z"></path><title>Link options.</title></g></g></g></g><g id="j_402"   ><path  stroke="#000000" id="v-7042" stroke-width="2" stroke-dasharray="30 30" fill="none" d="M 795 717 1038 859" style="opacity: 1;"></path><path  fill="black" stroke="black" transform="translate(795,717) scale(1,1) rotate(30.311218261718793)"></path><path  fill="#000000" stroke="#000000" id="v-7044" d="M 20 0 L 0 10 L 20 20 z" transform="translate(1049.9530662954019,877.6329980944766) scale(1,1) rotate(-149.68878173828125)" style="opacity: 1;"></path><path  id="v-7043" fill="none" d="M 795 717 1038 859"></path><title ></title><g ><g  id="v-7030" label-idx="0" cursor="move" transform="translate(916.5, 788)" style="opacity: 1;"><rect id="v-7032" fill="#ffffff" rx="3" ry="3" stroke="#ffffff" stroke-width="20px" pointer-events="none" width="66.02867889404297" height="32.34315490722656" transform="matrix(1,0,0,1,-33,-16.2)"></rect><text id="v-7031" font-size="24px" y="0.8em" xml:space="preserve" text-anchor="middle" pointer-events="none" fill="#000000" font-family="Open Sans" font-weight="normal" transform="matrix(1,0,0,1,0,-10.1)"><tspan id="v-7033"  dy="0em" x="0">utiliza</tspan></text></g><g  id="v-7034" label-idx="1" cursor="move" transform="translate(916.5, 819.2)" style="opacity: 1;"><rect id="v-7036" fill="#ffffff" rx="3" ry="3" pointer-events="none" width="0" height="0" transform="matrix(1,0,0,1,0,0)"></rect><text id="v-7035" font-size="19px" y="0.8em" display="none" xml:space="preserve" text-anchor="middle" pointer-events="none" fill="#000000" font-family="Open Sans" font-weight="normal" transform="matrix(1,0,0,1,0,0)"><tspan id="v-7037"  dy="0em" x="0" style="fill-opacity: 0; stroke-opacity: 0;">-</tspan></text></g><g  id="v-7038" label-idx="2" cursor="move" transform="translate(916.5, 843.2)" style="opacity: 1;"><rect id="v-7040" fill="#ffffff" rx="3" ry="3" pointer-events="none"  display="none" width="0" height="0" transform="matrix(1,0,0,1,0,0)"></rect><text id="v-7039" font-size="19px" y="0.8em" display="none" xml:space="preserve" text-anchor="middle" pointer-events="none" fill="#000000" font-family="Open Sans" font-weight="normal"  transform="matrix(1,0,0,1,0,0)"><tspan id="v-7041"  dy="0em" x="0" style="fill-opacity: 0; stroke-opacity: 0;">-</tspan></text></g></g><g  display="none"></g><g  id="v-7046" display="none"><g  id="v-7027"><path  end="source" d="M 26 0 L 0 13 L 26 26 z"></path></g><g  id="v-7028"><path  end="target" d="M 26 0 L 0 13 L 26 26 z"></path></g></g><g  id="v-7045" display="none"><g  id="v-7026" transform="translate(829.5357055664062, 737.1813354492188) "><g  event="remove"><circle r="11"></circle><path transform="scale(.8) translate(-16, -16)" d="M24.778,21.419 19.276,15.917 24.777,10.415 21.949,7.585 16.447,13.087 10.945,7.585 8.117,10.415 13.618,15.917 8.116,21.419 10.946,24.248 16.447,18.746 21.948,24.248z"></path><title>Remove link.</title></g><g  event="link:options"><circle r="11" transform="translate(25)"></circle><path fill="white" transform="scale(.55) translate(29, -16)" d="M31.229,17.736c0.064-0.571,0.104-1.148,0.104-1.736s-0.04-1.166-0.104-1.737l-4.377-1.557c-0.218-0.716-0.504-1.401-0.851-2.05l1.993-4.192c-0.725-0.91-1.549-1.734-2.458-2.459l-4.193,1.994c-0.647-0.347-1.334-0.632-2.049-0.849l-1.558-4.378C17.165,0.708,16.588,0.667,16,0.667s-1.166,0.041-1.737,0.105L12.707,5.15c-0.716,0.217-1.401,0.502-2.05,0.849L6.464,4.005C5.554,4.73,4.73,5.554,4.005,6.464l1.994,4.192c-0.347,0.648-0.632,1.334-0.849,2.05l-4.378,1.557C0.708,14.834,0.667,15.412,0.667,16s0.041,1.165,0.105,1.736l4.378,1.558c0.217,0.715,0.502,1.401,0.849,2.049l-1.994,4.193c0.725,0.909,1.549,1.733,2.459,2.458l4.192-1.993c0.648,0.347,1.334,0.633,2.05,0.851l1.557,4.377c0.571,0.064,1.148,0.104,1.737,0.104c0.588,0,1.165-0.04,1.736-0.104l1.558-4.377c0.715-0.218,1.399-0.504,2.049-0.851l4.193,1.993c0.909-0.725,1.733-1.549,2.458-2.458l-1.993-4.193c0.347-0.647,0.633-1.334,0.851-2.049L31.229,17.736zM16,20.871c-2.69,0-4.872-2.182-4.872-4.871c0-2.69,2.182-4.872,4.872-4.872c2.689,0,4.871,2.182,4.871,4.872C20.871,18.689,18.689,20.871,16,20.871z"></path><title>Link options.</title></g></g></g></g><g id="j_403"   ><path  stroke="#000000" id="v-7065" stroke-width="2" stroke-dasharray="30 30" fill="none" d="M 700 168 585 170 S 575 170 575 180 L 572 415" style="opacity: 1;"></path><path  fill="black" stroke="black" transform="translate(700,168) scale(1,1) rotate(-180.91665649414062)"></path><path  fill="#000000" stroke="#000000" id="v-7067" d="M 20 0 L 0 10 L 20 20 z" transform="translate(562.000660383171,434.8867995594933) scale(1,1) rotate(-89.35139465332031)" style="opacity: 1;"></path><path  id="v-7066" fill="none" d="M 700 168 585 170 S 575 170 575 180 L 572 415"></path><title ></title><g ><g  id="v-7053" label-idx="0" cursor="move" transform="translate(574.3353271484375, 232.06468200683594)" style="opacity: 1;"><rect id="v-7055" fill="#ffffff" rx="3" ry="3" stroke="#ffffff" stroke-width="20px" pointer-events="none" width="66.02867889404297" height="32.34315490722656" transform="matrix(1,0,0,1,-33,-16.2)"></rect><text id="v-7054" font-size="24px" y="0.8em" xml:space="preserve" text-anchor="middle" pointer-events="none" fill="#000000" font-family="Open Sans" font-weight="normal" transform="matrix(1,0,0,1,0,-10.1)"><tspan id="v-7056"  dy="0em" x="0">utiliza</tspan></text></g><g  id="v-7057" label-idx="1" cursor="move" transform="translate(574.3353271484375, 263.2646820068359)" style="opacity: 1;"><rect id="v-7059" fill="#ffffff" rx="3" ry="3" pointer-events="none" width="69.2029800415039" height="26.27881145477295" transform="matrix(1,0,0,1,-34.6,-13.1)"></rect><text id="v-7058" font-size="19px" y="0.8em" xml:space="preserve" text-anchor="middle" pointer-events="none" fill="#000000" font-family="Open Sans" font-weight="normal" transform="matrix(1,0,0,1,0,-8.1)"><tspan id="v-7060"  dy="0em" x="0">[HTTPS]</tspan></text></g><g  id="v-7061" label-idx="2" cursor="move" transform="translate(574.3353271484375, 287.2646820068359)" style="opacity: 1;"><rect id="v-7063" fill="#ffffff" rx="3" ry="3" pointer-events="none"  display="none" width="0" height="0" transform="matrix(1,0,0,1,0,0)"></rect><text id="v-7062" font-size="19px" y="0.8em" display="none" xml:space="preserve" text-anchor="middle" pointer-events="none" fill="#000000" font-family="Open Sans" font-weight="normal"  transform="matrix(1,0,0,1,0,0)"><tspan id="v-7064"  dy="0em" x="0" style="fill-opacity: 0; stroke-opacity: 0;">-</tspan></text></g></g><g  display="none"><g  transform="translate(575, 170)" id="v-7049"><circle  idx="0" r="10"></circle><path  idx="0" d="M16,5.333c-7.732,0-14,4.701-14,10.5c0,1.982,0.741,3.833,2.016,5.414L2,25.667l5.613-1.441c2.339,1.317,5.237,2.107,8.387,2.107c7.732,0,14-4.701,14-10.5C30,10.034,23.732,5.333,16,5.333z" transform="translate(5, -33)"></path><path  idx="0" transform="scale(.8) translate(9.5, -37)" d="M24.778,21.419 19.276,15.917 24.777,10.415 21.949,7.585 16.447,13.087 10.945,7.585 8.117,10.415 13.618,15.917 8.116,21.419 10.946,24.248 16.447,18.746 21.948,24.248z"><title>Remove vertex.</title></path></g></g><g  id="v-7069" display="none"><g  id="v-7050"><path  end="source" d="M 26 0 L 0 13 L 26 26 z"></path></g><g  id="v-7051"><path  end="target" d="M 26 0 L 0 13 L 26 26 z"></path></g></g><g  id="v-7068" display="none"><g  id="v-7048" transform="translate(660.0060424804688, 168.695556640625) "><g  event="remove"><circle r="11"></circle><path transform="scale(.8) translate(-16, -16)" d="M24.778,21.419 19.276,15.917 24.777,10.415 21.949,7.585 16.447,13.087 10.945,7.585 8.117,10.415 13.618,15.917 8.116,21.419 10.946,24.248 16.447,18.746 21.948,24.248z"></path><title>Remove link.</title></g><g  event="link:options"><circle r="11" transform="translate(25)"></circle><path fill="white" transform="scale(.55) translate(29, -16)" d="M31.229,17.736c0.064-0.571,0.104-1.148,0.104-1.736s-0.04-1.166-0.104-1.737l-4.377-1.557c-0.218-0.716-0.504-1.401-0.851-2.05l1.993-4.192c-0.725-0.91-1.549-1.734-2.458-2.459l-4.193,1.994c-0.647-0.347-1.334-0.632-2.049-0.849l-1.558-4.378C17.165,0.708,16.588,0.667,16,0.667s-1.166,0.041-1.737,0.105L12.707,5.15c-0.716,0.217-1.401,0.502-2.05,0.849L6.464,4.005C5.554,4.73,4.73,5.554,4.005,6.464l1.994,4.192c-0.347,0.648-0.632,1.334-0.849,2.05l-4.378,1.557C0.708,14.834,0.667,15.412,0.667,16s0.041,1.165,0.105,1.736l4.378,1.558c0.217,0.715,0.502,1.401,0.849,2.049l-1.994,4.193c0.725,0.909,1.549,1.733,2.459,2.458l4.192-1.993c0.648,0.347,1.334,0.633,2.05,0.851l1.557,4.377c0.571,0.064,1.148,0.104,1.737,0.104c0.588,0,1.165-0.04,1.736-0.104l1.558-4.377c0.715-0.218,1.399-0.504,2.049-0.851l4.193,1.993c0.909-0.725,1.733-1.549,2.458-2.458l-1.993-4.193c0.347-0.647,0.633-1.334,0.851-2.049L31.229,17.736zM16,20.871c-2.69,0-4.872-2.182-4.872-4.871c0-2.69,2.182-4.872,4.872-4.872c2.689,0,4.871,2.182,4.871,4.872C20.871,18.689,18.689,20.871,16,20.871z"></path><title>Link options.</title></g></g></g></g><g id="j_404"   ><path  stroke="#000000" id="v-7088" stroke-width="2" stroke-dasharray="30 30" fill="none" d="M 1150 168 1265 170 S 1275 170 1275 180 L 1278 410" style="opacity: 1;"></path><path  fill="black" stroke="black" transform="translate(1150,168) scale(1,1) rotate(0.916656494140625)"></path><path  fill="#000000" stroke="#000000" id="v-7090" d="M 20 0 L 0 10 L 20 20 z" transform="translate(1268.000686738592,430.11538332812165) scale(1,1) rotate(-90.66107940673828)" style="opacity: 1;"></path><path  id="v-7089" fill="none" d="M 1150 168 1265 170 S 1275 170 1275 180 L 1278 410"></path><title ></title><g ><g  id="v-7076" label-idx="0" cursor="move" transform="translate(1275.646484375, 229.5648651123047)" style="opacity: 1;"><rect id="v-7078" fill="#ffffff" rx="3" ry="3" stroke="#ffffff" stroke-width="20px" pointer-events="none" width="66.02867889404297" height="32.34315490722656" transform="matrix(1,0,0,1,-33,-16.2)"></rect><text id="v-7077" font-size="24px" y="0.8em" xml:space="preserve" text-anchor="middle" pointer-events="none" fill="#000000" font-family="Open Sans" font-weight="normal" transform="matrix(1,0,0,1,0,-10.1)"><tspan id="v-7079"  dy="0em" x="0">utiliza</tspan></text></g><g  id="v-7080" label-idx="1" cursor="move" transform="translate(1275.646484375, 260.7648651123047)" style="opacity: 1;"><rect id="v-7082" fill="#ffffff" rx="3" ry="3" pointer-events="none" width="69.2029800415039" height="26.27881145477295" transform="matrix(1,0,0,1,-34.6,-13.1)"></rect><text id="v-7081" font-size="19px" y="0.8em" xml:space="preserve" text-anchor="middle" pointer-events="none" fill="#000000" font-family="Open Sans" font-weight="normal" transform="matrix(1,0,0,1,0,-8.1)"><tspan id="v-7083"  dy="0em" x="0">[HTTPS]</tspan></text></g><g  id="v-7084" label-idx="2" cursor="move" transform="translate(1275.646484375, 284.7648651123047)" style="opacity: 1;"><rect id="v-7086" fill="#ffffff" rx="3" ry="3" pointer-events="none"  display="none" width="0" height="0" transform="matrix(1,0,0,1,0,0)"></rect><text id="v-7085" font-size="19px" y="0.8em" display="none" xml:space="preserve" text-anchor="middle" pointer-events="none" fill="#000000" font-family="Open Sans" font-weight="normal"  transform="matrix(1,0,0,1,0,0)"><tspan id="v-7087"  dy="0em" x="0" style="fill-opacity: 0; stroke-opacity: 0;">-</tspan></text></g></g><g  display="none"><g  transform="translate(1275, 170)" id="v-7072"><circle  idx="0" r="10"></circle><path  idx="0" d="M16,5.333c-7.732,0-14,4.701-14,10.5c0,1.982,0.741,3.833,2.016,5.414L2,25.667l5.613-1.441c2.339,1.317,5.237,2.107,8.387,2.107c7.732,0,14-4.701,14-10.5C30,10.034,23.732,5.333,16,5.333z" transform="translate(5, -33)"></path><path  idx="0" transform="scale(.8) translate(9.5, -37)" d="M24.778,21.419 19.276,15.917 24.777,10.415 21.949,7.585 16.447,13.087 10.945,7.585 8.117,10.415 13.618,15.917 8.116,21.419 10.946,24.248 16.447,18.746 21.948,24.248z"><title>Remove vertex.</title></path></g></g><g  id="v-7092" display="none"><g  id="v-7073"><path  end="source" d="M 26 0 L 0 13 L 26 26 z"></path></g><g  id="v-7074"><path  end="target" d="M 26 0 L 0 13 L 26 26 z"></path></g></g><g  id="v-7091" display="none"><g  id="v-7071" transform="translate(1189.993896484375, 168.69554138183594) "><g  event="remove"><circle r="11"></circle><path transform="scale(.8) translate(-16, -16)" d="M24.778,21.419 19.276,15.917 24.777,10.415 21.949,7.585 16.447,13.087 10.945,7.585 8.117,10.415 13.618,15.917 8.116,21.419 10.946,24.248 16.447,18.746 21.948,24.248z"></path><title>Remove link.</title></g><g  event="link:options"><circle r="11" transform="translate(25)"></circle><path fill="white" transform="scale(.55) translate(29, -16)" d="M31.229,17.736c0.064-0.571,0.104-1.148,0.104-1.736s-0.04-1.166-0.104-1.737l-4.377-1.557c-0.218-0.716-0.504-1.401-0.851-2.05l1.993-4.192c-0.725-0.91-1.549-1.734-2.458-2.459l-4.193,1.994c-0.647-0.347-1.334-0.632-2.049-0.849l-1.558-4.378C17.165,0.708,16.588,0.667,16,0.667s-1.166,0.041-1.737,0.105L12.707,5.15c-0.716,0.217-1.401,0.502-2.05,0.849L6.464,4.005C5.554,4.73,4.73,5.554,4.005,6.464l1.994,4.192c-0.347,0.648-0.632,1.334-0.849,2.05l-4.378,1.557C0.708,14.834,0.667,15.412,0.667,16s0.041,1.165,0.105,1.736l4.378,1.558c0.217,0.715,0.502,1.401,0.849,2.049l-1.994,4.193c0.725,0.909,1.549,1.733,2.459,2.458l4.192-1.993c0.648,0.347,1.334,0.633,2.05,0.851l1.557,4.377c0.571,0.064,1.148,0.104,1.737,0.104c0.588,0,1.165-0.04,1.736-0.104l1.558-4.377c0.715-0.218,1.399-0.504,2.049-0.851l4.193,1.993c0.909-0.725,1.733-1.549,2.458-2.458l-1.993-4.193c0.347-0.647,0.633-1.334,0.851-2.049L31.229,17.736zM16,20.871c-2.69,0-4.872-2.182-4.872-4.871c0-2.69,2.182-4.872,4.872-4.872c2.689,0,4.871,2.182,4.871,4.872C20.871,18.689,18.689,20.871,16,20.871z"></path><title>Link options.</title></g></g></g></g></g><defs id="v-4"></defs></svg>