<svg xmlns="http://www.w3.org/2000/svg" xmlns:xlink="http://www.w3.org/1999/xlink" version="1.1" viewBox="0 0 2480 1748" style="background: #ffffff"><g id="v-3"  transform="matrix(1,0,0,1,0,0)"><g id="j_253"    transform="translate(20,1703)"><g id="v-4432"><text  id="v-4433" font-size="22px" y="0.8em" xml:space="preserve" font-weight="normal" text-anchor="start" fill="#aaaaaa" pointer-events="none" font-family="Open Sans" transform="matrix(1,0,0,1,0,0)"><tspan id="v-4434"  dy="0em" x="0">sexta-feira, 1 de abril de 2022 20:23 Horário Padrão de Brasília</tspan></text></g></g><g id="j_252"    transform="translate(20,1674)"><g id="v-4428"><text  id="v-4429" font-size="22px" y="0.8em" xml:space="preserve" font-weight="normal" text-anchor="start" fill="#aaaaaa" pointer-events="none" font-family="Open Sans" transform="matrix(1,0,0,1,0,0)"><tspan id="v-4430"  dy="0em" x="0">C4 - Level 3</tspan></text></g></g><g id="j_251"    transform="translate(20,1628)"><g id="v-4424"><text  id="v-4425" font-size="36px" y="0.8em" xml:space="preserve" font-weight="normal" text-anchor="start" fill="#000000" pointer-events="none" font-family="Open Sans" transform="matrix(1,0,0,1,0,0)"><tspan id="v-4426"  dy="0em" x="0">[Component] Controle Financeiro Pessoal - API-CFP</tspan></text></g></g><g id="j_234"    transform="translate(250,410)" style=""><g id="v-4104"><rect  id="v-4105" width="1275" height="833" rx="0" ry="0" fill="#ffffff" stroke="#444444" stroke-width="2" stroke-dasharray="20,20" pointer-events="none"></rect><text  id="v-4106" font-size="24px" y="794" xml:space="preserve" font-weight="normal" fill="#444444" x="10" text-anchor="start" pointer-events="visible" font-family="Open Sans" transform="matrix(1,0,0,1,15,0)"><tspan id="v-4108"  dy="0em" x="0">API-CFP</tspan></text><text  id="v-4107" font-size="19px" y="818" xml:space="preserve" font-weight="normal" fill="#444444" x="10" text-anchor="start" pointer-events="visible" font-family="Open Sans" transform="matrix(1,0,0,1,15,0)"><tspan id="v-4109"  dy="0em" x="0">[Container]</tspan></text></g></g><g id="j_235"    transform="translate(1055,430)" style=""><g  id="v-4113" style="opacity: 1;"><rect  id="v-4114" rx="20" ry="20" stroke="#78a8d8" stroke-width="2" pointer-events="visiblePainted" fill="#85bbf0" width="450" height="300"></rect><text  id="v-4115" font-size="34" y="0.8em" xml:space="preserve" font-weight="bold" text-anchor="middle" pointer-events="visible" font-family="Open Sans" fill="#000000" transform="matrix(1,0,0,1,225,45)"><tspan id="v-4120"  dy="0em" x="0">Auth Controller</tspan></text><text  id="v-4116" font-size="19" y="0.8em" xml:space="preserve" text-anchor="middle" font-family="Open Sans" fill="#000000" transform="matrix(1,0,0,1,225,87.5)"><tspan id="v-4121"  dy="0em" x="0">[Component: NodeJS+Express]</tspan></text><text  id="v-4117" font-size="24" y="0.8em" xml:space="preserve" text-anchor="middle" font-family="Open Sans" fill="#000000" transform="matrix(1,0,0,1,225,135)"><tspan id="v-4122"  dy="0em" x="0">Provê funcionalidades de segurança</tspan><tspan id="v-4123"  dy="1.2em" x="0">relacionadas ao cadastro,</tspan><tspan id="v-4124"  dy="1.2em" x="0">autenticação, troca de senha,</tspan><tspan id="v-4125"  dy="1.2em" x="0">esqueci minha senha, etc.</tspan></text><text  id="v-4118" font-weight="bold" text-anchor="middle" font-family="Open Sans" fill="#000000" font-size="24" transform="matrix(1,0,0,1,225,270)" display="none"></text><image  id="v-4119"></image></g></g><g id="j_236"    transform="translate(1055,850)" style=""><g  id="v-4127" style="opacity: 1;"><rect  id="v-4128" rx="20" ry="20" stroke="#78a8d8" stroke-width="2" pointer-events="visiblePainted" fill="#85bbf0" width="450" height="300"></rect><text  id="v-4129" font-size="34" y="0.8em" xml:space="preserve" font-weight="bold" text-anchor="middle" pointer-events="visible" font-family="Open Sans" fill="#000000" transform="matrix(1,0,0,1,225,116.9)"><tspan id="v-4134"  dy="0em" x="0">Security Layer</tspan></text><text  id="v-4130" font-size="19" y="0.8em" xml:space="preserve" text-anchor="middle" font-family="Open Sans" fill="#000000" transform="matrix(1,0,0,1,225,159.4)"><tspan id="v-4135"  dy="0em" x="0">[Component: NodeJS]</tspan></text><text  id="v-4131" font-size="24" y="0.8em" display="none" xml:space="preserve" text-anchor="middle" font-family="Open Sans" fill="#000000" transform="matrix(1,0,0,1,225,183.1)"><tspan id="v-4136"  dy="0em" x="0" style="fill-opacity: 0; stroke-opacity: 0;">-</tspan></text><text  id="v-4132" font-weight="bold" text-anchor="middle" font-family="Open Sans" fill="#000000" font-size="24" transform="matrix(1,0,0,1,225,270)" display="none"></text><image  id="v-4133"></image></g></g><g id="j_237"    transform="translate(345,435)" style=""><g  id="v-4140" style="opacity: 1;"><rect  id="v-4141" rx="20" ry="20" stroke="#78a8d8" stroke-width="2" pointer-events="visiblePainted" fill="#85bbf0" width="450" height="300"></rect><text  id="v-4142" font-size="34" y="0.8em" xml:space="preserve" font-weight="bold" text-anchor="middle" pointer-events="visible" font-family="Open Sans" fill="#000000" transform="matrix(1,0,0,1,225,60)"><tspan id="v-4147"  dy="0em" x="0">API Controller</tspan></text><text  id="v-4143" font-size="19" y="0.8em" xml:space="preserve" text-anchor="middle" font-family="Open Sans" fill="#000000" transform="matrix(1,0,0,1,225,102.5)"><tspan id="v-4148"  dy="0em" x="0">[Component: NodeJS+Express]</tspan></text><text  id="v-4144" font-size="24" y="0.8em" xml:space="preserve" text-anchor="middle" font-family="Open Sans" fill="#000000" transform="matrix(1,0,0,1,225,150)"><tspan id="v-4149"  dy="0em" x="0">Atende as principais operações</tspan><tspan id="v-4150"  dy="1.2em" x="0">financeiras que afetam os saldos das</tspan><tspan id="v-4151"  dy="1.2em" x="0">contas</tspan></text><text  id="v-4145" font-weight="bold" text-anchor="middle" font-family="Open Sans" fill="#000000" font-size="24" transform="matrix(1,0,0,1,225,270)" display="none"></text><image  id="v-4146"></image></g></g><g id="j_238"    transform="translate(1860,630)" style="" ><g  id="v-4155" style="opacity: 1;"><rect  id="v-4156" rx="20" ry="20" stroke="#c7c7c7" stroke-width="2" pointer-events="visiblePainted" fill="#dddddd" width="450" height="300"></rect><text  id="v-4157" font-size="34" y="0.8em" xml:space="preserve" font-weight="bold" text-anchor="middle" pointer-events="visible" font-family="Open Sans" fill="#000000" transform="matrix(1,0,0,1,225,90)"><tspan id="v-4162"  dy="0em" x="0">Google</tspan></text><text  id="v-4158" font-size="19" y="0.8em" xml:space="preserve" text-anchor="middle" font-family="Open Sans" fill="#000000" transform="matrix(1,0,0,1,225,132.5)"><tspan id="v-4163"  dy="0em" x="0">[Software System]</tspan></text><text  id="v-4159" font-size="24" y="0.8em" xml:space="preserve" text-anchor="middle" font-family="Open Sans" fill="#000000" transform="matrix(1,0,0,1,225,180)"><tspan id="v-4164"  dy="0em" x="0">Serviço de autenticação do Google</tspan></text><text  id="v-4160" font-weight="bold" text-anchor="middle" font-family="Open Sans" fill="#000000" font-size="24" transform="matrix(1,0,0,1,225,270)" y="0.8em" display="none" xml:space="preserve"><tspan id="v-4165"  dy="0em" x="0" style="fill-opacity: 0; stroke-opacity: 0;">-</tspan></text><image  id="v-4161"></image></g></g><g id="j_239"    transform="translate(270,845)" style=""><g  id="v-4169" style="opacity: 1;"><rect  id="v-4170" rx="20" ry="20" stroke="#78a8d8" stroke-width="2" pointer-events="visiblePainted" fill="#85bbf0" width="450" height="300"></rect><text  id="v-4171" font-size="34" y="0.8em" xml:space="preserve" font-weight="bold" text-anchor="middle" pointer-events="visible" font-family="Open Sans" fill="#000000" transform="matrix(1,0,0,1,225,75)"><tspan id="v-4176"  dy="0em" x="0">Database Facade</tspan></text><text  id="v-4172" font-size="19" y="0.8em" xml:space="preserve" text-anchor="middle" font-family="Open Sans" fill="#000000" transform="matrix(1,0,0,1,225,117.5)"><tspan id="v-4177"  dy="0em" x="0">[Component: ORM Sequelize]</tspan></text><text  id="v-4173" font-size="24" y="0.8em" xml:space="preserve" text-anchor="middle" font-family="Open Sans" fill="#000000" transform="matrix(1,0,0,1,225,165)"><tspan id="v-4178"  dy="0em" x="0">Funcionalidades de acesso aos dados</tspan><tspan id="v-4179"  dy="1.2em" x="0">da aplicação</tspan></text><text  id="v-4174" font-weight="bold" text-anchor="middle" font-family="Open Sans" fill="#000000" font-size="24" transform="matrix(1,0,0,1,225,270)" display="none"></text><image  id="v-4175"></image></g></g><g id="j_240"    transform="translate(1855,190)" style="" ><g  id="v-4183" style="opacity: 1;"><rect  id="v-4184" rx="20" ry="20" stroke="#c7c7c7" stroke-width="2" pointer-events="visiblePainted" fill="#dddddd" width="450" height="300"></rect><text  id="v-4185" font-size="34" y="0.8em" xml:space="preserve" font-weight="bold" text-anchor="middle" pointer-events="visible" font-family="Open Sans" fill="#000000" transform="matrix(1,0,0,1,225,90)"><tspan id="v-4190"  dy="0em" x="0">Sistema de email</tspan></text><text  id="v-4186" font-size="19" y="0.8em" xml:space="preserve" text-anchor="middle" font-family="Open Sans" fill="#000000" transform="matrix(1,0,0,1,225,132.5)"><tspan id="v-4191"  dy="0em" x="0">[Software System]</tspan></text><text  id="v-4187" font-size="24" y="0.8em" xml:space="preserve" text-anchor="middle" font-family="Open Sans" fill="#000000" transform="matrix(1,0,0,1,225,180)"><tspan id="v-4192"  dy="0em" x="0">Serviço de correio eletrônico</tspan></text><text  id="v-4188" font-weight="bold" text-anchor="middle" font-family="Open Sans" fill="#000000" font-size="24" transform="matrix(1,0,0,1,225,270)" y="0.8em" display="none" xml:space="preserve"><tspan id="v-4193"  dy="0em" x="0" style="fill-opacity: 0; stroke-opacity: 0;">-</tspan></text><image  id="v-4189"></image></g></g><g id="j_241"    transform="translate(700,15)" style="" ><g  id="v-4197" style="opacity: 1;"><rect  id="v-4198" rx="10" ry="10" stroke="#3c7fc0" stroke-width="2" pointer-events="visiblePainted" fill="#3c7fc0" width="450" height="300"></rect><rect  id="v-4199" rx="10" ry="10" stroke="#3c7fc0" stroke-width="0" pointer-events="visiblePainted" fill="#438dd5" width="430" height="250" x="10" y="40"></rect><ellipse  id="v-4206" fill="#438dd5" cx="20" cy="20" rx="10" ry="10"></ellipse><ellipse  id="v-4207" fill="#438dd5" cx="50" cy="20" rx="10" ry="10"></ellipse><ellipse  id="v-4208" fill="#438dd5" cx="80" cy="20" rx="10" ry="10"></ellipse><rect  id="v-4200" rx="10" ry="10" stroke="#444444" stroke-width="0" pointer-events="visiblePainted" fill="#438dd5" width="340" height="20" x="100" y="10"></rect><text  id="v-4201" font-size="34" y="0.8em" xml:space="preserve" font-weight="bold" text-anchor="middle" pointer-events="visible" font-family="Open Sans" fill="#ffffff" transform="matrix(1,0,0,1,225,95)"><tspan id="v-4209"  dy="0em" x="0">SPA-CFP</tspan></text><text  id="v-4202" font-size="19" y="0.8em" xml:space="preserve" text-anchor="middle" font-family="Open Sans" fill="#ffffff" transform="matrix(1,0,0,1,225,137.5)"><tspan id="v-4210"  dy="0em" x="0">[Container: Angular]</tspan></text><text  id="v-4203" font-size="24" y="0.8em" xml:space="preserve" text-anchor="middle" font-family="Open Sans" fill="#ffffff" transform="matrix(1,0,0,1,225,185)"><tspan id="v-4211"  dy="0em" x="0">Interface gráfica do sistema Controle</tspan><tspan id="v-4212"  dy="1.2em" x="0">Financeiro Pessoal.</tspan></text><text  id="v-4204" font-weight="bold" text-anchor="middle" font-family="Open Sans" fill="#ffffff" font-size="24" transform="matrix(1,0,0,1,225,270)" y="0.8em" display="none" xml:space="preserve"><tspan id="v-4213"  dy="0em" x="0" style="fill-opacity: 0; stroke-opacity: 0;">-</tspan></text><image  id="v-4205"></image></g></g><g id="j_242"    transform="translate(265,1300)" style="" ><g  id="v-4219" style="opacity: 1;"><ellipse  id="bottom" cx="225" cy="270" rx="225" ry="30" stroke="#3c7fc0" stroke-width="2" pointer-events="visiblePainted" fill="#438dd5"></ellipse><rect  id="face" x="0" y="30" width="450" height="240" stroke="#3c7fc0" stroke-width="2" pointer-events="visiblePainted" fill="#438dd5"></rect><clipPath id="cylinderStructurizrClipPath3" clipPathUnits="userSpaceOnUse"><use xmlns:xlink="http://www.w3.org/1999/xlink" xlink:href="#bottom"></use><use xmlns:xlink="http://www.w3.org/1999/xlink" xlink:href="#face"></use></clipPath><rect  x="0" y="30" width="450" height="270" clip-path="url(#cylinderStructurizrClipPath3)" id="v-4220" stroke="none" stroke-width="2" pointer-events="visiblePainted" fill="#438dd5"></rect><ellipse cx="225" cy="30" rx="225" ry="30" id="lid"  stroke="#3c7fc0" stroke-width="2" pointer-events="visiblePainted" fill="#438dd5"></ellipse><text  id="v-4221" font-size="34px" y="0.8em" xml:space="preserve" font-weight="bold" text-anchor="middle" pointer-events="visible" font-family="Open Sans" fill="#ffffff" transform="matrix(1,0,0,1,225,90)"><tspan id="v-4226"  dy="0em" x="0">Base de dados CFP</tspan></text><text  id="v-4222" font-size="19px" y="0.8em" xml:space="preserve" text-anchor="middle" font-family="Open Sans" fill="#ffffff" transform="matrix(1,0,0,1,225,132.5)"><tspan id="v-4227"  dy="0em" x="0">[Container: MariaDB]</tspan></text><text  id="v-4223" font-size="24px" y="0.8em" xml:space="preserve" text-anchor="middle" font-family="Open Sans" fill="#ffffff" transform="matrix(1,0,0,1,225,180)"><tspan id="v-4228"  dy="0em" x="0">Armazena os dados registrados pelo</tspan><tspan id="v-4229"  dy="1.2em" x="0">usuário em memória persistente.</tspan></text><text  id="v-4224" font-weight="bold" text-anchor="middle" font-family="Open Sans" fill="#ffffff" font-size="24" transform="matrix(1,0,0,1,225,273)" y="0.8em" display="none" xml:space="preserve"><tspan id="v-4230"  dy="0em" x="0" style="fill-opacity: 0; stroke-opacity: 0;">-</tspan></text><image  id="v-4225"></image></g></g><g id="j_243"   ><path  stroke="#000000" id="v-4252" stroke-width="2" stroke-dasharray="30 30" fill="none" d="M 1505 513 1836 414" style="opacity: 1;"></path><path  fill="black" stroke="black" transform="translate(1505,513) scale(1,1) rotate(-16.699243545532227)"></path><path  fill="#000000" stroke="#000000" id="v-4254" d="M 20 0 L 0 10 L 20 20 z" transform="translate(1857.8734952265952,417.5782570237236) scale(1,1) rotate(-196.69924926757812)" style="opacity: 1;"></path><path  id="v-4253" fill="none" d="M 1505 513 1836 414"></path><title ></title><g ><g  id="v-4238" label-idx="0" cursor="move" transform="translate(1670.5, 463.5)" style="opacity: 1;"><rect id="v-4240" fill="#ffffff" rx="3" ry="3" stroke="#ffffff" stroke-width="20px" pointer-events="none" width="189.01426696777344" height="89.55269622802734" transform="matrix(1,0,0,1,-94.5,-44.8)"></rect><text id="v-4239" font-size="24px" y="0.8em" xml:space="preserve" text-anchor="middle" pointer-events="none" fill="#000000" font-family="Open Sans" font-weight="normal" transform="matrix(1,0,0,1,0,-38.6)"><tspan id="v-4241"  dy="0em" x="0">envia e-mail com</tspan><tspan id="v-4242"  dy="1.2em" x="0">autenticação</tspan><tspan id="v-4243"  dy="1.2em" x="0">temporária</tspan></text></g><g  id="v-4244" label-idx="1" cursor="move" transform="translate(1670.5, 521.1)" style="opacity: 1;"><rect id="v-4246" fill="#ffffff" rx="3" ry="3" pointer-events="none" width="61.82023620605469" height="26.31398296356201" transform="matrix(1,0,0,1,-30.9,-13.2)"></rect><text id="v-4245" font-size="19px" y="0.8em" xml:space="preserve" text-anchor="middle" pointer-events="none" fill="#000000" font-family="Open Sans" font-weight="normal" transform="matrix(1,0,0,1,0,-7.7)"><tspan id="v-4247"  dy="0em" x="0">[SMTP]</tspan></text></g><g  id="v-4248" label-idx="2" cursor="move" transform="translate(1670.5, 545.1)" style="opacity: 1;"><rect id="v-4250" fill="#ffffff" rx="3" ry="3" pointer-events="none"  display="none" width="0" height="0" transform="matrix(1,0,0,1,0,0)"></rect><text id="v-4249" font-size="19px" y="0.8em" display="none" xml:space="preserve" text-anchor="middle" pointer-events="none" fill="#000000" font-family="Open Sans" font-weight="normal"  transform="matrix(1,0,0,1,0,0)"><tspan id="v-4251"  dy="0em" x="0" style="fill-opacity: 0; stroke-opacity: 0;">-</tspan></text></g></g><g  display="none"></g><g  id="v-4256" display="none"><g  id="v-4235"><path  end="source" d="M 26 0 L 0 13 L 26 26 z"></path></g><g  id="v-4236"><path  end="target" d="M 26 0 L 0 13 L 26 26 z"></path></g></g><g  id="v-4255" display="none"><g  id="v-4234" transform="translate(1543.322509765625, 501.5379638671875) "><g  event="remove"><circle r="11"></circle><path transform="scale(.8) translate(-16, -16)" d="M24.778,21.419 19.276,15.917 24.777,10.415 21.949,7.585 16.447,13.087 10.945,7.585 8.117,10.415 13.618,15.917 8.116,21.419 10.946,24.248 16.447,18.746 21.948,24.248z"></path><title>Remove link.</title></g><g  event="link:options"><circle r="11" transform="translate(25)"></circle><path fill="white" transform="scale(.55) translate(29, -16)" d="M31.229,17.736c0.064-0.571,0.104-1.148,0.104-1.736s-0.04-1.166-0.104-1.737l-4.377-1.557c-0.218-0.716-0.504-1.401-0.851-2.05l1.993-4.192c-0.725-0.91-1.549-1.734-2.458-2.459l-4.193,1.994c-0.647-0.347-1.334-0.632-2.049-0.849l-1.558-4.378C17.165,0.708,16.588,0.667,16,0.667s-1.166,0.041-1.737,0.105L12.707,5.15c-0.716,0.217-1.401,0.502-2.05,0.849L6.464,4.005C5.554,4.73,4.73,5.554,4.005,6.464l1.994,4.192c-0.347,0.648-0.632,1.334-0.849,2.05l-4.378,1.557C0.708,14.834,0.667,15.412,0.667,16s0.041,1.165,0.105,1.736l4.378,1.558c0.217,0.715,0.502,1.401,0.849,2.049l-1.994,4.193c0.725,0.909,1.549,1.733,2.459,2.458l4.192-1.993c0.648,0.347,1.334,0.633,2.05,0.851l1.557,4.377c0.571,0.064,1.148,0.104,1.737,0.104c0.588,0,1.165-0.04,1.736-0.104l1.558-4.377c0.715-0.218,1.399-0.504,2.049-0.851l4.193,1.993c0.909-0.725,1.733-1.549,2.458-2.458l-1.993-4.193c0.347-0.647,0.633-1.334,0.851-2.049L31.229,17.736zM16,20.871c-2.69,0-4.872-2.182-4.872-4.871c0-2.69,2.182-4.872,4.872-4.872c2.689,0,4.871,2.182,4.871,4.872C20.871,18.689,18.689,20.871,16,20.871z"></path><title>Link options.</title></g></g></g></g><g id="j_244"   ><path  stroke="#000000" id="v-4276" stroke-width="2" stroke-dasharray="30 30" fill="none" d="M 493 1145 491 1280" style="opacity: 1;"></path><path  fill="black" stroke="black" transform="translate(493,1145) scale(1,1) rotate(-269.2607421875)"></path><path  fill="#000000" stroke="#000000" id="v-4278" d="M 20 0 L 0 10 L 20 20 z" transform="translate(481.0008394304429,1299.8710008847756) scale(1,1) rotate(-89.2607421875)" style="opacity: 1;"></path><path  id="v-4277" fill="none" d="M 493 1145 491 1280"></path><title ></title><g ><g  id="v-4264" label-idx="0" cursor="move" transform="translate(492, 1212.5)" style="opacity: 1;"><rect id="v-4266" fill="#ffffff" rx="3" ry="3" stroke="#ffffff" stroke-width="20px" pointer-events="none" width="163.6988067626953" height="31.952691078186035" transform="matrix(1,0,0,1,-81.8,-16)"></rect><text id="v-4265" font-size="24px" y="0.8em" xml:space="preserve" text-anchor="middle" pointer-events="none" fill="#000000" font-family="Open Sans" font-weight="normal" transform="matrix(1,0,0,1,0,-9.8)"><tspan id="v-4267"  dy="0em" x="0">persiste dados</tspan></text></g><g  id="v-4268" label-idx="1" cursor="move" transform="translate(492, 1243.7)" style="opacity: 1;"><rect id="v-4270" fill="#ffffff" rx="3" ry="3" pointer-events="none" width="145.1233673095703" height="26.31398296356201" transform="matrix(1,0,0,1,-72.6,-13.2)"></rect><text id="v-4269" font-size="19px" y="0.8em" xml:space="preserve" text-anchor="middle" pointer-events="none" fill="#000000" font-family="Open Sans" font-weight="normal" transform="matrix(1,0,0,1,0,-7.7)"><tspan id="v-4271"  dy="0em" x="0">[ORM Sequelize]</tspan></text></g><g  id="v-4272" label-idx="2" cursor="move" transform="translate(492, 1267.7)" style="opacity: 1;"><rect id="v-4274" fill="#ffffff" rx="3" ry="3" pointer-events="none"  display="none" width="0" height="0" transform="matrix(1,0,0,1,0,0)"></rect><text id="v-4273" font-size="19px" y="0.8em" display="none" xml:space="preserve" text-anchor="middle" pointer-events="none" fill="#000000" font-family="Open Sans" font-weight="normal"  transform="matrix(1,0,0,1,0,0)"><tspan id="v-4275"  dy="0em" x="0" style="fill-opacity: 0; stroke-opacity: 0;">-</tspan></text></g></g><g  display="none"></g><g  id="v-4280" display="none"><g  id="v-4261"><path  end="source" d="M 26 0 L 0 13 L 26 26 z"></path></g><g  id="v-4262"><path  end="target" d="M 26 0 L 0 13 L 26 26 z"></path></g></g><g  id="v-4279" display="none"><g  id="v-4260" transform="translate(492.407470703125, 1184.99560546875) "><g  event="remove"><circle r="11"></circle><path transform="scale(.8) translate(-16, -16)" d="M24.778,21.419 19.276,15.917 24.777,10.415 21.949,7.585 16.447,13.087 10.945,7.585 8.117,10.415 13.618,15.917 8.116,21.419 10.946,24.248 16.447,18.746 21.948,24.248z"></path><title>Remove link.</title></g><g  event="link:options"><circle r="11" transform="translate(25)"></circle><path fill="white" transform="scale(.55) translate(29, -16)" d="M31.229,17.736c0.064-0.571,0.104-1.148,0.104-1.736s-0.04-1.166-0.104-1.737l-4.377-1.557c-0.218-0.716-0.504-1.401-0.851-2.05l1.993-4.192c-0.725-0.91-1.549-1.734-2.458-2.459l-4.193,1.994c-0.647-0.347-1.334-0.632-2.049-0.849l-1.558-4.378C17.165,0.708,16.588,0.667,16,0.667s-1.166,0.041-1.737,0.105L12.707,5.15c-0.716,0.217-1.401,0.502-2.05,0.849L6.464,4.005C5.554,4.73,4.73,5.554,4.005,6.464l1.994,4.192c-0.347,0.648-0.632,1.334-0.849,2.05l-4.378,1.557C0.708,14.834,0.667,15.412,0.667,16s0.041,1.165,0.105,1.736l4.378,1.558c0.217,0.715,0.502,1.401,0.849,2.049l-1.994,4.193c0.725,0.909,1.549,1.733,2.459,2.458l4.192-1.993c0.648,0.347,1.334,0.633,2.05,0.851l1.557,4.377c0.571,0.064,1.148,0.104,1.737,0.104c0.588,0,1.165-0.04,1.736-0.104l1.558-4.377c0.715-0.218,1.399-0.504,2.049-0.851l4.193,1.993c0.909-0.725,1.733-1.549,2.458-2.458l-1.993-4.193c0.347-0.647,0.633-1.334,0.851-2.049L31.229,17.736zM16,20.871c-2.69,0-4.872-2.182-4.872-4.871c0-2.69,2.182-4.872,4.872-4.872c2.689,0,4.871,2.182,4.871,4.872C20.871,18.689,18.689,20.871,16,20.871z"></path><title>Link options.</title></g></g></g></g><g id="j_245"   ><path  stroke="#000000" id="v-4298" stroke-width="2" stroke-dasharray="30 30" fill="none" d="M 1280 730 1280 830" style="opacity: 1;"></path><path  fill="black" stroke="black" transform="translate(1280,730) scale(1,1) rotate(-270)"></path><path  fill="#000000" stroke="#000000" id="v-4300" d="M 20 0 L 0 10 L 20 20 z" transform="translate(1270,850) scale(1,1) rotate(-90)" style="opacity: 1;"></path><path  id="v-4299" fill="none" d="M 1280 730 1280 830"></path><title ></title><g ><g  id="v-4286" label-idx="0" cursor="move" transform="translate(1280, 780)" style="opacity: 1;"><rect id="v-4288" fill="#ffffff" rx="3" ry="3" stroke="#ffffff" stroke-width="20px" pointer-events="none" width="66.0198974609375" height="31.952691078186035" transform="matrix(1,0,0,1,-33,-16)"></rect><text id="v-4287" font-size="24px" y="0.8em" xml:space="preserve" text-anchor="middle" pointer-events="none" fill="#000000" font-family="Open Sans" font-weight="normal" transform="matrix(1,0,0,1,0,-9.8)"><tspan id="v-4289"  dy="0em" x="0">utiliza</tspan></text></g><g  id="v-4290" label-idx="1" cursor="move" transform="translate(1280, 811.2)" style="opacity: 1;"><rect id="v-4292" fill="#ffffff" rx="3" ry="3" pointer-events="none" width="0" height="0" transform="matrix(1,0,0,1,0,0)"></rect><text id="v-4291" font-size="19px" y="0.8em" display="none" xml:space="preserve" text-anchor="middle" pointer-events="none" fill="#000000" font-family="Open Sans" font-weight="normal" transform="matrix(1,0,0,1,0,0)"><tspan id="v-4293"  dy="0em" x="0" style="fill-opacity: 0; stroke-opacity: 0;">-</tspan></text></g><g  id="v-4294" label-idx="2" cursor="move" transform="translate(1280, 835.2)" style="opacity: 1;"><rect id="v-4296" fill="#ffffff" rx="3" ry="3" pointer-events="none"  display="none" width="0" height="0" transform="matrix(1,0,0,1,0,0)"></rect><text id="v-4295" font-size="19px" y="0.8em" display="none" xml:space="preserve" text-anchor="middle" pointer-events="none" fill="#000000" font-family="Open Sans" font-weight="normal"  transform="matrix(1,0,0,1,0,0)"><tspan id="v-4297"  dy="0em" x="0" style="fill-opacity: 0; stroke-opacity: 0;">-</tspan></text></g></g><g  display="none"></g><g  id="v-4302" display="none"><g  id="v-4283"><path  end="source" d="M 26 0 L 0 13 L 26 26 z"></path></g><g  id="v-4284"><path  end="target" d="M 26 0 L 0 13 L 26 26 z"></path></g></g><g  id="v-4301" display="none"><g  id="v-4282" transform="translate(1280, 770) "><g  event="remove"><circle r="11"></circle><path transform="scale(.8) translate(-16, -16)" d="M24.778,21.419 19.276,15.917 24.777,10.415 21.949,7.585 16.447,13.087 10.945,7.585 8.117,10.415 13.618,15.917 8.116,21.419 10.946,24.248 16.447,18.746 21.948,24.248z"></path><title>Remove link.</title></g><g  event="link:options"><circle r="11" transform="translate(25)"></circle><path fill="white" transform="scale(.55) translate(29, -16)" d="M31.229,17.736c0.064-0.571,0.104-1.148,0.104-1.736s-0.04-1.166-0.104-1.737l-4.377-1.557c-0.218-0.716-0.504-1.401-0.851-2.05l1.993-4.192c-0.725-0.91-1.549-1.734-2.458-2.459l-4.193,1.994c-0.647-0.347-1.334-0.632-2.049-0.849l-1.558-4.378C17.165,0.708,16.588,0.667,16,0.667s-1.166,0.041-1.737,0.105L12.707,5.15c-0.716,0.217-1.401,0.502-2.05,0.849L6.464,4.005C5.554,4.73,4.73,5.554,4.005,6.464l1.994,4.192c-0.347,0.648-0.632,1.334-0.849,2.05l-4.378,1.557C0.708,14.834,0.667,15.412,0.667,16s0.041,1.165,0.105,1.736l4.378,1.558c0.217,0.715,0.502,1.401,0.849,2.049l-1.994,4.193c0.725,0.909,1.549,1.733,2.459,2.458l4.192-1.993c0.648,0.347,1.334,0.633,2.05,0.851l1.557,4.377c0.571,0.064,1.148,0.104,1.737,0.104c0.588,0,1.165-0.04,1.736-0.104l1.558-4.377c0.715-0.218,1.399-0.504,2.049-0.851l4.193,1.993c0.909-0.725,1.733-1.549,2.458-2.458l-1.993-4.193c0.347-0.647,0.633-1.334,0.851-2.049L31.229,17.736zM16,20.871c-2.69,0-4.872-2.182-4.872-4.871c0-2.69,2.182-4.872,4.872-4.872c2.689,0,4.871,2.182,4.871,4.872C20.871,18.689,18.689,20.871,16,20.871z"></path><title>Link options.</title></g></g></g></g><g id="j_246"   ><path  stroke="#000000" id="v-4323" stroke-width="2" stroke-dasharray="30 30" fill="none" d="M 1505 636 1841 719" style="opacity: 1;"></path><path  fill="black" stroke="black" transform="translate(1505,636) scale(1,1) rotate(13.92227172851564)"></path><path  fill="#000000" stroke="#000000" id="v-4325" d="M 20 0 L 0 10 L 20 20 z" transform="translate(1857.5940031842113,733.7062150050149) scale(1,1) rotate(-166.07774353027344)" style="opacity: 1;"></path><path  id="v-4324" fill="none" d="M 1505 636 1841 719"></path><title ></title><g ><g  id="v-4310" label-idx="0" cursor="move" transform="translate(1673, 677.5)" style="opacity: 1;"><rect id="v-4312" fill="#ffffff" rx="3" ry="3" stroke="#ffffff" stroke-width="20px" pointer-events="none" width="113.02383422851562" height="60.7526912689209" transform="matrix(1,0,0,1,-56.5,-30.4)"></rect><text id="v-4311" font-size="24px" y="0.8em" xml:space="preserve" text-anchor="middle" pointer-events="none" fill="#000000" font-family="Open Sans" font-weight="normal" transform="matrix(1,0,0,1,0,-24.2)"><tspan id="v-4313"  dy="0em" x="0">autentica/</tspan><tspan id="v-4314"  dy="1.2em" x="0">registra</tspan></text></g><g  id="v-4315" label-idx="1" cursor="move" transform="translate(1673, 720.7)" style="opacity: 1;"><rect id="v-4317" fill="#ffffff" rx="3" ry="3" pointer-events="none" width="69.20635986328125" height="26.31398296356201" transform="matrix(1,0,0,1,-34.6,-13.2)"></rect><text id="v-4316" font-size="19px" y="0.8em" xml:space="preserve" text-anchor="middle" pointer-events="none" fill="#000000" font-family="Open Sans" font-weight="normal" transform="matrix(1,0,0,1,0,-7.7)"><tspan id="v-4318"  dy="0em" x="0">[HTTPS]</tspan></text></g><g  id="v-4319" label-idx="2" cursor="move" transform="translate(1673, 744.7)" style="opacity: 1;"><rect id="v-4321" fill="#ffffff" rx="3" ry="3" pointer-events="none"  display="none" width="0" height="0" transform="matrix(1,0,0,1,0,0)"></rect><text id="v-4320" font-size="19px" y="0.8em" display="none" xml:space="preserve" text-anchor="middle" pointer-events="none" fill="#000000" font-family="Open Sans" font-weight="normal"  transform="matrix(1,0,0,1,0,0)"><tspan id="v-4322"  dy="0em" x="0" style="fill-opacity: 0; stroke-opacity: 0;">-</tspan></text></g></g><g  display="none"></g><g  id="v-4327" display="none"><g  id="v-4307"><path  end="source" d="M 26 0 L 0 13 L 26 26 z"></path></g><g  id="v-4308"><path  end="target" d="M 26 0 L 0 13 L 26 26 z"></path></g></g><g  id="v-4326" display="none"><g  id="v-4306" transform="translate(1543.832763671875, 645.5925903320312) "><g  event="remove"><circle r="11"></circle><path transform="scale(.8) translate(-16, -16)" d="M24.778,21.419 19.276,15.917 24.777,10.415 21.949,7.585 16.447,13.087 10.945,7.585 8.117,10.415 13.618,15.917 8.116,21.419 10.946,24.248 16.447,18.746 21.948,24.248z"></path><title>Remove link.</title></g><g  event="link:options"><circle r="11" transform="translate(25)"></circle><path fill="white" transform="scale(.55) translate(29, -16)" d="M31.229,17.736c0.064-0.571,0.104-1.148,0.104-1.736s-0.04-1.166-0.104-1.737l-4.377-1.557c-0.218-0.716-0.504-1.401-0.851-2.05l1.993-4.192c-0.725-0.91-1.549-1.734-2.458-2.459l-4.193,1.994c-0.647-0.347-1.334-0.632-2.049-0.849l-1.558-4.378C17.165,0.708,16.588,0.667,16,0.667s-1.166,0.041-1.737,0.105L12.707,5.15c-0.716,0.217-1.401,0.502-2.05,0.849L6.464,4.005C5.554,4.73,4.73,5.554,4.005,6.464l1.994,4.192c-0.347,0.648-0.632,1.334-0.849,2.05l-4.378,1.557C0.708,14.834,0.667,15.412,0.667,16s0.041,1.165,0.105,1.736l4.378,1.558c0.217,0.715,0.502,1.401,0.849,2.049l-1.994,4.193c0.725,0.909,1.549,1.733,2.459,2.458l4.192-1.993c0.648,0.347,1.334,0.633,2.05,0.851l1.557,4.377c0.571,0.064,1.148,0.104,1.737,0.104c0.588,0,1.165-0.04,1.736-0.104l1.558-4.377c0.715-0.218,1.399-0.504,2.049-0.851l4.193,1.993c0.909-0.725,1.733-1.549,2.458-2.458l-1.993-4.193c0.347-0.647,0.633-1.334,0.851-2.049L31.229,17.736zM16,20.871c-2.69,0-4.872-2.182-4.872-4.871c0-2.69,2.182-4.872,4.872-4.872c2.689,0,4.871,2.182,4.871,4.872C20.871,18.689,18.689,20.871,16,20.871z"></path><title>Link options.</title></g></g></g></g><g id="j_247"   ><path  stroke="#000000" id="v-4348" stroke-width="2" stroke-dasharray="30 30" fill="none" d="M 1055 999 740 997" style="opacity: 1;"></path><path  fill="black" stroke="black" transform="translate(1055,999) scale(1,1) rotate(-179.65794372558594)"></path><path  fill="#000000" stroke="#000000" id="v-4350" d="M 20 0 L 0 10 L 20 20 z" transform="translate(720.0596975055339,987.0001682125309) scale(1,1) rotate(0.342071533203125)" style="opacity: 1;"></path><path  id="v-4349" fill="none" d="M 1055 999 740 997"></path><title ></title><g ><g  id="v-4335" label-idx="0" cursor="move" transform="translate(897.5, 998)" style="opacity: 1;"><rect id="v-4337" fill="#ffffff" rx="3" ry="3" stroke="#ffffff" stroke-width="20px" pointer-events="none" width="134.50674438476562" height="60.7526912689209" transform="matrix(1,0,0,1,-67.3,-30.4)"></rect><text id="v-4336" font-size="24px" y="0.8em" xml:space="preserve" text-anchor="middle" pointer-events="none" fill="#000000" font-family="Open Sans" font-weight="normal" transform="matrix(1,0,0,1,0,-24.2)"><tspan id="v-4338"  dy="0em" x="0">realiza</tspan><tspan id="v-4339"  dy="1.2em" x="0">persistência</tspan></text></g><g  id="v-4340" label-idx="1" cursor="move" transform="translate(897.5, 1041.2)" style="opacity: 1;"><rect id="v-4342" fill="#ffffff" rx="3" ry="3" pointer-events="none" width="0" height="0" transform="matrix(1,0,0,1,0,0)"></rect><text id="v-4341" font-size="19px" y="0.8em" display="none" xml:space="preserve" text-anchor="middle" pointer-events="none" fill="#000000" font-family="Open Sans" font-weight="normal" transform="matrix(1,0,0,1,0,0)"><tspan id="v-4343"  dy="0em" x="0" style="fill-opacity: 0; stroke-opacity: 0;">-</tspan></text></g><g  id="v-4344" label-idx="2" cursor="move" transform="translate(897.5, 1065.2)" style="opacity: 1;"><rect id="v-4346" fill="#ffffff" rx="3" ry="3" pointer-events="none"  display="none" width="0" height="0" transform="matrix(1,0,0,1,0,0)"></rect><text id="v-4345" font-size="19px" y="0.8em" display="none" xml:space="preserve" text-anchor="middle" pointer-events="none" fill="#000000" font-family="Open Sans" font-weight="normal"  transform="matrix(1,0,0,1,0,0)"><tspan id="v-4347"  dy="0em" x="0" style="fill-opacity: 0; stroke-opacity: 0;">-</tspan></text></g></g><g  display="none"></g><g  id="v-4352" display="none"><g  id="v-4332"><path  end="source" d="M 26 0 L 0 13 L 26 26 z"></path></g><g  id="v-4333"><path  end="target" d="M 26 0 L 0 13 L 26 26 z"></path></g></g><g  id="v-4351" display="none"><g  id="v-4331" transform="translate(1015.0007934570312, 998.74609375) "><g  event="remove"><circle r="11"></circle><path transform="scale(.8) translate(-16, -16)" d="M24.778,21.419 19.276,15.917 24.777,10.415 21.949,7.585 16.447,13.087 10.945,7.585 8.117,10.415 13.618,15.917 8.116,21.419 10.946,24.248 16.447,18.746 21.948,24.248z"></path><title>Remove link.</title></g><g  event="link:options"><circle r="11" transform="translate(25)"></circle><path fill="white" transform="scale(.55) translate(29, -16)" d="M31.229,17.736c0.064-0.571,0.104-1.148,0.104-1.736s-0.04-1.166-0.104-1.737l-4.377-1.557c-0.218-0.716-0.504-1.401-0.851-2.05l1.993-4.192c-0.725-0.91-1.549-1.734-2.458-2.459l-4.193,1.994c-0.647-0.347-1.334-0.632-2.049-0.849l-1.558-4.378C17.165,0.708,16.588,0.667,16,0.667s-1.166,0.041-1.737,0.105L12.707,5.15c-0.716,0.217-1.401,0.502-2.05,0.849L6.464,4.005C5.554,4.73,4.73,5.554,4.005,6.464l1.994,4.192c-0.347,0.648-0.632,1.334-0.849,2.05l-4.378,1.557C0.708,14.834,0.667,15.412,0.667,16s0.041,1.165,0.105,1.736l4.378,1.558c0.217,0.715,0.502,1.401,0.849,2.049l-1.994,4.193c0.725,0.909,1.549,1.733,2.459,2.458l4.192-1.993c0.648,0.347,1.334,0.633,2.05,0.851l1.557,4.377c0.571,0.064,1.148,0.104,1.737,0.104c0.588,0,1.165-0.04,1.736-0.104l1.558-4.377c0.715-0.218,1.399-0.504,2.049-0.851l4.193,1.993c0.909-0.725,1.733-1.549,2.458-2.458l-1.993-4.193c0.347-0.647,0.633-1.334,0.851-2.049L31.229,17.736zM16,20.871c-2.69,0-4.872-2.182-4.872-4.871c0-2.69,2.182-4.872,4.872-4.872c2.689,0,4.871,2.182,4.871,4.872C20.871,18.689,18.689,20.871,16,20.871z"></path><title>Link options.</title></g></g></g></g><g id="j_248"   ><path  stroke="#000000" id="v-4370" stroke-width="2" stroke-dasharray="30 30" fill="none" d="M 795 717 1038 859" style="opacity: 1;"></path><path  fill="black" stroke="black" transform="translate(795,717) scale(1,1) rotate(30.311218261718793)"></path><path  fill="#000000" stroke="#000000" id="v-4372" d="M 20 0 L 0 10 L 20 20 z" transform="translate(1049.9530662954019,877.6329980944766) scale(1,1) rotate(-149.68878173828125)" style="opacity: 1;"></path><path  id="v-4371" fill="none" d="M 795 717 1038 859"></path><title ></title><g ><g  id="v-4358" label-idx="0" cursor="move" transform="translate(916.5, 788)" style="opacity: 1;"><rect id="v-4360" fill="#ffffff" rx="3" ry="3" stroke="#ffffff" stroke-width="20px" pointer-events="none" width="66.0198974609375" height="31.952691078186035" transform="matrix(1,0,0,1,-33,-16)"></rect><text id="v-4359" font-size="24px" y="0.8em" xml:space="preserve" text-anchor="middle" pointer-events="none" fill="#000000" font-family="Open Sans" font-weight="normal" transform="matrix(1,0,0,1,0,-9.8)"><tspan id="v-4361"  dy="0em" x="0">utiliza</tspan></text></g><g  id="v-4362" label-idx="1" cursor="move" transform="translate(916.5, 819.2)" style="opacity: 1;"><rect id="v-4364" fill="#ffffff" rx="3" ry="3" pointer-events="none" width="0" height="0" transform="matrix(1,0,0,1,0,0)"></rect><text id="v-4363" font-size="19px" y="0.8em" display="none" xml:space="preserve" text-anchor="middle" pointer-events="none" fill="#000000" font-family="Open Sans" font-weight="normal" transform="matrix(1,0,0,1,0,0)"><tspan id="v-4365"  dy="0em" x="0" style="fill-opacity: 0; stroke-opacity: 0;">-</tspan></text></g><g  id="v-4366" label-idx="2" cursor="move" transform="translate(916.5, 843.2)" style="opacity: 1;"><rect id="v-4368" fill="#ffffff" rx="3" ry="3" pointer-events="none"  display="none" width="0" height="0" transform="matrix(1,0,0,1,0,0)"></rect><text id="v-4367" font-size="19px" y="0.8em" display="none" xml:space="preserve" text-anchor="middle" pointer-events="none" fill="#000000" font-family="Open Sans" font-weight="normal"  transform="matrix(1,0,0,1,0,0)"><tspan id="v-4369"  dy="0em" x="0" style="fill-opacity: 0; stroke-opacity: 0;">-</tspan></text></g></g><g  display="none"></g><g  id="v-4374" display="none"><g  id="v-4355"><path  end="source" d="M 26 0 L 0 13 L 26 26 z"></path></g><g  id="v-4356"><path  end="target" d="M 26 0 L 0 13 L 26 26 z"></path></g></g><g  id="v-4373" display="none"><g  id="v-4354" transform="translate(829.5357055664062, 737.1813354492188) "><g  event="remove"><circle r="11"></circle><path transform="scale(.8) translate(-16, -16)" d="M24.778,21.419 19.276,15.917 24.777,10.415 21.949,7.585 16.447,13.087 10.945,7.585 8.117,10.415 13.618,15.917 8.116,21.419 10.946,24.248 16.447,18.746 21.948,24.248z"></path><title>Remove link.</title></g><g  event="link:options"><circle r="11" transform="translate(25)"></circle><path fill="white" transform="scale(.55) translate(29, -16)" d="M31.229,17.736c0.064-0.571,0.104-1.148,0.104-1.736s-0.04-1.166-0.104-1.737l-4.377-1.557c-0.218-0.716-0.504-1.401-0.851-2.05l1.993-4.192c-0.725-0.91-1.549-1.734-2.458-2.459l-4.193,1.994c-0.647-0.347-1.334-0.632-2.049-0.849l-1.558-4.378C17.165,0.708,16.588,0.667,16,0.667s-1.166,0.041-1.737,0.105L12.707,5.15c-0.716,0.217-1.401,0.502-2.05,0.849L6.464,4.005C5.554,4.73,4.73,5.554,4.005,6.464l1.994,4.192c-0.347,0.648-0.632,1.334-0.849,2.05l-4.378,1.557C0.708,14.834,0.667,15.412,0.667,16s0.041,1.165,0.105,1.736l4.378,1.558c0.217,0.715,0.502,1.401,0.849,2.049l-1.994,4.193c0.725,0.909,1.549,1.733,2.459,2.458l4.192-1.993c0.648,0.347,1.334,0.633,2.05,0.851l1.557,4.377c0.571,0.064,1.148,0.104,1.737,0.104c0.588,0,1.165-0.04,1.736-0.104l1.558-4.377c0.715-0.218,1.399-0.504,2.049-0.851l4.193,1.993c0.909-0.725,1.733-1.549,2.458-2.458l-1.993-4.193c0.347-0.647,0.633-1.334,0.851-2.049L31.229,17.736zM16,20.871c-2.69,0-4.872-2.182-4.872-4.871c0-2.69,2.182-4.872,4.872-4.872c2.689,0,4.871,2.182,4.871,4.872C20.871,18.689,18.689,20.871,16,20.871z"></path><title>Link options.</title></g></g></g></g><g id="j_249"   ><path  stroke="#000000" id="v-4393" stroke-width="2" stroke-dasharray="30 30" fill="none" d="M 700 168 585 170 S 575 170 575 180 L 572 415" style="opacity: 1;"></path><path  fill="black" stroke="black" transform="translate(700,168) scale(1,1) rotate(-180.91665649414062)"></path><path  fill="#000000" stroke="#000000" id="v-4395" d="M 20 0 L 0 10 L 20 20 z" transform="translate(562.000660383171,434.88679955949334) scale(1,1) rotate(-89.35139465332031)" style="opacity: 1;"></path><path  id="v-4394" fill="none" d="M 700 168 585 170 S 575 170 575 180 L 572 415"></path><title ></title><g ><g  id="v-4381" label-idx="0" cursor="move" transform="translate(574.3353271484375, 232.06468200683594)" style="opacity: 1;"><rect id="v-4383" fill="#ffffff" rx="3" ry="3" stroke="#ffffff" stroke-width="20px" pointer-events="none" width="66.0198974609375" height="31.952691078186035" transform="matrix(1,0,0,1,-33,-16)"></rect><text id="v-4382" font-size="24px" y="0.8em" xml:space="preserve" text-anchor="middle" pointer-events="none" fill="#000000" font-family="Open Sans" font-weight="normal" transform="matrix(1,0,0,1,0,-9.8)"><tspan id="v-4384"  dy="0em" x="0">utiliza</tspan></text></g><g  id="v-4385" label-idx="1" cursor="move" transform="translate(574.3353271484375, 263.2646820068359)" style="opacity: 1;"><rect id="v-4387" fill="#ffffff" rx="3" ry="3" pointer-events="none" width="69.20635986328125" height="26.31398296356201" transform="matrix(1,0,0,1,-34.6,-13.2)"></rect><text id="v-4386" font-size="19px" y="0.8em" xml:space="preserve" text-anchor="middle" pointer-events="none" fill="#000000" font-family="Open Sans" font-weight="normal" transform="matrix(1,0,0,1,0,-7.7)"><tspan id="v-4388"  dy="0em" x="0">[HTTPS]</tspan></text></g><g  id="v-4389" label-idx="2" cursor="move" transform="translate(574.3353271484375, 287.2646820068359)" style="opacity: 1;"><rect id="v-4391" fill="#ffffff" rx="3" ry="3" pointer-events="none"  display="none" width="0" height="0" transform="matrix(1,0,0,1,0,0)"></rect><text id="v-4390" font-size="19px" y="0.8em" display="none" xml:space="preserve" text-anchor="middle" pointer-events="none" fill="#000000" font-family="Open Sans" font-weight="normal"  transform="matrix(1,0,0,1,0,0)"><tspan id="v-4392"  dy="0em" x="0" style="fill-opacity: 0; stroke-opacity: 0;">-</tspan></text></g></g><g  display="none"><g  transform="translate(575, 170)" id="v-4377"><circle  idx="0" r="10"></circle><path  idx="0" d="M16,5.333c-7.732,0-14,4.701-14,10.5c0,1.982,0.741,3.833,2.016,5.414L2,25.667l5.613-1.441c2.339,1.317,5.237,2.107,8.387,2.107c7.732,0,14-4.701,14-10.5C30,10.034,23.732,5.333,16,5.333z" transform="translate(5, -33)"></path><path  idx="0" transform="scale(.8) translate(9.5, -37)" d="M24.778,21.419 19.276,15.917 24.777,10.415 21.949,7.585 16.447,13.087 10.945,7.585 8.117,10.415 13.618,15.917 8.116,21.419 10.946,24.248 16.447,18.746 21.948,24.248z"><title>Remove vertex.</title></path></g></g><g  id="v-4397" display="none"><g  id="v-4378"><path  end="source" d="M 26 0 L 0 13 L 26 26 z"></path></g><g  id="v-4379"><path  end="target" d="M 26 0 L 0 13 L 26 26 z"></path></g></g><g  id="v-4396" display="none"><g  id="v-4376" transform="translate(660.0060424804688, 168.695556640625) "><g  event="remove"><circle r="11"></circle><path transform="scale(.8) translate(-16, -16)" d="M24.778,21.419 19.276,15.917 24.777,10.415 21.949,7.585 16.447,13.087 10.945,7.585 8.117,10.415 13.618,15.917 8.116,21.419 10.946,24.248 16.447,18.746 21.948,24.248z"></path><title>Remove link.</title></g><g  event="link:options"><circle r="11" transform="translate(25)"></circle><path fill="white" transform="scale(.55) translate(29, -16)" d="M31.229,17.736c0.064-0.571,0.104-1.148,0.104-1.736s-0.04-1.166-0.104-1.737l-4.377-1.557c-0.218-0.716-0.504-1.401-0.851-2.05l1.993-4.192c-0.725-0.91-1.549-1.734-2.458-2.459l-4.193,1.994c-0.647-0.347-1.334-0.632-2.049-0.849l-1.558-4.378C17.165,0.708,16.588,0.667,16,0.667s-1.166,0.041-1.737,0.105L12.707,5.15c-0.716,0.217-1.401,0.502-2.05,0.849L6.464,4.005C5.554,4.73,4.73,5.554,4.005,6.464l1.994,4.192c-0.347,0.648-0.632,1.334-0.849,2.05l-4.378,1.557C0.708,14.834,0.667,15.412,0.667,16s0.041,1.165,0.105,1.736l4.378,1.558c0.217,0.715,0.502,1.401,0.849,2.049l-1.994,4.193c0.725,0.909,1.549,1.733,2.459,2.458l4.192-1.993c0.648,0.347,1.334,0.633,2.05,0.851l1.557,4.377c0.571,0.064,1.148,0.104,1.737,0.104c0.588,0,1.165-0.04,1.736-0.104l1.558-4.377c0.715-0.218,1.399-0.504,2.049-0.851l4.193,1.993c0.909-0.725,1.733-1.549,2.458-2.458l-1.993-4.193c0.347-0.647,0.633-1.334,0.851-2.049L31.229,17.736zM16,20.871c-2.69,0-4.872-2.182-4.872-4.871c0-2.69,2.182-4.872,4.872-4.872c2.689,0,4.871,2.182,4.871,4.872C20.871,18.689,18.689,20.871,16,20.871z"></path><title>Link options.</title></g></g></g></g><g id="j_250"   ><path  stroke="#000000" id="v-4416" stroke-width="2" stroke-dasharray="30 30" fill="none" d="M 1150 168 1265 170 S 1275 170 1275 180 L 1278 410" style="opacity: 1;"></path><path  fill="black" stroke="black" transform="translate(1150,168) scale(1,1) rotate(0.916656494140625)"></path><path  fill="#000000" stroke="#000000" id="v-4418" d="M 20 0 L 0 10 L 20 20 z" transform="translate(1268.000686738592,430.1153833281217) scale(1,1) rotate(-90.66107940673828)" style="opacity: 1;"></path><path  id="v-4417" fill="none" d="M 1150 168 1265 170 S 1275 170 1275 180 L 1278 410"></path><title ></title><g ><g  id="v-4404" label-idx="0" cursor="move" transform="translate(1275.646484375, 229.5648651123047)" style="opacity: 1;"><rect id="v-4406" fill="#ffffff" rx="3" ry="3" stroke="#ffffff" stroke-width="20px" pointer-events="none" width="66.0198974609375" height="31.952691078186035" transform="matrix(1,0,0,1,-33,-16)"></rect><text id="v-4405" font-size="24px" y="0.8em" xml:space="preserve" text-anchor="middle" pointer-events="none" fill="#000000" font-family="Open Sans" font-weight="normal" transform="matrix(1,0,0,1,0,-9.8)"><tspan id="v-4407"  dy="0em" x="0">utiliza</tspan></text></g><g  id="v-4408" label-idx="1" cursor="move" transform="translate(1275.646484375, 260.7648651123047)" style="opacity: 1;"><rect id="v-4410" fill="#ffffff" rx="3" ry="3" pointer-events="none" width="69.20635986328125" height="26.31398296356201" transform="matrix(1,0,0,1,-34.6,-13.2)"></rect><text id="v-4409" font-size="19px" y="0.8em" xml:space="preserve" text-anchor="middle" pointer-events="none" fill="#000000" font-family="Open Sans" font-weight="normal" transform="matrix(1,0,0,1,0,-7.7)"><tspan id="v-4411"  dy="0em" x="0">[HTTPS]</tspan></text></g><g  id="v-4412" label-idx="2" cursor="move" transform="translate(1275.646484375, 284.7648651123047)" style="opacity: 1;"><rect id="v-4414" fill="#ffffff" rx="3" ry="3" pointer-events="none"  display="none" width="0" height="0" transform="matrix(1,0,0,1,0,0)"></rect><text id="v-4413" font-size="19px" y="0.8em" display="none" xml:space="preserve" text-anchor="middle" pointer-events="none" fill="#000000" font-family="Open Sans" font-weight="normal"  transform="matrix(1,0,0,1,0,0)"><tspan id="v-4415"  dy="0em" x="0" style="fill-opacity: 0; stroke-opacity: 0;">-</tspan></text></g></g><g  display="none"><g  transform="translate(1275, 170)" id="v-4400"><circle  idx="0" r="10"></circle><path  idx="0" d="M16,5.333c-7.732,0-14,4.701-14,10.5c0,1.982,0.741,3.833,2.016,5.414L2,25.667l5.613-1.441c2.339,1.317,5.237,2.107,8.387,2.107c7.732,0,14-4.701,14-10.5C30,10.034,23.732,5.333,16,5.333z" transform="translate(5, -33)"></path><path  idx="0" transform="scale(.8) translate(9.5, -37)" d="M24.778,21.419 19.276,15.917 24.777,10.415 21.949,7.585 16.447,13.087 10.945,7.585 8.117,10.415 13.618,15.917 8.116,21.419 10.946,24.248 16.447,18.746 21.948,24.248z"><title>Remove vertex.</title></path></g></g><g  id="v-4420" display="none"><g  id="v-4401"><path  end="source" d="M 26 0 L 0 13 L 26 26 z"></path></g><g  id="v-4402"><path  end="target" d="M 26 0 L 0 13 L 26 26 z"></path></g></g><g  id="v-4419" display="none"><g  id="v-4399" transform="translate(1189.993896484375, 168.69554138183594) "><g  event="remove"><circle r="11"></circle><path transform="scale(.8) translate(-16, -16)" d="M24.778,21.419 19.276,15.917 24.777,10.415 21.949,7.585 16.447,13.087 10.945,7.585 8.117,10.415 13.618,15.917 8.116,21.419 10.946,24.248 16.447,18.746 21.948,24.248z"></path><title>Remove link.</title></g><g  event="link:options"><circle r="11" transform="translate(25)"></circle><path fill="white" transform="scale(.55) translate(29, -16)" d="M31.229,17.736c0.064-0.571,0.104-1.148,0.104-1.736s-0.04-1.166-0.104-1.737l-4.377-1.557c-0.218-0.716-0.504-1.401-0.851-2.05l1.993-4.192c-0.725-0.91-1.549-1.734-2.458-2.459l-4.193,1.994c-0.647-0.347-1.334-0.632-2.049-0.849l-1.558-4.378C17.165,0.708,16.588,0.667,16,0.667s-1.166,0.041-1.737,0.105L12.707,5.15c-0.716,0.217-1.401,0.502-2.05,0.849L6.464,4.005C5.554,4.73,4.73,5.554,4.005,6.464l1.994,4.192c-0.347,0.648-0.632,1.334-0.849,2.05l-4.378,1.557C0.708,14.834,0.667,15.412,0.667,16s0.041,1.165,0.105,1.736l4.378,1.558c0.217,0.715,0.502,1.401,0.849,2.049l-1.994,4.193c0.725,0.909,1.549,1.733,2.459,2.458l4.192-1.993c0.648,0.347,1.334,0.633,2.05,0.851l1.557,4.377c0.571,0.064,1.148,0.104,1.737,0.104c0.588,0,1.165-0.04,1.736-0.104l1.558-4.377c0.715-0.218,1.399-0.504,2.049-0.851l4.193,1.993c0.909-0.725,1.733-1.549,2.458-2.458l-1.993-4.193c0.347-0.647,0.633-1.334,0.851-2.049L31.229,17.736zM16,20.871c-2.69,0-4.872-2.182-4.872-4.871c0-2.69,2.182-4.872,4.872-4.872c2.689,0,4.871,2.182,4.871,4.872C20.871,18.689,18.689,20.871,16,20.871z"></path><title>Link options.</title></g></g></g></g></g><defs id="v-4"></defs></svg>