<svg xmlns="http://www.w3.org/2000/svg" xmlns:xlink="http://www.w3.org/1999/xlink" version="1.1" viewBox="0 0 2480 1748" style="background: #ffffff"><g id="v-3"  transform="matrix(1,0,0,1,0,0)"><g id="j_208"    transform="translate(20,1703)"><g id="v-3644"><text  id="v-3645" font-size="22px" y="0.8em" xml:space="preserve" font-weight="normal" text-anchor="start" fill="#aaaaaa" pointer-events="none" font-family="Open Sans" transform="matrix(1,0,0,1,0,0)"><tspan id="v-3646"  dy="0em" x="0">sexta-feira, 1 de abril de 2022 20:23 Horário Padrão de Brasília</tspan></text></g></g><g id="j_207"    transform="translate(20,1674)"><g id="v-3640"><text  id="v-3641" font-size="22px" y="0.8em" xml:space="preserve" font-weight="normal" text-anchor="start" fill="#aaaaaa" pointer-events="none" font-family="Open Sans" transform="matrix(1,0,0,1,0,0)"><tspan id="v-3642"  dy="0em" x="0">C4 - Level 1</tspan></text></g></g><g id="j_206"    transform="translate(20,1628)"><g id="v-3636"><text  id="v-3637" font-size="36px" y="0.8em" xml:space="preserve" font-weight="normal" text-anchor="start" fill="#000000" pointer-events="none" font-family="Open Sans" transform="matrix(1,0,0,1,0,0)"><tspan id="v-3638"  dy="0em" x="0">[System Context] Controle Financeiro Pessoal</tspan></text></g></g><g id="j_199"    transform="translate(445,1145)" style=""><g id="v-3478"><rect  id="v-3479" width="490" height="413" rx="0" ry="0" fill="#ffffff" stroke="#444444" stroke-width="2" stroke-dasharray="20,20" pointer-events="none"></rect><text  id="v-3480" font-size="24px" y="374" xml:space="preserve" font-weight="normal" fill="#444444" x="10" text-anchor="start" pointer-events="visible" font-family="Open Sans" transform="matrix(1,0,0,1,15,0)"><tspan id="v-3482"  dy="0em" x="0">CFP</tspan></text><text  id="v-3481" font-size="19px" y="398" xml:space="preserve" font-weight="normal" fill="#444444" x="10" text-anchor="start" pointer-events="visible" font-family="Open Sans" transform="matrix(1,0,0,1,15,0)"><tspan id="v-3483"  dy="0em" x="0">[Enterprise]</tspan></text></g></g><g id="j_193"    transform="translate(20,345)" style=""><g  id="v-3378" style="opacity: 1;"><rect  x="0" y="160" width="400" height="240" rx="70" id="v-3380" stroke="#073b6f" stroke-width="2" pointer-events="visiblePainted" fill="#08427b"></rect><circle  cx="200" cy="88.88888888888889" r="88.88888888888889" id="v-3379" stroke="#073b6f" stroke-width="2" pointer-events="visiblePainted" fill="#08427b"></circle><line  x1="80" y1="266.6666666666667" x2="80" y2="400" style="stroke-width:2px" id="v-3386" stroke="#073b6f"></line><line  x1="320" y1="266.6666666666667" x2="320" y2="400" style="stroke-width:2px" id="v-3387" stroke="#073b6f"></line><text  id="v-3381" font-size="34px" y="0.8em" xml:space="preserve" font-weight="bold" text-anchor="middle" pointer-events="visible" font-family="Open Sans" fill="#ffffff" transform="matrix(1,0,0,1,200,205)"><tspan id="v-3388"  dy="0em" x="0">Usuário anônimo</tspan></text><text  id="v-3382" font-size="19px" y="0.8em" xml:space="preserve" text-anchor="middle" font-family="Open Sans" fill="#ffffff" transform="matrix(1,0,0,1,200,247.5)"><tspan id="v-3389"  dy="0em" x="0">[Person]</tspan></text><text  id="v-3383" font-size="24px" y="0.8em" xml:space="preserve" text-anchor="middle" font-family="Open Sans" fill="#ffffff" transform="matrix(1,0,0,1,200,295)"><tspan id="v-3390"  dy="0em" x="0">Qualquer pessoa acessando a</tspan><tspan id="v-3391"  dy="1.2em" x="0">Internet</tspan></text><text  id="v-3384" font-weight="bold" text-anchor="middle" font-family="Open Sans" fill="#ffffff" font-size="24" transform="matrix(1,0,0,1,200,371.2)" display="none"></text><image  id="v-3385"></image></g></g><g id="j_194"    transform="translate(1270,345)" style=""><g  id="v-3397" style="opacity: 1;"><rect  x="0" y="160" width="400" height="240" rx="70" id="v-3399" stroke="#073b6f" stroke-width="2" pointer-events="visiblePainted" fill="#08427b"></rect><circle  cx="200" cy="88.88888888888889" r="88.88888888888889" id="v-3398" stroke="#073b6f" stroke-width="2" pointer-events="visiblePainted" fill="#08427b"></circle><line  x1="80" y1="266.6666666666667" x2="80" y2="400" style="stroke-width:2px" id="v-3405" stroke="#073b6f"></line><line  x1="320" y1="266.6666666666667" x2="320" y2="400" style="stroke-width:2px" id="v-3406" stroke="#073b6f"></line><text  id="v-3400" font-size="34px" y="0.8em" xml:space="preserve" font-weight="bold" text-anchor="middle" pointer-events="visible" font-family="Open Sans" fill="#ffffff" transform="matrix(1,0,0,1,200,190)"><tspan id="v-3407"  dy="0em" x="0">Usuário Registrado</tspan></text><text  id="v-3401" font-size="19px" y="0.8em" xml:space="preserve" text-anchor="middle" font-family="Open Sans" fill="#ffffff" transform="matrix(1,0,0,1,200,232.5)"><tspan id="v-3408"  dy="0em" x="0">[Person]</tspan></text><text  id="v-3402" font-size="24px" y="0.8em" xml:space="preserve" text-anchor="middle" font-family="Open Sans" fill="#ffffff" transform="matrix(1,0,0,1,200,280)"><tspan id="v-3409"  dy="0em" x="0">Usuário cadastrado com</tspan><tspan id="v-3410"  dy="1.2em" x="0">endereço de e-mail mas ainda</tspan><tspan id="v-3411"  dy="1.2em" x="0">não autenticado</tspan></text><text  id="v-3403" font-weight="bold" text-anchor="middle" font-family="Open Sans" fill="#ffffff" font-size="24" transform="matrix(1,0,0,1,200,371.2)" display="none"></text><image  id="v-3404"></image></g></g><g id="j_195"    transform="translate(575,345)" style=""><g  id="v-3417" style="opacity: 1;"><rect  x="0" y="160" width="400" height="240" rx="70" id="v-3419" stroke="#073b6f" stroke-width="2" pointer-events="visiblePainted" fill="#08427b"></rect><circle  cx="200" cy="88.88888888888889" r="88.88888888888889" id="v-3418" stroke="#073b6f" stroke-width="2" pointer-events="visiblePainted" fill="#08427b"></circle><line  x1="80" y1="266.6666666666667" x2="80" y2="400" style="stroke-width:2px" id="v-3425" stroke="#073b6f"></line><line  x1="320" y1="266.6666666666667" x2="320" y2="400" style="stroke-width:2px" id="v-3426" stroke="#073b6f"></line><text  id="v-3420" font-size="34px" y="0.8em" xml:space="preserve" font-weight="bold" text-anchor="middle" pointer-events="visible" font-family="Open Sans" fill="#ffffff" transform="matrix(1,0,0,1,200,205)"><tspan id="v-3427"  dy="0em" x="0">Usuário Autenticado</tspan></text><text  id="v-3421" font-size="19px" y="0.8em" xml:space="preserve" text-anchor="middle" font-family="Open Sans" fill="#ffffff" transform="matrix(1,0,0,1,200,247.5)"><tspan id="v-3428"  dy="0em" x="0">[Person]</tspan></text><text  id="v-3422" font-size="24px" y="0.8em" xml:space="preserve" text-anchor="middle" font-family="Open Sans" fill="#ffffff" transform="matrix(1,0,0,1,200,295)"><tspan id="v-3429"  dy="0em" x="0">Usuário autenticado pelo</tspan><tspan id="v-3430"  dy="1.2em" x="0">sistema</tspan></text><text  id="v-3423" font-weight="bold" text-anchor="middle" font-family="Open Sans" fill="#ffffff" font-size="24" transform="matrix(1,0,0,1,200,371.2)" display="none"></text><image  id="v-3424"></image></g></g><g id="j_196"    transform="translate(1250,1360)" style="" ><g  id="v-3434" style="opacity: 1;"><rect  id="v-3435" rx="20" ry="20" stroke="#c7c7c7" stroke-width="2" pointer-events="visiblePainted" fill="#dddddd" width="450" height="300"></rect><text  id="v-3436" font-size="34" y="0.8em" xml:space="preserve" font-weight="bold" text-anchor="middle" pointer-events="visible" font-family="Open Sans" fill="#000000" transform="matrix(1,0,0,1,225,90)"><tspan id="v-3441"  dy="0em" x="0">Google</tspan></text><text  id="v-3437" font-size="19" y="0.8em" xml:space="preserve" text-anchor="middle" font-family="Open Sans" fill="#000000" transform="matrix(1,0,0,1,225,132.5)"><tspan id="v-3442"  dy="0em" x="0">[Software System]</tspan></text><text  id="v-3438" font-size="24" y="0.8em" xml:space="preserve" text-anchor="middle" font-family="Open Sans" fill="#000000" transform="matrix(1,0,0,1,225,180)"><tspan id="v-3443"  dy="0em" x="0">Serviço de autenticação do Google</tspan></text><text  id="v-3439" font-weight="bold" text-anchor="middle" font-family="Open Sans" fill="#000000" font-size="24" transform="matrix(1,0,0,1,225,270)" y="0.8em" display="none" xml:space="preserve"><tspan id="v-3444"  dy="0em" x="0" style="fill-opacity: 0; stroke-opacity: 0;">-</tspan></text><image  id="v-3440"></image></g></g><g id="j_197"    transform="translate(1250,980)" style="" ><g  id="v-3448" style="opacity: 1;"><rect  id="v-3449" rx="20" ry="20" stroke="#c7c7c7" stroke-width="2" pointer-events="visiblePainted" fill="#dddddd" width="450" height="300"></rect><text  id="v-3450" font-size="34" y="0.8em" xml:space="preserve" font-weight="bold" text-anchor="middle" pointer-events="visible" font-family="Open Sans" fill="#000000" transform="matrix(1,0,0,1,225,90)"><tspan id="v-3455"  dy="0em" x="0">Sistema de email</tspan></text><text  id="v-3451" font-size="19" y="0.8em" xml:space="preserve" text-anchor="middle" font-family="Open Sans" fill="#000000" transform="matrix(1,0,0,1,225,132.5)"><tspan id="v-3456"  dy="0em" x="0">[Software System]</tspan></text><text  id="v-3452" font-size="24" y="0.8em" xml:space="preserve" text-anchor="middle" font-family="Open Sans" fill="#000000" transform="matrix(1,0,0,1,225,180)"><tspan id="v-3457"  dy="0em" x="0">Serviço de correio eletrônico</tspan></text><text  id="v-3453" font-weight="bold" text-anchor="middle" font-family="Open Sans" fill="#000000" font-size="24" transform="matrix(1,0,0,1,225,270)" y="0.8em" display="none" xml:space="preserve"><tspan id="v-3458"  dy="0em" x="0" style="fill-opacity: 0; stroke-opacity: 0;">-</tspan></text><image  id="v-3454"></image></g></g><g id="j_198"    transform="translate(465,1165)" style="" ><g  id="v-3464" style="opacity: 1;"><rect  id="v-3465" rx="20" ry="20" stroke="#0f5eaa" stroke-width="2" pointer-events="visiblePainted" fill="#1168bd" width="450" height="300"></rect><text  id="v-3466" font-size="34" y="0.8em" xml:space="preserve" font-weight="bold" text-anchor="middle" pointer-events="visible" font-family="Open Sans" fill="#ffffff" transform="matrix(1,0,0,1,225,38.8)"><tspan id="v-3471"  dy="0em" x="0">Controle Financeiro</tspan><tspan id="v-3472"  dy="1.2em" x="0">Pessoal</tspan></text><text  id="v-3467" font-size="19" y="0.8em" xml:space="preserve" text-anchor="middle" font-family="Open Sans" fill="#ffffff" transform="matrix(1,0,0,1,225,123.8)"><tspan id="v-3473"  dy="0em" x="0">[Software System]</tspan></text><text  id="v-3468" font-size="24" y="0.8em" xml:space="preserve" text-anchor="middle" font-family="Open Sans" fill="#ffffff" transform="matrix(1,0,0,1,225,171.3)"><tspan id="v-3474"  dy="0em" x="0">A melhor forma de manter o</tspan><tspan id="v-3475"  dy="1.2em" x="0">controle dos gastos e planejar o</tspan><tspan id="v-3476"  dy="1.2em" x="0">futuro</tspan></text><text  id="v-3469" font-weight="bold" text-anchor="middle" font-family="Open Sans" fill="#ffffff" font-size="24" transform="matrix(1,0,0,1,225,270)" y="0.8em" xml:space="preserve" display="none"><tspan id="v-3484"  dy="0em" x="0">+</tspan></text><image  id="v-3470"></image></g></g><g id="j_200"   ><path  stroke="#000000" id="v-3505" stroke-width="2" stroke-dasharray="30 30" fill="none" d="M 915 1371 1231 1449" style="opacity: 1;"></path><path  fill="black" stroke="black" transform="translate(915,1371) scale(1,1) rotate(13.915466308593764)"></path><path  fill="#000000" stroke="#000000" id="v-3507" d="M 20 0 L 0 10 L 20 20 z" transform="translate(1247.595075582096,1463.7065074941852) scale(1,1) rotate(-166.0845489501953)" style="opacity: 1;"></path><path  id="v-3506" fill="none" d="M 915 1371 1231 1449"></path><title ></title><g ><g  id="v-3492" label-idx="0" cursor="move" transform="translate(1073, 1410)" style="opacity: 1;"><rect id="v-3494" fill="#ffffff" rx="3" ry="3" stroke="#ffffff" stroke-width="20px" pointer-events="none" width="113.02383422851562" height="60.7526912689209" transform="matrix(1,0,0,1,-56.5,-30.4)"></rect><text id="v-3493" font-size="24px" y="0.8em" xml:space="preserve" text-anchor="middle" pointer-events="none" fill="#000000" font-family="Open Sans" font-weight="normal" transform="matrix(1,0,0,1,0,-24.2)"><tspan id="v-3495"  dy="0em" x="0">autentica/</tspan><tspan id="v-3496"  dy="1.2em" x="0">registra</tspan></text></g><g  id="v-3497" label-idx="1" cursor="move" transform="translate(1073, 1453.2)" style="opacity: 1;"><rect id="v-3499" fill="#ffffff" rx="3" ry="3" pointer-events="none" width="69.20635986328125" height="26.31398296356201" transform="matrix(1,0,0,1,-34.6,-13.2)"></rect><text id="v-3498" font-size="19px" y="0.8em" xml:space="preserve" text-anchor="middle" pointer-events="none" fill="#000000" font-family="Open Sans" font-weight="normal" transform="matrix(1,0,0,1,0,-7.7)"><tspan id="v-3500"  dy="0em" x="0">[HTTPS]</tspan></text></g><g  id="v-3501" label-idx="2" cursor="move" transform="translate(1073, 1477.2)" style="opacity: 1;"><rect id="v-3503" fill="#ffffff" rx="3" ry="3" pointer-events="none"  display="none" width="0" height="0" transform="matrix(1,0,0,1,0,0)"></rect><text id="v-3502" font-size="19px" y="0.8em" display="none" xml:space="preserve" text-anchor="middle" pointer-events="none" fill="#000000" font-family="Open Sans" font-weight="normal"  transform="matrix(1,0,0,1,0,0)"><tspan id="v-3504"  dy="0em" x="0" style="fill-opacity: 0; stroke-opacity: 0;">-</tspan></text></g></g><g  display="none"></g><g  id="v-3509" display="none"><g  id="v-3489"><path  end="source" d="M 26 0 L 0 13 L 26 26 z"></path></g><g  id="v-3490"><path  end="target" d="M 26 0 L 0 13 L 26 26 z"></path></g></g><g  id="v-3508" display="none"><g  id="v-3488" transform="translate(953.83447265625, 1380.585693359375) "><g  event="remove"><circle r="11"></circle><path transform="scale(.8) translate(-16, -16)" d="M24.778,21.419 19.276,15.917 24.777,10.415 21.949,7.585 16.447,13.087 10.945,7.585 8.117,10.415 13.618,15.917 8.116,21.419 10.946,24.248 16.447,18.746 21.948,24.248z"></path><title>Remove link.</title></g><g  event="link:options"><circle r="11" transform="translate(25)"></circle><path fill="white" transform="scale(.55) translate(29, -16)" d="M31.229,17.736c0.064-0.571,0.104-1.148,0.104-1.736s-0.04-1.166-0.104-1.737l-4.377-1.557c-0.218-0.716-0.504-1.401-0.851-2.05l1.993-4.192c-0.725-0.91-1.549-1.734-2.458-2.459l-4.193,1.994c-0.647-0.347-1.334-0.632-2.049-0.849l-1.558-4.378C17.165,0.708,16.588,0.667,16,0.667s-1.166,0.041-1.737,0.105L12.707,5.15c-0.716,0.217-1.401,0.502-2.05,0.849L6.464,4.005C5.554,4.73,4.73,5.554,4.005,6.464l1.994,4.192c-0.347,0.648-0.632,1.334-0.849,2.05l-4.378,1.557C0.708,14.834,0.667,15.412,0.667,16s0.041,1.165,0.105,1.736l4.378,1.558c0.217,0.715,0.502,1.401,0.849,2.049l-1.994,4.193c0.725,0.909,1.549,1.733,2.459,2.458l4.192-1.993c0.648,0.347,1.334,0.633,2.05,0.851l1.557,4.377c0.571,0.064,1.148,0.104,1.737,0.104c0.588,0,1.165-0.04,1.736-0.104l1.558-4.377c0.715-0.218,1.399-0.504,2.049-0.851l4.193,1.993c0.909-0.725,1.733-1.549,2.458-2.458l-1.993-4.193c0.347-0.647,0.633-1.334,0.851-2.049L31.229,17.736zM16,20.871c-2.69,0-4.872-2.182-4.872-4.871c0-2.69,2.182-4.872,4.872-4.872c2.689,0,4.871,2.182,4.871,4.872C20.871,18.689,18.689,20.871,16,20.871z"></path><title>Link options.</title></g></g></g></g><g id="j_201"   ><path  stroke="#000000" id="v-3527" stroke-width="2" stroke-dasharray="30 30" fill="none" d="M 753 745 709 1145" style="opacity: 1;"></path><path  fill="black" stroke="black" transform="translate(753,745) scale(1,1) rotate(-263.7496643066406)"></path><path  fill="#000000" stroke="#000000" id="v-3529" d="M 20 0 L 0 10 L 20 20 z" transform="translate(697.0594599450945,1163.911276787333) scale(1,1) rotate(-83.7496566772461)" style="opacity: 1;"></path><path  id="v-3528" fill="none" d="M 753 745 709 1145"></path><title ></title><g ><g  id="v-3515" label-idx="0" cursor="move" transform="translate(731, 945)" style="opacity: 1;"><rect id="v-3517" fill="#ffffff" rx="3" ry="3" stroke="#ffffff" stroke-width="20px" pointer-events="none" width="66.0198974609375" height="31.952691078186035" transform="matrix(1,0,0,1,-33,-16)"></rect><text id="v-3516" font-size="24px" y="0.8em" xml:space="preserve" text-anchor="middle" pointer-events="none" fill="#000000" font-family="Open Sans" font-weight="normal" transform="matrix(1,0,0,1,0,-9.8)"><tspan id="v-3518"  dy="0em" x="0">utiliza</tspan></text></g><g  id="v-3519" label-idx="1" cursor="move" transform="translate(731, 976.2)" style="opacity: 1;"><rect id="v-3521" fill="#ffffff" rx="3" ry="3" pointer-events="none" width="69.20635986328125" height="26.31398296356201" transform="matrix(1,0,0,1,-34.6,-13.2)"></rect><text id="v-3520" font-size="19px" y="0.8em" xml:space="preserve" text-anchor="middle" pointer-events="none" fill="#000000" font-family="Open Sans" font-weight="normal" transform="matrix(1,0,0,1,0,-7.7)"><tspan id="v-3522"  dy="0em" x="0">[HTTPS]</tspan></text></g><g  id="v-3523" label-idx="2" cursor="move" transform="translate(731, 1000.2)" style="opacity: 1;"><rect id="v-3525" fill="#ffffff" rx="3" ry="3" pointer-events="none"  display="none" width="0" height="0" transform="matrix(1,0,0,1,0,0)"></rect><text id="v-3524" font-size="19px" y="0.8em" display="none" xml:space="preserve" text-anchor="middle" pointer-events="none" fill="#000000" font-family="Open Sans" font-weight="normal"  transform="matrix(1,0,0,1,0,0)"><tspan id="v-3526"  dy="0em" x="0" style="fill-opacity: 0; stroke-opacity: 0;">-</tspan></text></g></g><g  display="none"></g><g  id="v-3531" display="none"><g  id="v-3512"><path  end="source" d="M 26 0 L 0 13 L 26 26 z"></path></g><g  id="v-3513"><path  end="target" d="M 26 0 L 0 13 L 26 26 z"></path></g></g><g  id="v-3530" display="none"><g  id="v-3511" transform="translate(748.6264038085938, 784.7601318359375) "><g  event="remove"><circle r="11"></circle><path transform="scale(.8) translate(-16, -16)" d="M24.778,21.419 19.276,15.917 24.777,10.415 21.949,7.585 16.447,13.087 10.945,7.585 8.117,10.415 13.618,15.917 8.116,21.419 10.946,24.248 16.447,18.746 21.948,24.248z"></path><title>Remove link.</title></g><g  event="link:options"><circle r="11" transform="translate(25)"></circle><path fill="white" transform="scale(.55) translate(29, -16)" d="M31.229,17.736c0.064-0.571,0.104-1.148,0.104-1.736s-0.04-1.166-0.104-1.737l-4.377-1.557c-0.218-0.716-0.504-1.401-0.851-2.05l1.993-4.192c-0.725-0.91-1.549-1.734-2.458-2.459l-4.193,1.994c-0.647-0.347-1.334-0.632-2.049-0.849l-1.558-4.378C17.165,0.708,16.588,0.667,16,0.667s-1.166,0.041-1.737,0.105L12.707,5.15c-0.716,0.217-1.401,0.502-2.05,0.849L6.464,4.005C5.554,4.73,4.73,5.554,4.005,6.464l1.994,4.192c-0.347,0.648-0.632,1.334-0.849,2.05l-4.378,1.557C0.708,14.834,0.667,15.412,0.667,16s0.041,1.165,0.105,1.736l4.378,1.558c0.217,0.715,0.502,1.401,0.849,2.049l-1.994,4.193c0.725,0.909,1.549,1.733,2.459,2.458l4.192-1.993c0.648,0.347,1.334,0.633,2.05,0.851l1.557,4.377c0.571,0.064,1.148,0.104,1.737,0.104c0.588,0,1.165-0.04,1.736-0.104l1.558-4.377c0.715-0.218,1.399-0.504,2.049-0.851l4.193,1.993c0.909-0.725,1.733-1.549,2.458-2.458l-1.993-4.193c0.347-0.647,0.633-1.334,0.851-2.049L31.229,17.736zM16,20.871c-2.69,0-4.872-2.182-4.872-4.871c0-2.69,2.182-4.872,4.872-4.872c2.689,0,4.871,2.182,4.871,4.872C20.871,18.689,18.689,20.871,16,20.871z"></path><title>Link options.</title></g></g></g></g><g id="j_202"   ><path  stroke="#000000" id="v-3554" stroke-width="2" stroke-dasharray="30 30" fill="none" d="M 1270 742 856 1151" style="opacity: 1;"></path><path  fill="black" stroke="black" transform="translate(1270,742) scale(1,1) rotate(-224.66336059570312)"></path><path  fill="#000000" stroke="#000000" id="v-3556" d="M 20 0 L 0 10 L 20 20 z" transform="translate(834.9705962640473,1157.887490837328) scale(1,1) rotate(-44.66336441040039)" style="opacity: 1;"></path><path  id="v-3555" fill="none" d="M 1270 742 856 1151"></path><title ></title><g ><g  id="v-3539" label-idx="0" cursor="move" transform="translate(1063, 946.5)" style="opacity: 1;"><rect id="v-3541" fill="#ffffff" rx="3" ry="3" stroke="#ffffff" stroke-width="20px" pointer-events="none" width="139.6021270751953" height="118.35269165039062" transform="matrix(1,0,0,1,-69.8,-59.2)"></rect><text id="v-3540" font-size="24px" y="0.8em" xml:space="preserve" text-anchor="middle" pointer-events="none" fill="#000000" font-family="Open Sans" font-weight="normal" transform="matrix(1,0,0,1,0,-53)"><tspan id="v-3542"  dy="0em" x="0">autentica ou</tspan><tspan id="v-3543"  dy="1.2em" x="0">indica que</tspan><tspan id="v-3544"  dy="1.2em" x="0">esqueceu a</tspan><tspan id="v-3545"  dy="1.2em" x="0">senha</tspan></text></g><g  id="v-3546" label-idx="1" cursor="move" transform="translate(1063, 1016.1)" style="opacity: 1;"><rect id="v-3548" fill="#ffffff" rx="3" ry="3" pointer-events="none" width="69.20635986328125" height="26.31398296356201" transform="matrix(1,0,0,1,-34.6,-13.2)"></rect><text id="v-3547" font-size="19px" y="0.8em" xml:space="preserve" text-anchor="middle" pointer-events="none" fill="#000000" font-family="Open Sans" font-weight="normal" transform="matrix(1,0,0,1,0,-7.7)"><tspan id="v-3549"  dy="0em" x="0">[HTTPS]</tspan></text></g><g  id="v-3550" label-idx="2" cursor="move" transform="translate(1063, 1040.1)" style="opacity: 1;"><rect id="v-3552" fill="#ffffff" rx="3" ry="3" pointer-events="none"  display="none" width="0" height="0" transform="matrix(1,0,0,1,0,0)"></rect><text id="v-3551" font-size="19px" y="0.8em" display="none" xml:space="preserve" text-anchor="middle" pointer-events="none" fill="#000000" font-family="Open Sans" font-weight="normal"  transform="matrix(1,0,0,1,0,0)"><tspan id="v-3553"  dy="0em" x="0" style="fill-opacity: 0; stroke-opacity: 0;">-</tspan></text></g></g><g  display="none"></g><g  id="v-3558" display="none"><g  id="v-3536"><path  end="source" d="M 26 0 L 0 13 L 26 26 z"></path></g><g  id="v-3537"><path  end="target" d="M 26 0 L 0 13 L 26 26 z"></path></g></g><g  id="v-3557" display="none"><g  id="v-3535" transform="translate(1241.5443115234375, 770.1118774414062) "><g  event="remove"><circle r="11"></circle><path transform="scale(.8) translate(-16, -16)" d="M24.778,21.419 19.276,15.917 24.777,10.415 21.949,7.585 16.447,13.087 10.945,7.585 8.117,10.415 13.618,15.917 8.116,21.419 10.946,24.248 16.447,18.746 21.948,24.248z"></path><title>Remove link.</title></g><g  event="link:options"><circle r="11" transform="translate(25)"></circle><path fill="white" transform="scale(.55) translate(29, -16)" d="M31.229,17.736c0.064-0.571,0.104-1.148,0.104-1.736s-0.04-1.166-0.104-1.737l-4.377-1.557c-0.218-0.716-0.504-1.401-0.851-2.05l1.993-4.192c-0.725-0.91-1.549-1.734-2.458-2.459l-4.193,1.994c-0.647-0.347-1.334-0.632-2.049-0.849l-1.558-4.378C17.165,0.708,16.588,0.667,16,0.667s-1.166,0.041-1.737,0.105L12.707,5.15c-0.716,0.217-1.401,0.502-2.05,0.849L6.464,4.005C5.554,4.73,4.73,5.554,4.005,6.464l1.994,4.192c-0.347,0.648-0.632,1.334-0.849,2.05l-4.378,1.557C0.708,14.834,0.667,15.412,0.667,16s0.041,1.165,0.105,1.736l4.378,1.558c0.217,0.715,0.502,1.401,0.849,2.049l-1.994,4.193c0.725,0.909,1.549,1.733,2.459,2.458l4.192-1.993c0.648,0.347,1.334,0.633,2.05,0.851l1.557,4.377c0.571,0.064,1.148,0.104,1.737,0.104c0.588,0,1.165-0.04,1.736-0.104l1.558-4.377c0.715-0.218,1.399-0.504,2.049-0.851l4.193,1.993c0.909-0.725,1.733-1.549,2.458-2.458l-1.993-4.193c0.347-0.647,0.633-1.334,0.851-2.049L31.229,17.736zM16,20.871c-2.69,0-4.872-2.182-4.872-4.871c0-2.69,2.182-4.872,4.872-4.872c2.689,0,4.871,2.182,4.871,4.872C20.871,18.689,18.689,20.871,16,20.871z"></path><title>Link options.</title></g></g></g></g><g id="j_203"   ><path  stroke="#000000" id="v-3576" stroke-width="2" stroke-dasharray="30 30" fill="none" d="M 342 745 588 1148" style="opacity: 1;"></path><path  fill="black" stroke="black" transform="translate(342,745) scale(1,1) rotate(58.636688232421875)"></path><path  fill="#000000" stroke="#000000" id="v-3578" d="M 20 0 L 0 10 L 20 20 z" transform="translate(589.4611345900258,1170.2046533075952) scale(1,1) rotate(-121.3633041381836)" style="opacity: 1;"></path><path  id="v-3577" fill="none" d="M 342 745 588 1148"></path><title ></title><g ><g  id="v-3564" label-idx="0" cursor="move" transform="translate(465, 946.5)" style="opacity: 1;"><rect id="v-3566" fill="#ffffff" rx="3" ry="3" stroke="#ffffff" stroke-width="20px" pointer-events="none" width="98.10475158691406" height="31.952691078186035" transform="matrix(1,0,0,1,-49.1,-16)"></rect><text id="v-3565" font-size="24px" y="0.8em" xml:space="preserve" text-anchor="middle" pointer-events="none" fill="#000000" font-family="Open Sans" font-weight="normal" transform="matrix(1,0,0,1,0,-9.8)"><tspan id="v-3567"  dy="0em" x="0">requisita</tspan></text></g><g  id="v-3568" label-idx="1" cursor="move" transform="translate(465, 977.7)" style="opacity: 1;"><rect id="v-3570" fill="#ffffff" rx="3" ry="3" pointer-events="none" width="69.20635986328125" height="26.31398296356201" transform="matrix(1,0,0,1,-34.6,-13.2)"></rect><text id="v-3569" font-size="19px" y="0.8em" xml:space="preserve" text-anchor="middle" pointer-events="none" fill="#000000" font-family="Open Sans" font-weight="normal" transform="matrix(1,0,0,1,0,-7.7)"><tspan id="v-3571"  dy="0em" x="0">[HTTPS]</tspan></text></g><g  id="v-3572" label-idx="2" cursor="move" transform="translate(465, 1001.7)" style="opacity: 1;"><rect id="v-3574" fill="#ffffff" rx="3" ry="3" pointer-events="none"  display="none" width="0" height="0" transform="matrix(1,0,0,1,0,0)"></rect><text id="v-3573" font-size="19px" y="0.8em" display="none" xml:space="preserve" text-anchor="middle" pointer-events="none" fill="#000000" font-family="Open Sans" font-weight="normal"  transform="matrix(1,0,0,1,0,0)"><tspan id="v-3575"  dy="0em" x="0" style="fill-opacity: 0; stroke-opacity: 0;">-</tspan></text></g></g><g  display="none"></g><g  id="v-3580" display="none"><g  id="v-3561"><path  end="source" d="M 26 0 L 0 13 L 26 26 z"></path></g><g  id="v-3562"><path  end="target" d="M 26 0 L 0 13 L 26 26 z"></path></g></g><g  id="v-3579" display="none"><g  id="v-3560" transform="translate(362.8408508300781, 779.1417236328125) "><g  event="remove"><circle r="11"></circle><path transform="scale(.8) translate(-16, -16)" d="M24.778,21.419 19.276,15.917 24.777,10.415 21.949,7.585 16.447,13.087 10.945,7.585 8.117,10.415 13.618,15.917 8.116,21.419 10.946,24.248 16.447,18.746 21.948,24.248z"></path><title>Remove link.</title></g><g  event="link:options"><circle r="11" transform="translate(25)"></circle><path fill="white" transform="scale(.55) translate(29, -16)" d="M31.229,17.736c0.064-0.571,0.104-1.148,0.104-1.736s-0.04-1.166-0.104-1.737l-4.377-1.557c-0.218-0.716-0.504-1.401-0.851-2.05l1.993-4.192c-0.725-0.91-1.549-1.734-2.458-2.459l-4.193,1.994c-0.647-0.347-1.334-0.632-2.049-0.849l-1.558-4.378C17.165,0.708,16.588,0.667,16,0.667s-1.166,0.041-1.737,0.105L12.707,5.15c-0.716,0.217-1.401,0.502-2.05,0.849L6.464,4.005C5.554,4.73,4.73,5.554,4.005,6.464l1.994,4.192c-0.347,0.648-0.632,1.334-0.849,2.05l-4.378,1.557C0.708,14.834,0.667,15.412,0.667,16s0.041,1.165,0.105,1.736l4.378,1.558c0.217,0.715,0.502,1.401,0.849,2.049l-1.994,4.193c0.725,0.909,1.549,1.733,2.459,2.458l4.192-1.993c0.648,0.347,1.334,0.633,2.05,0.851l1.557,4.377c0.571,0.064,1.148,0.104,1.737,0.104c0.588,0,1.165-0.04,1.736-0.104l1.558-4.377c0.715-0.218,1.399-0.504,2.049-0.851l4.193,1.993c0.909-0.725,1.733-1.549,2.458-2.458l-1.993-4.193c0.347-0.647,0.633-1.334,0.851-2.049L31.229,17.736zM16,20.871c-2.69,0-4.872-2.182-4.872-4.871c0-2.69,2.182-4.872,4.872-4.872c2.689,0,4.871,2.182,4.871,4.872C20.871,18.689,18.689,20.871,16,20.871z"></path><title>Link options.</title></g></g></g></g><g id="j_204"   ><path  stroke="#000000" id="v-3602" stroke-width="2" stroke-dasharray="30 30" fill="none" d="M 1472 745 1474 960" style="opacity: 1;"></path><path  fill="black" stroke="black" transform="translate(1472,745) scale(1,1) rotate(89.51239013671875)"></path><path  fill="#000000" stroke="#000000" id="v-3604" d="M 20 0 L 0 10 L 20 20 z" transform="translate(1464.0003820728325,980.0851070272843) scale(1,1) rotate(-90.48760986328125)" style="opacity: 1;"></path><path  id="v-3603" fill="none" d="M 1472 745 1474 960"></path><title ></title><g ><g  id="v-3588" label-idx="0" cursor="move" transform="translate(1473, 852.5)" style="opacity: 1;"><rect id="v-3590" fill="#ffffff" rx="3" ry="3" stroke="#ffffff" stroke-width="20px" pointer-events="none" width="184.1685028076172" height="89.55269622802734" transform="matrix(1,0,0,1,-92.1,-44.8)"></rect><text id="v-3589" font-size="24px" y="0.8em" xml:space="preserve" text-anchor="middle" pointer-events="none" fill="#000000" font-family="Open Sans" font-weight="normal" transform="matrix(1,0,0,1,0,-38.6)"><tspan id="v-3591"  dy="0em" x="0">Recebe link</tspan><tspan id="v-3592"  dy="1.2em" x="0">temporário para</tspan><tspan id="v-3593"  dy="1.2em" x="0">resetar a senha</tspan></text></g><g  id="v-3594" label-idx="1" cursor="move" transform="translate(1473, 910.1)" style="opacity: 1;"><rect id="v-3596" fill="#ffffff" rx="3" ry="3" pointer-events="none" width="113.69931030273438" height="26.31398296356201" transform="matrix(1,0,0,1,-56.8,-13.2)"></rect><text id="v-3595" font-size="19px" y="0.8em" xml:space="preserve" text-anchor="middle" pointer-events="none" fill="#000000" font-family="Open Sans" font-weight="normal" transform="matrix(1,0,0,1,0,-7.7)"><tspan id="v-3597"  dy="0em" x="0">[POP3/IMAP]</tspan></text></g><g  id="v-3598" label-idx="2" cursor="move" transform="translate(1473, 934.1)" style="opacity: 1;"><rect id="v-3600" fill="#ffffff" rx="3" ry="3" pointer-events="none"  display="none" width="0" height="0" transform="matrix(1,0,0,1,0,0)"></rect><text id="v-3599" font-size="19px" y="0.8em" display="none" xml:space="preserve" text-anchor="middle" pointer-events="none" fill="#000000" font-family="Open Sans" font-weight="normal"  transform="matrix(1,0,0,1,0,0)"><tspan id="v-3601"  dy="0em" x="0" style="fill-opacity: 0; stroke-opacity: 0;">-</tspan></text></g></g><g  display="none"></g><g  id="v-3606" display="none"><g  id="v-3585"><path  end="source" d="M 26 0 L 0 13 L 26 26 z"></path></g><g  id="v-3586"><path  end="target" d="M 26 0 L 0 13 L 26 26 z"></path></g></g><g  id="v-3605" display="none"><g  id="v-3584" transform="translate(1472.3720703125, 784.998291015625) "><g  event="remove"><circle r="11"></circle><path transform="scale(.8) translate(-16, -16)" d="M24.778,21.419 19.276,15.917 24.777,10.415 21.949,7.585 16.447,13.087 10.945,7.585 8.117,10.415 13.618,15.917 8.116,21.419 10.946,24.248 16.447,18.746 21.948,24.248z"></path><title>Remove link.</title></g><g  event="link:options"><circle r="11" transform="translate(25)"></circle><path fill="white" transform="scale(.55) translate(29, -16)" d="M31.229,17.736c0.064-0.571,0.104-1.148,0.104-1.736s-0.04-1.166-0.104-1.737l-4.377-1.557c-0.218-0.716-0.504-1.401-0.851-2.05l1.993-4.192c-0.725-0.91-1.549-1.734-2.458-2.459l-4.193,1.994c-0.647-0.347-1.334-0.632-2.049-0.849l-1.558-4.378C17.165,0.708,16.588,0.667,16,0.667s-1.166,0.041-1.737,0.105L12.707,5.15c-0.716,0.217-1.401,0.502-2.05,0.849L6.464,4.005C5.554,4.73,4.73,5.554,4.005,6.464l1.994,4.192c-0.347,0.648-0.632,1.334-0.849,2.05l-4.378,1.557C0.708,14.834,0.667,15.412,0.667,16s0.041,1.165,0.105,1.736l4.378,1.558c0.217,0.715,0.502,1.401,0.849,2.049l-1.994,4.193c0.725,0.909,1.549,1.733,2.459,2.458l4.192-1.993c0.648,0.347,1.334,0.633,2.05,0.851l1.557,4.377c0.571,0.064,1.148,0.104,1.737,0.104c0.588,0,1.165-0.04,1.736-0.104l1.558-4.377c0.715-0.218,1.399-0.504,2.049-0.851l4.193,1.993c0.909-0.725,1.733-1.549,2.458-2.458l-1.993-4.193c0.347-0.647,0.633-1.334,0.851-2.049L31.229,17.736zM16,20.871c-2.69,0-4.872-2.182-4.872-4.871c0-2.69,2.182-4.872,4.872-4.872c2.689,0,4.871,2.182,4.871,4.872C20.871,18.689,18.689,20.871,16,20.871z"></path><title>Link options.</title></g></g></g></g><g id="j_205"   ><path  stroke="#000000" id="v-3628" stroke-width="2" stroke-dasharray="30 30" fill="none" d="M 915 1262 1231 1188" style="opacity: 1;"></path><path  fill="black" stroke="black" transform="translate(915,1262) scale(1,1) rotate(-13.269115447998047)"></path><path  fill="#000000" stroke="#000000" id="v-3630" d="M 20 0 L 0 10 L 20 20 z" transform="translate(1252.2952468785331,1192.733063409912) scale(1,1) rotate(-193.2691192626953)" style="opacity: 1;"></path><path  id="v-3629" fill="none" d="M 915 1262 1231 1188"></path><title ></title><g ><g  id="v-3614" label-idx="0" cursor="move" transform="translate(1073, 1225)" style="opacity: 1;"><rect id="v-3616" fill="#ffffff" rx="3" ry="3" stroke="#ffffff" stroke-width="20px" pointer-events="none" width="189.01426696777344" height="89.55269622802734" transform="matrix(1,0,0,1,-94.5,-44.8)"></rect><text id="v-3615" font-size="24px" y="0.8em" xml:space="preserve" text-anchor="middle" pointer-events="none" fill="#000000" font-family="Open Sans" font-weight="normal" transform="matrix(1,0,0,1,0,-38.6)"><tspan id="v-3617"  dy="0em" x="0">envia e-mail com</tspan><tspan id="v-3618"  dy="1.2em" x="0">autenticação</tspan><tspan id="v-3619"  dy="1.2em" x="0">temporária</tspan></text></g><g  id="v-3620" label-idx="1" cursor="move" transform="translate(1073, 1282.6)" style="opacity: 1;"><rect id="v-3622" fill="#ffffff" rx="3" ry="3" pointer-events="none" width="61.82023620605469" height="26.31398296356201" transform="matrix(1,0,0,1,-30.9,-13.2)"></rect><text id="v-3621" font-size="19px" y="0.8em" xml:space="preserve" text-anchor="middle" pointer-events="none" fill="#000000" font-family="Open Sans" font-weight="normal" transform="matrix(1,0,0,1,0,-7.7)"><tspan id="v-3623"  dy="0em" x="0">[SMTP]</tspan></text></g><g  id="v-3624" label-idx="2" cursor="move" transform="translate(1073, 1306.6)" style="opacity: 1;"><rect id="v-3626" fill="#ffffff" rx="3" ry="3" pointer-events="none"  display="none" width="0" height="0" transform="matrix(1,0,0,1,0,0)"></rect><text id="v-3625" font-size="19px" y="0.8em" display="none" xml:space="preserve" text-anchor="middle" pointer-events="none" fill="#000000" font-family="Open Sans" font-weight="normal"  transform="matrix(1,0,0,1,0,0)"><tspan id="v-3627"  dy="0em" x="0" style="fill-opacity: 0; stroke-opacity: 0;">-</tspan></text></g></g><g  display="none"></g><g  id="v-3632" display="none"><g  id="v-3611"><path  end="source" d="M 26 0 L 0 13 L 26 26 z"></path></g><g  id="v-3612"><path  end="target" d="M 26 0 L 0 13 L 26 26 z"></path></g></g><g  id="v-3631" display="none"><g  id="v-3610" transform="translate(953.9463500976562, 1252.879638671875) "><g  event="remove"><circle r="11"></circle><path transform="scale(.8) translate(-16, -16)" d="M24.778,21.419 19.276,15.917 24.777,10.415 21.949,7.585 16.447,13.087 10.945,7.585 8.117,10.415 13.618,15.917 8.116,21.419 10.946,24.248 16.447,18.746 21.948,24.248z"></path><title>Remove link.</title></g><g  event="link:options"><circle r="11" transform="translate(25)"></circle><path fill="white" transform="scale(.55) translate(29, -16)" d="M31.229,17.736c0.064-0.571,0.104-1.148,0.104-1.736s-0.04-1.166-0.104-1.737l-4.377-1.557c-0.218-0.716-0.504-1.401-0.851-2.05l1.993-4.192c-0.725-0.91-1.549-1.734-2.458-2.459l-4.193,1.994c-0.647-0.347-1.334-0.632-2.049-0.849l-1.558-4.378C17.165,0.708,16.588,0.667,16,0.667s-1.166,0.041-1.737,0.105L12.707,5.15c-0.716,0.217-1.401,0.502-2.05,0.849L6.464,4.005C5.554,4.73,4.73,5.554,4.005,6.464l1.994,4.192c-0.347,0.648-0.632,1.334-0.849,2.05l-4.378,1.557C0.708,14.834,0.667,15.412,0.667,16s0.041,1.165,0.105,1.736l4.378,1.558c0.217,0.715,0.502,1.401,0.849,2.049l-1.994,4.193c0.725,0.909,1.549,1.733,2.459,2.458l4.192-1.993c0.648,0.347,1.334,0.633,2.05,0.851l1.557,4.377c0.571,0.064,1.148,0.104,1.737,0.104c0.588,0,1.165-0.04,1.736-0.104l1.558-4.377c0.715-0.218,1.399-0.504,2.049-0.851l4.193,1.993c0.909-0.725,1.733-1.549,2.458-2.458l-1.993-4.193c0.347-0.647,0.633-1.334,0.851-2.049L31.229,17.736zM16,20.871c-2.69,0-4.872-2.182-4.872-4.871c0-2.69,2.182-4.872,4.872-4.872c2.689,0,4.871,2.182,4.871,4.872C20.871,18.689,18.689,20.871,16,20.871z"></path><title>Link options.</title></g></g></g></g></g><defs id="v-4"></defs></svg>