<svg xmlns="http://www.w3.org/2000/svg" xmlns:xlink="http://www.w3.org/1999/xlink" version="1.1" viewBox="0 0 2480 1748" style="background: #ffffff"><g id="v-3"  transform="matrix(1,0,0,1,0,0)"><g id="j_362"    transform="translate(20,1703)"><g id="v-6316"><text  id="v-6317" font-size="22px" y="0.8em" xml:space="preserve" font-weight="normal" text-anchor="start" fill="#aaaaaa" pointer-events="none" font-family="Open Sans" transform="matrix(1,0,0,1,0,0)" display="block"><tspan id="v-6318"  dy="0em" x="0">quinta-feira, 24 de fevereiro de 2022 21:57 Horário Padrão de Brasília</tspan></text></g></g><g id="j_361"    transform="translate(20,1674)"><g id="v-6312"><text  id="v-6313" font-size="22px" y="0.8em" xml:space="preserve" font-weight="normal" text-anchor="start" fill="#aaaaaa" pointer-events="none" font-family="Open Sans" transform="matrix(1,0,0,1,0,0)" display="block"><tspan id="v-6314"  dy="0em" x="0">C4 - Level 1</tspan></text></g></g><g id="j_360"    transform="translate(20,1628)"><g id="v-6308"><text  id="v-6309" font-size="36px" y="0.8em" xml:space="preserve" font-weight="normal" text-anchor="start" fill="#000000" pointer-events="none" font-family="Open Sans" transform="matrix(1,0,0,1,0,0)" display="block"><tspan id="v-6310"  dy="0em" x="0">[System Context] Controle Financeiro Pessoal</tspan></text></g></g><g id="j_353"    transform="translate(445,1145)" style=""><g id="v-6150"><rect  id="v-6151" width="490" height="413" rx="0" ry="0" fill="#ffffff" stroke="#444444" stroke-width="2" stroke-dasharray="20,20" pointer-events="none"></rect><text  id="v-6152" font-size="24px" y="374" xml:space="preserve" font-weight="normal" fill="#444444" x="10" text-anchor="start" pointer-events="visible" font-family="Open Sans" transform="matrix(1,0,0,1,15,0)"><tspan id="v-6154"  dy="0em" x="0">CFP</tspan></text><text  id="v-6153" font-size="19px" y="398" xml:space="preserve" font-weight="normal" fill="#444444" x="10" text-anchor="start" pointer-events="visible" font-family="Open Sans" transform="matrix(1,0,0,1,15,0)"><tspan id="v-6155"  dy="0em" x="0">[Enterprise]</tspan></text></g></g><g id="j_347"    transform="translate(20,345)" style=""><g  id="v-6050" style="opacity: 1;"><rect  x="0" y="160" width="400" height="240" rx="70" id="v-6052" stroke="#073b6f" stroke-width="2" pointer-events="visiblePainted" fill="#08427b"></rect><circle  cx="200" cy="88.88888888888889" r="88.88888888888889" id="v-6051" stroke="#073b6f" stroke-width="2" pointer-events="visiblePainted" fill="#08427b"></circle><line  x1="80" y1="266.6666666666667" x2="80" y2="400" style="stroke-width:2px" id="v-6058" stroke="#073b6f"></line><line  x1="320" y1="266.6666666666667" x2="320" y2="400" style="stroke-width:2px" id="v-6059" stroke="#073b6f"></line><text  id="v-6053" font-size="34px" y="0.8em" xml:space="preserve" font-weight="bold" text-anchor="middle" pointer-events="visible" font-family="Open Sans" fill="#ffffff" transform="matrix(1,0,0,1,200,205)"><tspan id="v-6060"  dy="0em" x="0">Usuário anônimo</tspan></text><text  id="v-6054" font-size="19px" y="0.8em" xml:space="preserve" text-anchor="middle" font-family="Open Sans" fill="#ffffff" transform="matrix(1,0,0,1,200,247.5)"><tspan id="v-6061"  dy="0em" x="0">[Person]</tspan></text><text  id="v-6055" font-size="24px" y="0.8em" xml:space="preserve" text-anchor="middle" font-family="Open Sans" fill="#ffffff" transform="matrix(1,0,0,1,200,295)"><tspan id="v-6062"  dy="0em" x="0">Qualquer pessoa acessando a</tspan><tspan id="v-6063"  dy="1.2em" x="0">Internet</tspan></text><text  id="v-6056" font-weight="bold" text-anchor="middle" font-family="Open Sans" fill="#ffffff" font-size="24" transform="matrix(1,0,0,1,200,371.2)" display="none"></text><image  id="v-6057"></image></g></g><g id="j_348"    transform="translate(1270,345)" style=""><g  id="v-6069" style="opacity: 1;"><rect  x="0" y="160" width="400" height="240" rx="70" id="v-6071" stroke="#073b6f" stroke-width="2" pointer-events="visiblePainted" fill="#08427b"></rect><circle  cx="200" cy="88.88888888888889" r="88.88888888888889" id="v-6070" stroke="#073b6f" stroke-width="2" pointer-events="visiblePainted" fill="#08427b"></circle><line  x1="80" y1="266.6666666666667" x2="80" y2="400" style="stroke-width:2px" id="v-6077" stroke="#073b6f"></line><line  x1="320" y1="266.6666666666667" x2="320" y2="400" style="stroke-width:2px" id="v-6078" stroke="#073b6f"></line><text  id="v-6072" font-size="34px" y="0.8em" xml:space="preserve" font-weight="bold" text-anchor="middle" pointer-events="visible" font-family="Open Sans" fill="#ffffff" transform="matrix(1,0,0,1,200,190)"><tspan id="v-6079"  dy="0em" x="0">Usuário Registrado</tspan></text><text  id="v-6073" font-size="19px" y="0.8em" xml:space="preserve" text-anchor="middle" font-family="Open Sans" fill="#ffffff" transform="matrix(1,0,0,1,200,232.5)"><tspan id="v-6080"  dy="0em" x="0">[Person]</tspan></text><text  id="v-6074" font-size="24px" y="0.8em" xml:space="preserve" text-anchor="middle" font-family="Open Sans" fill="#ffffff" transform="matrix(1,0,0,1,200,280)"><tspan id="v-6081"  dy="0em" x="0">Usuário cadastrado com</tspan><tspan id="v-6082"  dy="1.2em" x="0">endereço de e-mail mas ainda</tspan><tspan id="v-6083"  dy="1.2em" x="0">não autenticado</tspan></text><text  id="v-6075" font-weight="bold" text-anchor="middle" font-family="Open Sans" fill="#ffffff" font-size="24" transform="matrix(1,0,0,1,200,371.2)" display="none"></text><image  id="v-6076"></image></g></g><g id="j_349"    transform="translate(575,345)" style=""><g  id="v-6089" style="opacity: 1;"><rect  x="0" y="160" width="400" height="240" rx="70" id="v-6091" stroke="#073b6f" stroke-width="2" pointer-events="visiblePainted" fill="#08427b"></rect><circle  cx="200" cy="88.88888888888889" r="88.88888888888889" id="v-6090" stroke="#073b6f" stroke-width="2" pointer-events="visiblePainted" fill="#08427b"></circle><line  x1="80" y1="266.6666666666667" x2="80" y2="400" style="stroke-width:2px" id="v-6097" stroke="#073b6f"></line><line  x1="320" y1="266.6666666666667" x2="320" y2="400" style="stroke-width:2px" id="v-6098" stroke="#073b6f"></line><text  id="v-6092" font-size="34px" y="0.8em" xml:space="preserve" font-weight="bold" text-anchor="middle" pointer-events="visible" font-family="Open Sans" fill="#ffffff" transform="matrix(1,0,0,1,200,205)"><tspan id="v-6099"  dy="0em" x="0">Usuário Autenticado</tspan></text><text  id="v-6093" font-size="19px" y="0.8em" xml:space="preserve" text-anchor="middle" font-family="Open Sans" fill="#ffffff" transform="matrix(1,0,0,1,200,247.5)"><tspan id="v-6100"  dy="0em" x="0">[Person]</tspan></text><text  id="v-6094" font-size="24px" y="0.8em" xml:space="preserve" text-anchor="middle" font-family="Open Sans" fill="#ffffff" transform="matrix(1,0,0,1,200,295)"><tspan id="v-6101"  dy="0em" x="0">Usuário autenticado pelo</tspan><tspan id="v-6102"  dy="1.2em" x="0">sistema</tspan></text><text  id="v-6095" font-weight="bold" text-anchor="middle" font-family="Open Sans" fill="#ffffff" font-size="24" transform="matrix(1,0,0,1,200,371.2)" display="none"></text><image  id="v-6096"></image></g></g><g id="j_350"    transform="translate(1250,1360)" style="" ><g  id="v-6106" style="opacity: 1;"><rect  id="v-6107" rx="20" ry="20" stroke="#c7c7c7" stroke-width="2" pointer-events="visiblePainted" fill="#dddddd" width="450" height="300"></rect><text  id="v-6108" font-size="34" y="0.8em" xml:space="preserve" font-weight="bold" text-anchor="middle" pointer-events="visible" font-family="Open Sans" fill="#000000" transform="matrix(1,0,0,1,225,90)"><tspan id="v-6113"  dy="0em" x="0">Google</tspan></text><text  id="v-6109" font-size="19" y="0.8em" xml:space="preserve" text-anchor="middle" font-family="Open Sans" fill="#000000" transform="matrix(1,0,0,1,225,132.5)"><tspan id="v-6114"  dy="0em" x="0">[Software System]</tspan></text><text  id="v-6110" font-size="24" y="0.8em" xml:space="preserve" text-anchor="middle" font-family="Open Sans" fill="#000000" transform="matrix(1,0,0,1,225,180)"><tspan id="v-6115"  dy="0em" x="0">Serviço de autenticação do Google</tspan></text><text  id="v-6111" font-weight="bold" text-anchor="middle" font-family="Open Sans" fill="#000000" font-size="24" transform="matrix(1,0,0,1,225,270)" y="0.8em" display="none" xml:space="preserve"><tspan id="v-6116"  dy="0em" x="0" style="fill-opacity: 0; stroke-opacity: 0;">-</tspan></text><image  id="v-6112"></image></g></g><g id="j_351"    transform="translate(1250,980)" style="" ><g  id="v-6120" style="opacity: 1;"><rect  id="v-6121" rx="20" ry="20" stroke="#c7c7c7" stroke-width="2" pointer-events="visiblePainted" fill="#dddddd" width="450" height="300"></rect><text  id="v-6122" font-size="34" y="0.8em" xml:space="preserve" font-weight="bold" text-anchor="middle" pointer-events="visible" font-family="Open Sans" fill="#000000" transform="matrix(1,0,0,1,225,90)"><tspan id="v-6127"  dy="0em" x="0">Sistema de email</tspan></text><text  id="v-6123" font-size="19" y="0.8em" xml:space="preserve" text-anchor="middle" font-family="Open Sans" fill="#000000" transform="matrix(1,0,0,1,225,132.5)"><tspan id="v-6128"  dy="0em" x="0">[Software System]</tspan></text><text  id="v-6124" font-size="24" y="0.8em" xml:space="preserve" text-anchor="middle" font-family="Open Sans" fill="#000000" transform="matrix(1,0,0,1,225,180)"><tspan id="v-6129"  dy="0em" x="0">Serviço de correio eletrônico</tspan></text><text  id="v-6125" font-weight="bold" text-anchor="middle" font-family="Open Sans" fill="#000000" font-size="24" transform="matrix(1,0,0,1,225,270)" y="0.8em" display="none" xml:space="preserve"><tspan id="v-6130"  dy="0em" x="0" style="fill-opacity: 0; stroke-opacity: 0;">-</tspan></text><image  id="v-6126"></image></g></g><g id="j_352"    transform="translate(465,1165)" style="" ><g  id="v-6136" style="opacity: 1;"><rect  id="v-6137" rx="20" ry="20" stroke="#0f5eaa" stroke-width="2" pointer-events="visiblePainted" fill="#1168bd" width="450" height="300"></rect><text  id="v-6138" font-size="34" y="0.8em" xml:space="preserve" font-weight="bold" text-anchor="middle" pointer-events="visible" font-family="Open Sans" fill="#ffffff" transform="matrix(1,0,0,1,225,38.8)"><tspan id="v-6143"  dy="0em" x="0">Controle Financeiro</tspan><tspan id="v-6144"  dy="1.2em" x="0">Pessoal</tspan></text><text  id="v-6139" font-size="19" y="0.8em" xml:space="preserve" text-anchor="middle" font-family="Open Sans" fill="#ffffff" transform="matrix(1,0,0,1,225,123.8)"><tspan id="v-6145"  dy="0em" x="0">[Software System]</tspan></text><text  id="v-6140" font-size="24" y="0.8em" xml:space="preserve" text-anchor="middle" font-family="Open Sans" fill="#ffffff" transform="matrix(1,0,0,1,225,171.3)"><tspan id="v-6146"  dy="0em" x="0">A melhor forma de manter o</tspan><tspan id="v-6147"  dy="1.2em" x="0">controle dos gastos e planejar o</tspan><tspan id="v-6148"  dy="1.2em" x="0">futuro</tspan></text><text  id="v-6141" font-weight="bold" text-anchor="middle" font-family="Open Sans" fill="#ffffff" font-size="24" transform="matrix(1,0,0,1,225,270)" y="0.8em" xml:space="preserve" display="none"><tspan id="v-6156"  dy="0em" x="0">+</tspan></text><image  id="v-6142"></image></g></g><g id="j_354"   ><path  stroke="#000000" id="v-6177" stroke-width="2" stroke-dasharray="30 30" fill="none" d="M 915 1371 1231 1449" style="opacity: 1;"></path><path  fill="black" stroke="black" transform="translate(915,1371) scale(1,1) rotate(13.915466308593764)"></path><path  fill="#000000" stroke="#000000" id="v-6179" d="M 20 0 L 0 10 L 20 20 z" transform="translate(1247.595075582096,1463.706507494185) scale(1,1) rotate(-166.0845489501953)" style="opacity: 1;"></path><path  id="v-6178" fill="none" d="M 915 1371 1231 1449"></path><title ></title><g ><g  id="v-6164" label-idx="0" cursor="move" transform="translate(1073, 1410)" style="opacity: 1;"><rect id="v-6166" fill="#ffffff" rx="3" ry="3" stroke="#ffffff" stroke-width="20px" pointer-events="none" width="113.0273208618164" height="61.14315414428711" transform="matrix(1,0,0,1,-56.5,-30.6)"></rect><text id="v-6165" font-size="24px" y="0.8em" xml:space="preserve" text-anchor="middle" pointer-events="none" fill="#000000" font-family="Open Sans" font-weight="normal" transform="matrix(1,0,0,1,0,-24.5)"><tspan id="v-6167"  dy="0em" x="0">autentica/</tspan><tspan id="v-6168"  dy="1.2em" x="0">registra</tspan></text></g><g  id="v-6169" label-idx="1" cursor="move" transform="translate(1073, 1453.2)" style="opacity: 1;"><rect id="v-6171" fill="#ffffff" rx="3" ry="3" pointer-events="none" width="69.2029800415039" height="26.27881145477295" transform="matrix(1,0,0,1,-34.6,-13.1)"></rect><text id="v-6170" font-size="19px" y="0.8em" xml:space="preserve" text-anchor="middle" pointer-events="none" fill="#000000" font-family="Open Sans" font-weight="normal" transform="matrix(1,0,0,1,0,-8.1)"><tspan id="v-6172"  dy="0em" x="0">[HTTPS]</tspan></text></g><g  id="v-6173" label-idx="2" cursor="move" transform="translate(1073, 1477.2)" style="opacity: 1;"><rect id="v-6175" fill="#ffffff" rx="3" ry="3" pointer-events="none"  display="none" width="0" height="0" transform="matrix(1,0,0,1,0,0)"></rect><text id="v-6174" font-size="19px" y="0.8em" display="none" xml:space="preserve" text-anchor="middle" pointer-events="none" fill="#000000" font-family="Open Sans" font-weight="normal"  transform="matrix(1,0,0,1,0,0)"><tspan id="v-6176"  dy="0em" x="0" style="fill-opacity: 0; stroke-opacity: 0;">-</tspan></text></g></g><g  display="none"></g><g  id="v-6181" display="none"><g  id="v-6161"><path  end="source" d="M 26 0 L 0 13 L 26 26 z"></path></g><g  id="v-6162"><path  end="target" d="M 26 0 L 0 13 L 26 26 z"></path></g></g><g  id="v-6180" display="none"><g  id="v-6160" transform="translate(953.83447265625, 1380.585693359375) "><g  event="remove"><circle r="11"></circle><path transform="scale(.8) translate(-16, -16)" d="M24.778,21.419 19.276,15.917 24.777,10.415 21.949,7.585 16.447,13.087 10.945,7.585 8.117,10.415 13.618,15.917 8.116,21.419 10.946,24.248 16.447,18.746 21.948,24.248z"></path><title>Remove link.</title></g><g  event="link:options"><circle r="11" transform="translate(25)"></circle><path fill="white" transform="scale(.55) translate(29, -16)" d="M31.229,17.736c0.064-0.571,0.104-1.148,0.104-1.736s-0.04-1.166-0.104-1.737l-4.377-1.557c-0.218-0.716-0.504-1.401-0.851-2.05l1.993-4.192c-0.725-0.91-1.549-1.734-2.458-2.459l-4.193,1.994c-0.647-0.347-1.334-0.632-2.049-0.849l-1.558-4.378C17.165,0.708,16.588,0.667,16,0.667s-1.166,0.041-1.737,0.105L12.707,5.15c-0.716,0.217-1.401,0.502-2.05,0.849L6.464,4.005C5.554,4.73,4.73,5.554,4.005,6.464l1.994,4.192c-0.347,0.648-0.632,1.334-0.849,2.05l-4.378,1.557C0.708,14.834,0.667,15.412,0.667,16s0.041,1.165,0.105,1.736l4.378,1.558c0.217,0.715,0.502,1.401,0.849,2.049l-1.994,4.193c0.725,0.909,1.549,1.733,2.459,2.458l4.192-1.993c0.648,0.347,1.334,0.633,2.05,0.851l1.557,4.377c0.571,0.064,1.148,0.104,1.737,0.104c0.588,0,1.165-0.04,1.736-0.104l1.558-4.377c0.715-0.218,1.399-0.504,2.049-0.851l4.193,1.993c0.909-0.725,1.733-1.549,2.458-2.458l-1.993-4.193c0.347-0.647,0.633-1.334,0.851-2.049L31.229,17.736zM16,20.871c-2.69,0-4.872-2.182-4.872-4.871c0-2.69,2.182-4.872,4.872-4.872c2.689,0,4.871,2.182,4.871,4.872C20.871,18.689,18.689,20.871,16,20.871z"></path><title>Link options.</title></g></g></g></g><g id="j_355"   ><path  stroke="#000000" id="v-6199" stroke-width="2" stroke-dasharray="30 30" fill="none" d="M 753 745 709 1145" style="opacity: 1;"></path><path  fill="black" stroke="black" transform="translate(753,745) scale(1,1) rotate(-263.7496643066406)"></path><path  fill="#000000" stroke="#000000" id="v-6201" d="M 20 0 L 0 10 L 20 20 z" transform="translate(697.0594599450947,1163.9112767873328) scale(1,1) rotate(-83.7496566772461)" style="opacity: 1;"></path><path  id="v-6200" fill="none" d="M 753 745 709 1145"></path><title ></title><g ><g  id="v-6187" label-idx="0" cursor="move" transform="translate(731, 945)" style="opacity: 1;"><rect id="v-6189" fill="#ffffff" rx="3" ry="3" stroke="#ffffff" stroke-width="20px" pointer-events="none" width="66.02867889404297" height="32.34315490722656" transform="matrix(1,0,0,1,-33,-16.2)"></rect><text id="v-6188" font-size="24px" y="0.8em" xml:space="preserve" text-anchor="middle" pointer-events="none" fill="#000000" font-family="Open Sans" font-weight="normal" transform="matrix(1,0,0,1,0,-10.1)"><tspan id="v-6190"  dy="0em" x="0">utiliza</tspan></text></g><g  id="v-6191" label-idx="1" cursor="move" transform="translate(731, 976.2)" style="opacity: 1;"><rect id="v-6193" fill="#ffffff" rx="3" ry="3" pointer-events="none" width="69.2029800415039" height="26.27881145477295" transform="matrix(1,0,0,1,-34.6,-13.1)"></rect><text id="v-6192" font-size="19px" y="0.8em" xml:space="preserve" text-anchor="middle" pointer-events="none" fill="#000000" font-family="Open Sans" font-weight="normal" transform="matrix(1,0,0,1,0,-8.1)"><tspan id="v-6194"  dy="0em" x="0">[HTTPS]</tspan></text></g><g  id="v-6195" label-idx="2" cursor="move" transform="translate(731, 1000.2)" style="opacity: 1;"><rect id="v-6197" fill="#ffffff" rx="3" ry="3" pointer-events="none"  display="none" width="0" height="0" transform="matrix(1,0,0,1,0,0)"></rect><text id="v-6196" font-size="19px" y="0.8em" display="none" xml:space="preserve" text-anchor="middle" pointer-events="none" fill="#000000" font-family="Open Sans" font-weight="normal"  transform="matrix(1,0,0,1,0,0)"><tspan id="v-6198"  dy="0em" x="0" style="fill-opacity: 0; stroke-opacity: 0;">-</tspan></text></g></g><g  display="none"></g><g  id="v-6203" display="none"><g  id="v-6184"><path  end="source" d="M 26 0 L 0 13 L 26 26 z"></path></g><g  id="v-6185"><path  end="target" d="M 26 0 L 0 13 L 26 26 z"></path></g></g><g  id="v-6202" display="none"><g  id="v-6183" transform="translate(748.6264038085938, 784.7601318359375) "><g  event="remove"><circle r="11"></circle><path transform="scale(.8) translate(-16, -16)" d="M24.778,21.419 19.276,15.917 24.777,10.415 21.949,7.585 16.447,13.087 10.945,7.585 8.117,10.415 13.618,15.917 8.116,21.419 10.946,24.248 16.447,18.746 21.948,24.248z"></path><title>Remove link.</title></g><g  event="link:options"><circle r="11" transform="translate(25)"></circle><path fill="white" transform="scale(.55) translate(29, -16)" d="M31.229,17.736c0.064-0.571,0.104-1.148,0.104-1.736s-0.04-1.166-0.104-1.737l-4.377-1.557c-0.218-0.716-0.504-1.401-0.851-2.05l1.993-4.192c-0.725-0.91-1.549-1.734-2.458-2.459l-4.193,1.994c-0.647-0.347-1.334-0.632-2.049-0.849l-1.558-4.378C17.165,0.708,16.588,0.667,16,0.667s-1.166,0.041-1.737,0.105L12.707,5.15c-0.716,0.217-1.401,0.502-2.05,0.849L6.464,4.005C5.554,4.73,4.73,5.554,4.005,6.464l1.994,4.192c-0.347,0.648-0.632,1.334-0.849,2.05l-4.378,1.557C0.708,14.834,0.667,15.412,0.667,16s0.041,1.165,0.105,1.736l4.378,1.558c0.217,0.715,0.502,1.401,0.849,2.049l-1.994,4.193c0.725,0.909,1.549,1.733,2.459,2.458l4.192-1.993c0.648,0.347,1.334,0.633,2.05,0.851l1.557,4.377c0.571,0.064,1.148,0.104,1.737,0.104c0.588,0,1.165-0.04,1.736-0.104l1.558-4.377c0.715-0.218,1.399-0.504,2.049-0.851l4.193,1.993c0.909-0.725,1.733-1.549,2.458-2.458l-1.993-4.193c0.347-0.647,0.633-1.334,0.851-2.049L31.229,17.736zM16,20.871c-2.69,0-4.872-2.182-4.872-4.871c0-2.69,2.182-4.872,4.872-4.872c2.689,0,4.871,2.182,4.871,4.872C20.871,18.689,18.689,20.871,16,20.871z"></path><title>Link options.</title></g></g></g></g><g id="j_356"   ><path  stroke="#000000" id="v-6226" stroke-width="2" stroke-dasharray="30 30" fill="none" d="M 1270 742 856 1151" style="opacity: 1;"></path><path  fill="black" stroke="black" transform="translate(1270,742) scale(1,1) rotate(-224.66336059570312)"></path><path  fill="#000000" stroke="#000000" id="v-6228" d="M 20 0 L 0 10 L 20 20 z" transform="translate(834.9705962640475,1157.887490837328) scale(1,1) rotate(-44.66336441040039)" style="opacity: 1;"></path><path  id="v-6227" fill="none" d="M 1270 742 856 1151"></path><title ></title><g ><g  id="v-6211" label-idx="0" cursor="move" transform="translate(1063, 946.5)" style="opacity: 1;"><rect id="v-6213" fill="#ffffff" rx="3" ry="3" stroke="#ffffff" stroke-width="20px" pointer-events="none" width="139.6219940185547" height="118.74316024780273" transform="matrix(1,0,0,1,-69.8,-59.4)"></rect><text id="v-6212" font-size="24px" y="0.8em" xml:space="preserve" text-anchor="middle" pointer-events="none" fill="#000000" font-family="Open Sans" font-weight="normal" transform="matrix(1,0,0,1,0,-53.3)"><tspan id="v-6214"  dy="0em" x="0">autentica ou</tspan><tspan id="v-6215"  dy="1.2em" x="0">indica que</tspan><tspan id="v-6216"  dy="1.2em" x="0">esqueceu a</tspan><tspan id="v-6217"  dy="1.2em" x="0">senha</tspan></text></g><g  id="v-6218" label-idx="1" cursor="move" transform="translate(1063, 1016.1)" style="opacity: 1;"><rect id="v-6220" fill="#ffffff" rx="3" ry="3" pointer-events="none" width="69.2029800415039" height="26.27881145477295" transform="matrix(1,0,0,1,-34.6,-13.1)"></rect><text id="v-6219" font-size="19px" y="0.8em" xml:space="preserve" text-anchor="middle" pointer-events="none" fill="#000000" font-family="Open Sans" font-weight="normal" transform="matrix(1,0,0,1,0,-8.1)"><tspan id="v-6221"  dy="0em" x="0">[HTTPS]</tspan></text></g><g  id="v-6222" label-idx="2" cursor="move" transform="translate(1063, 1040.1)" style="opacity: 1;"><rect id="v-6224" fill="#ffffff" rx="3" ry="3" pointer-events="none"  display="none" width="0" height="0" transform="matrix(1,0,0,1,0,0)"></rect><text id="v-6223" font-size="19px" y="0.8em" display="none" xml:space="preserve" text-anchor="middle" pointer-events="none" fill="#000000" font-family="Open Sans" font-weight="normal"  transform="matrix(1,0,0,1,0,0)"><tspan id="v-6225"  dy="0em" x="0" style="fill-opacity: 0; stroke-opacity: 0;">-</tspan></text></g></g><g  display="none"></g><g  id="v-6230" display="none"><g  id="v-6208"><path  end="source" d="M 26 0 L 0 13 L 26 26 z"></path></g><g  id="v-6209"><path  end="target" d="M 26 0 L 0 13 L 26 26 z"></path></g></g><g  id="v-6229" display="none"><g  id="v-6207" transform="translate(1241.5443115234375, 770.1118774414062) "><g  event="remove"><circle r="11"></circle><path transform="scale(.8) translate(-16, -16)" d="M24.778,21.419 19.276,15.917 24.777,10.415 21.949,7.585 16.447,13.087 10.945,7.585 8.117,10.415 13.618,15.917 8.116,21.419 10.946,24.248 16.447,18.746 21.948,24.248z"></path><title>Remove link.</title></g><g  event="link:options"><circle r="11" transform="translate(25)"></circle><path fill="white" transform="scale(.55) translate(29, -16)" d="M31.229,17.736c0.064-0.571,0.104-1.148,0.104-1.736s-0.04-1.166-0.104-1.737l-4.377-1.557c-0.218-0.716-0.504-1.401-0.851-2.05l1.993-4.192c-0.725-0.91-1.549-1.734-2.458-2.459l-4.193,1.994c-0.647-0.347-1.334-0.632-2.049-0.849l-1.558-4.378C17.165,0.708,16.588,0.667,16,0.667s-1.166,0.041-1.737,0.105L12.707,5.15c-0.716,0.217-1.401,0.502-2.05,0.849L6.464,4.005C5.554,4.73,4.73,5.554,4.005,6.464l1.994,4.192c-0.347,0.648-0.632,1.334-0.849,2.05l-4.378,1.557C0.708,14.834,0.667,15.412,0.667,16s0.041,1.165,0.105,1.736l4.378,1.558c0.217,0.715,0.502,1.401,0.849,2.049l-1.994,4.193c0.725,0.909,1.549,1.733,2.459,2.458l4.192-1.993c0.648,0.347,1.334,0.633,2.05,0.851l1.557,4.377c0.571,0.064,1.148,0.104,1.737,0.104c0.588,0,1.165-0.04,1.736-0.104l1.558-4.377c0.715-0.218,1.399-0.504,2.049-0.851l4.193,1.993c0.909-0.725,1.733-1.549,2.458-2.458l-1.993-4.193c0.347-0.647,0.633-1.334,0.851-2.049L31.229,17.736zM16,20.871c-2.69,0-4.872-2.182-4.872-4.871c0-2.69,2.182-4.872,4.872-4.872c2.689,0,4.871,2.182,4.871,4.872C20.871,18.689,18.689,20.871,16,20.871z"></path><title>Link options.</title></g></g></g></g><g id="j_357"   ><path  stroke="#000000" id="v-6248" stroke-width="2" stroke-dasharray="30 30" fill="none" d="M 342 745 588 1148" style="opacity: 1;"></path><path  fill="black" stroke="black" transform="translate(342,745) scale(1,1) rotate(58.636688232421875)"></path><path  fill="#000000" stroke="#000000" id="v-6250" d="M 20 0 L 0 10 L 20 20 z" transform="translate(589.461134590026,1170.2046533075952) scale(1,1) rotate(-121.3633041381836)" style="opacity: 1;"></path><path  id="v-6249" fill="none" d="M 342 745 588 1148"></path><title ></title><g ><g  id="v-6236" label-idx="0" cursor="move" transform="translate(465, 946.5)" style="opacity: 1;"><rect id="v-6238" fill="#ffffff" rx="3" ry="3" stroke="#ffffff" stroke-width="20px" pointer-events="none" width="98.11914825439453" height="32.34315490722656" transform="matrix(1,0,0,1,-49.1,-16.2)"></rect><text id="v-6237" font-size="24px" y="0.8em" xml:space="preserve" text-anchor="middle" pointer-events="none" fill="#000000" font-family="Open Sans" font-weight="normal" transform="matrix(1,0,0,1,0,-10.1)"><tspan id="v-6239"  dy="0em" x="0">requisita</tspan></text></g><g  id="v-6240" label-idx="1" cursor="move" transform="translate(465, 977.7)" style="opacity: 1;"><rect id="v-6242" fill="#ffffff" rx="3" ry="3" pointer-events="none" width="69.2029800415039" height="26.27881145477295" transform="matrix(1,0,0,1,-34.6,-13.1)"></rect><text id="v-6241" font-size="19px" y="0.8em" xml:space="preserve" text-anchor="middle" pointer-events="none" fill="#000000" font-family="Open Sans" font-weight="normal" transform="matrix(1,0,0,1,0,-8.1)"><tspan id="v-6243"  dy="0em" x="0">[HTTPS]</tspan></text></g><g  id="v-6244" label-idx="2" cursor="move" transform="translate(465, 1001.7)" style="opacity: 1;"><rect id="v-6246" fill="#ffffff" rx="3" ry="3" pointer-events="none"  display="none" width="0" height="0" transform="matrix(1,0,0,1,0,0)"></rect><text id="v-6245" font-size="19px" y="0.8em" display="none" xml:space="preserve" text-anchor="middle" pointer-events="none" fill="#000000" font-family="Open Sans" font-weight="normal"  transform="matrix(1,0,0,1,0,0)"><tspan id="v-6247"  dy="0em" x="0" style="fill-opacity: 0; stroke-opacity: 0;">-</tspan></text></g></g><g  display="none"></g><g  id="v-6252" display="none"><g  id="v-6233"><path  end="source" d="M 26 0 L 0 13 L 26 26 z"></path></g><g  id="v-6234"><path  end="target" d="M 26 0 L 0 13 L 26 26 z"></path></g></g><g  id="v-6251" display="none"><g  id="v-6232" transform="translate(362.8408508300781, 779.1417236328125) "><g  event="remove"><circle r="11"></circle><path transform="scale(.8) translate(-16, -16)" d="M24.778,21.419 19.276,15.917 24.777,10.415 21.949,7.585 16.447,13.087 10.945,7.585 8.117,10.415 13.618,15.917 8.116,21.419 10.946,24.248 16.447,18.746 21.948,24.248z"></path><title>Remove link.</title></g><g  event="link:options"><circle r="11" transform="translate(25)"></circle><path fill="white" transform="scale(.55) translate(29, -16)" d="M31.229,17.736c0.064-0.571,0.104-1.148,0.104-1.736s-0.04-1.166-0.104-1.737l-4.377-1.557c-0.218-0.716-0.504-1.401-0.851-2.05l1.993-4.192c-0.725-0.91-1.549-1.734-2.458-2.459l-4.193,1.994c-0.647-0.347-1.334-0.632-2.049-0.849l-1.558-4.378C17.165,0.708,16.588,0.667,16,0.667s-1.166,0.041-1.737,0.105L12.707,5.15c-0.716,0.217-1.401,0.502-2.05,0.849L6.464,4.005C5.554,4.73,4.73,5.554,4.005,6.464l1.994,4.192c-0.347,0.648-0.632,1.334-0.849,2.05l-4.378,1.557C0.708,14.834,0.667,15.412,0.667,16s0.041,1.165,0.105,1.736l4.378,1.558c0.217,0.715,0.502,1.401,0.849,2.049l-1.994,4.193c0.725,0.909,1.549,1.733,2.459,2.458l4.192-1.993c0.648,0.347,1.334,0.633,2.05,0.851l1.557,4.377c0.571,0.064,1.148,0.104,1.737,0.104c0.588,0,1.165-0.04,1.736-0.104l1.558-4.377c0.715-0.218,1.399-0.504,2.049-0.851l4.193,1.993c0.909-0.725,1.733-1.549,2.458-2.458l-1.993-4.193c0.347-0.647,0.633-1.334,0.851-2.049L31.229,17.736zM16,20.871c-2.69,0-4.872-2.182-4.872-4.871c0-2.69,2.182-4.872,4.872-4.872c2.689,0,4.871,2.182,4.871,4.872C20.871,18.689,18.689,20.871,16,20.871z"></path><title>Link options.</title></g></g></g></g><g id="j_358"   ><path  stroke="#000000" id="v-6274" stroke-width="2" stroke-dasharray="30 30" fill="none" d="M 1472 745 1474 960" style="opacity: 1;"></path><path  fill="black" stroke="black" transform="translate(1472,745) scale(1,1) rotate(89.51239013671875)"></path><path  fill="#000000" stroke="#000000" id="v-6276" d="M 20 0 L 0 10 L 20 20 z" transform="translate(1464.0003820728325,980.0851070272843) scale(1,1) rotate(-90.48760986328125)" style="opacity: 1;"></path><path  id="v-6275" fill="none" d="M 1472 745 1474 960"></path><title ></title><g ><g  id="v-6260" label-idx="0" cursor="move" transform="translate(1473, 852.5)" style="opacity: 1;"><rect id="v-6262" fill="#ffffff" rx="3" ry="3" stroke="#ffffff" stroke-width="20px" pointer-events="none" width="184.18858337402344" height="89.94315719604492" transform="matrix(1,0,0,1,-92.1,-45)"></rect><text id="v-6261" font-size="24px" y="0.8em" xml:space="preserve" text-anchor="middle" pointer-events="none" fill="#000000" font-family="Open Sans" font-weight="normal" transform="matrix(1,0,0,1,0,-38.9)"><tspan id="v-6263"  dy="0em" x="0">Recebe link</tspan><tspan id="v-6264"  dy="1.2em" x="0">temporário para</tspan><tspan id="v-6265"  dy="1.2em" x="0">resetar a senha</tspan></text></g><g  id="v-6266" label-idx="1" cursor="move" transform="translate(1473, 910.1)" style="opacity: 1;"><rect id="v-6268" fill="#ffffff" rx="3" ry="3" pointer-events="none" width="113.69061279296875" height="26.27881145477295" transform="matrix(1,0,0,1,-56.8,-13.1)"></rect><text id="v-6267" font-size="19px" y="0.8em" xml:space="preserve" text-anchor="middle" pointer-events="none" fill="#000000" font-family="Open Sans" font-weight="normal" transform="matrix(1,0,0,1,0,-8.1)"><tspan id="v-6269"  dy="0em" x="0">[POP3/IMAP]</tspan></text></g><g  id="v-6270" label-idx="2" cursor="move" transform="translate(1473, 934.1)" style="opacity: 1;"><rect id="v-6272" fill="#ffffff" rx="3" ry="3" pointer-events="none"  display="none" width="0" height="0" transform="matrix(1,0,0,1,0,0)"></rect><text id="v-6271" font-size="19px" y="0.8em" display="none" xml:space="preserve" text-anchor="middle" pointer-events="none" fill="#000000" font-family="Open Sans" font-weight="normal"  transform="matrix(1,0,0,1,0,0)"><tspan id="v-6273"  dy="0em" x="0" style="fill-opacity: 0; stroke-opacity: 0;">-</tspan></text></g></g><g  display="none"></g><g  id="v-6278" display="none"><g  id="v-6257"><path  end="source" d="M 26 0 L 0 13 L 26 26 z"></path></g><g  id="v-6258"><path  end="target" d="M 26 0 L 0 13 L 26 26 z"></path></g></g><g  id="v-6277" display="none"><g  id="v-6256" transform="translate(1472.3720703125, 784.998291015625) "><g  event="remove"><circle r="11"></circle><path transform="scale(.8) translate(-16, -16)" d="M24.778,21.419 19.276,15.917 24.777,10.415 21.949,7.585 16.447,13.087 10.945,7.585 8.117,10.415 13.618,15.917 8.116,21.419 10.946,24.248 16.447,18.746 21.948,24.248z"></path><title>Remove link.</title></g><g  event="link:options"><circle r="11" transform="translate(25)"></circle><path fill="white" transform="scale(.55) translate(29, -16)" d="M31.229,17.736c0.064-0.571,0.104-1.148,0.104-1.736s-0.04-1.166-0.104-1.737l-4.377-1.557c-0.218-0.716-0.504-1.401-0.851-2.05l1.993-4.192c-0.725-0.91-1.549-1.734-2.458-2.459l-4.193,1.994c-0.647-0.347-1.334-0.632-2.049-0.849l-1.558-4.378C17.165,0.708,16.588,0.667,16,0.667s-1.166,0.041-1.737,0.105L12.707,5.15c-0.716,0.217-1.401,0.502-2.05,0.849L6.464,4.005C5.554,4.73,4.73,5.554,4.005,6.464l1.994,4.192c-0.347,0.648-0.632,1.334-0.849,2.05l-4.378,1.557C0.708,14.834,0.667,15.412,0.667,16s0.041,1.165,0.105,1.736l4.378,1.558c0.217,0.715,0.502,1.401,0.849,2.049l-1.994,4.193c0.725,0.909,1.549,1.733,2.459,2.458l4.192-1.993c0.648,0.347,1.334,0.633,2.05,0.851l1.557,4.377c0.571,0.064,1.148,0.104,1.737,0.104c0.588,0,1.165-0.04,1.736-0.104l1.558-4.377c0.715-0.218,1.399-0.504,2.049-0.851l4.193,1.993c0.909-0.725,1.733-1.549,2.458-2.458l-1.993-4.193c0.347-0.647,0.633-1.334,0.851-2.049L31.229,17.736zM16,20.871c-2.69,0-4.872-2.182-4.872-4.871c0-2.69,2.182-4.872,4.872-4.872c2.689,0,4.871,2.182,4.871,4.872C20.871,18.689,18.689,20.871,16,20.871z"></path><title>Link options.</title></g></g></g></g><g id="j_359"   ><path  stroke="#000000" id="v-6300" stroke-width="2" stroke-dasharray="30 30" fill="none" d="M 915 1262 1231 1188" style="opacity: 1;"></path><path  fill="black" stroke="black" transform="translate(915,1262) scale(1,1) rotate(-13.269115447998047)"></path><path  fill="#000000" stroke="#000000" id="v-6302" d="M 20 0 L 0 10 L 20 20 z" transform="translate(1252.295246878533,1192.7330634099117) scale(1,1) rotate(-193.2691192626953)" style="opacity: 1;"></path><path  id="v-6301" fill="none" d="M 915 1262 1231 1188"></path><title ></title><g ><g  id="v-6286" label-idx="0" cursor="move" transform="translate(1073, 1225)" style="opacity: 1;"><rect id="v-6288" fill="#ffffff" rx="3" ry="3" stroke="#ffffff" stroke-width="20px" pointer-events="none" width="189.03689575195312" height="89.94315719604492" transform="matrix(1,0,0,1,-94.5,-45)"></rect><text id="v-6287" font-size="24px" y="0.8em" xml:space="preserve" text-anchor="middle" pointer-events="none" fill="#000000" font-family="Open Sans" font-weight="normal" transform="matrix(1,0,0,1,0,-38.9)"><tspan id="v-6289"  dy="0em" x="0">envia e-mail com</tspan><tspan id="v-6290"  dy="1.2em" x="0">autenticação</tspan><tspan id="v-6291"  dy="1.2em" x="0">temporária</tspan></text></g><g  id="v-6292" label-idx="1" cursor="move" transform="translate(1073, 1282.6)" style="opacity: 1;"><rect id="v-6294" fill="#ffffff" rx="3" ry="3" pointer-events="none" width="61.81206512451172" height="26.27881145477295" transform="matrix(1,0,0,1,-30.9,-13.1)"></rect><text id="v-6293" font-size="19px" y="0.8em" xml:space="preserve" text-anchor="middle" pointer-events="none" fill="#000000" font-family="Open Sans" font-weight="normal" transform="matrix(1,0,0,1,0,-8.1)"><tspan id="v-6295"  dy="0em" x="0">[SMTP]</tspan></text></g><g  id="v-6296" label-idx="2" cursor="move" transform="translate(1073, 1306.6)" style="opacity: 1;"><rect id="v-6298" fill="#ffffff" rx="3" ry="3" pointer-events="none"  display="none" width="0" height="0" transform="matrix(1,0,0,1,0,0)"></rect><text id="v-6297" font-size="19px" y="0.8em" display="none" xml:space="preserve" text-anchor="middle" pointer-events="none" fill="#000000" font-family="Open Sans" font-weight="normal"  transform="matrix(1,0,0,1,0,0)"><tspan id="v-6299"  dy="0em" x="0" style="fill-opacity: 0; stroke-opacity: 0;">-</tspan></text></g></g><g  display="none"></g><g  id="v-6304" display="none"><g  id="v-6283"><path  end="source" d="M 26 0 L 0 13 L 26 26 z"></path></g><g  id="v-6284"><path  end="target" d="M 26 0 L 0 13 L 26 26 z"></path></g></g><g  id="v-6303" display="none"><g  id="v-6282" transform="translate(953.9463500976562, 1252.879638671875) "><g  event="remove"><circle r="11"></circle><path transform="scale(.8) translate(-16, -16)" d="M24.778,21.419 19.276,15.917 24.777,10.415 21.949,7.585 16.447,13.087 10.945,7.585 8.117,10.415 13.618,15.917 8.116,21.419 10.946,24.248 16.447,18.746 21.948,24.248z"></path><title>Remove link.</title></g><g  event="link:options"><circle r="11" transform="translate(25)"></circle><path fill="white" transform="scale(.55) translate(29, -16)" d="M31.229,17.736c0.064-0.571,0.104-1.148,0.104-1.736s-0.04-1.166-0.104-1.737l-4.377-1.557c-0.218-0.716-0.504-1.401-0.851-2.05l1.993-4.192c-0.725-0.91-1.549-1.734-2.458-2.459l-4.193,1.994c-0.647-0.347-1.334-0.632-2.049-0.849l-1.558-4.378C17.165,0.708,16.588,0.667,16,0.667s-1.166,0.041-1.737,0.105L12.707,5.15c-0.716,0.217-1.401,0.502-2.05,0.849L6.464,4.005C5.554,4.73,4.73,5.554,4.005,6.464l1.994,4.192c-0.347,0.648-0.632,1.334-0.849,2.05l-4.378,1.557C0.708,14.834,0.667,15.412,0.667,16s0.041,1.165,0.105,1.736l4.378,1.558c0.217,0.715,0.502,1.401,0.849,2.049l-1.994,4.193c0.725,0.909,1.549,1.733,2.459,2.458l4.192-1.993c0.648,0.347,1.334,0.633,2.05,0.851l1.557,4.377c0.571,0.064,1.148,0.104,1.737,0.104c0.588,0,1.165-0.04,1.736-0.104l1.558-4.377c0.715-0.218,1.399-0.504,2.049-0.851l4.193,1.993c0.909-0.725,1.733-1.549,2.458-2.458l-1.993-4.193c0.347-0.647,0.633-1.334,0.851-2.049L31.229,17.736zM16,20.871c-2.69,0-4.872-2.182-4.872-4.871c0-2.69,2.182-4.872,4.872-4.872c2.689,0,4.871,2.182,4.871,4.872C20.871,18.689,18.689,20.871,16,20.871z"></path><title>Link options.</title></g></g></g></g></g><defs id="v-4"></defs></svg>